<?xml version="1.0" encoding="utf-8"?>
<!-- Generator: Adobe Illustrator 18.1.1, SVG Export Plug-In . SVG Version: 6.00 Build 0)  -->
<svg version="1.1" xmlns="http://www.w3.org/2000/svg" xmlns:xlink="http://www.w3.org/1999/xlink" x="0px" y="0px"
	 viewBox="-33 0 17 26" enable-background="new -33 0 17 26" xml:space="preserve" width="26px" height="40px">
<g id="Layer_1">
	<path fill="#F5F5F5" d="M-33,0v26h17V0H-33z M-21.7,23.4l-2.8-1.5l-2.8,1.5l0.5-3l-2.2-2.2l3-0.5l1.4-2.8l1.4,2.8l3.1,0.5l-2.2,2.2
		L-21.7,23.4z M-21.7,11.7l-2.8-1.5l-2.8,1.5l0.5-3l-2.2-2.2l3-0.5l1.4-2.8l1.4,2.8l3.1,0.5l-2.1,2.2L-21.7,11.7z"/>
	<polygon fill="none" stroke="#FFC938" stroke-width="1.3" stroke-miterlimit="10" points="-24.4,3.5 -23.2,6 -20.2,6.4 -22.3,8.5 
		-21.8,11.3 -24.4,10.1 -27.1,11.3 -26.5,8.5 -28.7,6.4 -25.7,6 	"/>
	<polygon fill="none" stroke="#E55E23" stroke-width="1.3" stroke-miterlimit="10" points="-24.4,15.1 -23.2,17.7 -20.2,18.2 
		-22.3,20.3 -21.8,23.2 -24.4,21.7 -27.1,23.2 -26.5,20.3 -28.7,18.2 -25.7,17.7 	"/>
</g>
</svg>
