<svg xmlns="http://www.w3.org/2000/svg" xmlns:xlink="http://www.w3.org/1999/xlink" viewBox="0 0 624.1 787.1"><defs><path id="a" d="M0 0h624.1v787.1H0z"/></defs><clipPath id="b"><use xlink:href="#a" overflow="visible"/></clipPath><path clip-path="url(#b)" d="M619 488.9l-113.6-70.8v-90.7c0-3.8-2-7.3-5.2-9.3L432.7 276V104.3c0-3.8-2-7.3-5.2-9.3L277.8 1.7c-.1 0-.2-.1-.2-.1-.1 0-.2-.1-.2-.2-.1-.1-.3-.1-.4-.2-.2-.1-.4-.2-.7-.3-.2-.1-.5-.2-.7-.3s-.5-.2-.7-.2c-.2-.1-.5-.1-.7-.2-.2 0-.5-.1-.7-.1-.2 0-.5 0-.7-.1h-1.5c-.3 0-.5 0-.8.1-.2 0-.4.1-.7.1-.3.1-.5.1-.8.2-.2.1-.4.1-.7.2-.2.1-.5.2-.7.3l-.6.3c-.1.1-.3.1-.4.2-.1 0-.2.1-.2.2-.1 0-.2.1-.2.1L116.5 95c-3.2 2-5.2 5.5-5.2 9.3v147.5L5.2 318C2 320 0 323.5 0 327.3v448.8c0 6.1 4.9 11 11 11h602.1c6.1 0 11-4.9 11-11V498.2c0-3.8-1.9-7.3-5.1-9.3m-135.6-84.5l-14.1-8.8c-.1 0-.2-.1-.2-.1-.1 0-.2-.1-.2-.2-.1-.1-.3-.1-.4-.2-.2-.1-.4-.2-.7-.3-.2-.1-.5-.2-.7-.3-.2-.1-.5-.2-.7-.2-.2-.1-.5-.1-.7-.2-.2 0-.5-.1-.7-.1s-.5 0-.7-.1h-1.4c-.2 0-.5 0-.7.1-.2 0-.5.1-.7.1-.2 0-.5.1-.7.2-.2.1-.5.1-.7.2-.2.1-.5.2-.7.3-.2.1-.4.2-.7.3-.1.1-.3.1-.4.2-.1 0-.2.1-.2.2-.1 0-.2.1-.2.1l-149.7 93.3c-3.2 2-5.2 5.5-5.2 9.3v266.9h-39.1V196.5l219.7 136.9v71h-.2zm-72.7-142.2L283 182.6V30.9l127.7 79.6v151.7zM133.4 110.5l127.7-79.6v138l-2.5-1.6c-.1 0-.2-.1-.2-.1-.1 0-.2-.1-.2-.2-.1-.1-.3-.1-.4-.2-.2-.1-.4-.2-.7-.3-.2-.1-.5-.2-.7-.3-.2-.1-.5-.2-.7-.2-.2-.1-.5-.1-.7-.2-.2 0-.5-.1-.7-.1-.2 0-.5 0-.7-.1h-1.5c-.3 0-.5 0-.8.1-.2 0-.4.1-.7.1s-.5.1-.8.2c-.2.1-.4.1-.7.2-.2.1-.5.2-.7.3l-.6.3c-.1.1-.3.1-.4.2-.1 0-.2.1-.2.2-.1 0-.2.1-.2.1l-113.5 70.8V110.5h-.1zM22.1 333.4l219.7-136.9v568.6H22.1V333.4zm302.7 431.7V504.3l127.7-79.6v340.4H324.8zm277.3 0H474.5V424.7l127.6 79.6v260.8z"/></svg>