<svg xmlns="http://www.w3.org/2000/svg" xmlns:xlink="http://www.w3.org/1999/xlink" viewBox="0 0 159.3 91.8"><defs><path id="a" d="M0 0h159.3v91.8H0z"/></defs><clipPath id="b"><use xlink:href="#a" overflow="visible"/></clipPath><path clip-path="url(#b)" d="M18.5 53.8c-1.4 0-2.5 1.1-2.5 2.5v30.8c0 1.4 1.1 2.5 2.5 2.5s2.5-1.1 2.5-2.5V56.3c0-1.4-1.1-2.5-2.5-2.5M158.9 23c-.4-.8-1.3-1.2-2.2-1.2H148l1.7-19c.1-1.2-.6-2.3-1.8-2.6-1.1-.3-2.4.2-2.9 1.3l-15 29.1c-.4.8-.4 1.7.1 2.4s1.3 1.2 2.1 1.2h7.5L137 54.9c-.2 1.2.6 2.3 1.7 2.7.3.1.5.1.8.1.9 0 1.7-.5 2.2-1.3l17.2-30.9c.5-.8.5-1.8 0-2.5m-15.3 19.7l1.4-10.8c.1-.7-.1-1.4-.6-2-.5-.5-1.2-.8-1.9-.8h-6.2l7.3-14.2-.8 9.1c-.1.7.2 1.4.6 1.9.5.5 1.1.8 1.8.8h7.2l-8.8 16zM34.5 53.8c-1.4 0-2.5 1.1-2.5 2.5v30.8c0 1.4 1.1 2.5 2.5 2.5s2.5-1.1 2.5-2.5V56.3c0-1.4-1.1-2.5-2.5-2.5M50.5 53.8c-1.4 0-2.5 1.1-2.5 2.5v30.8c0 1.4 1.1 2.5 2.5 2.5s2.5-1.1 2.5-2.5V56.3c0-1.4-1.1-2.5-2.5-2.5M66.5 53.8c-1.4 0-2.5 1.1-2.5 2.5v30.8c0 1.4 1.1 2.5 2.5 2.5s2.5-1.1 2.5-2.5V56.3c0-1.4-1.2-2.5-2.5-2.5"/><path clip-path="url(#b)" d="M132.7 62.2c-1.4 0-2.5 1.1-2.5 2.5v8.9s-.1 3.5-1.7 6.9c-2.1 4.2-5.5 6.3-10.4 6.3-11.4 0-11.8-9.7-11.9-10.8v-7.3c-.2-5.2-3.3-14.9-13.8-14.9h-8.3c-1.1-2.5-3.5-7.4-8.1-12.4-5.9-6.4-16.5-14-33.6-14C7.5 27.4.1 55.4 0 55.7V87.1c0 1.4 1.1 2.5 2.5 2.5S5 88.5 5 87.1V56.7c.4-1.2 2.1-6.5 6.8-11.9 7.2-8.2 17.5-12.4 30.6-12.4C70 32.4 78.8 53.6 80 56.7v30.4c0 1.4 1.1 2.5 2.5 2.5s2.5-1.1 2.5-2.5V58.8h7.5c8.2 0 8.8 9 8.8 10V76c0 .2.2 15.8 16.9 15.8 13.3 0 17-11.8 17.1-18.1v-9c-.1-1.4-1.2-2.5-2.6-2.5M98.9 38.1l.3.9c.4 1 1.3 1.7 2.4 1.7.3 0 .6 0 .8-.1 1.3-.5 2-1.9 1.5-3.2-.1-.3-.2-.6-.4-1-.9-2.5-2.2-5.8-.8-10.7 1.9-6.7 1.8-11.4-.5-16.3-.6-1.3-2.1-1.8-3.3-1.2-1.3.6-1.8 2.1-1.2 3.3 1.7 3.8 1.8 7.3.2 12.8-1.9 6.4-.1 11.1 1 13.8M110 30.3l.3.9c.4 1 1.3 1.7 2.4 1.7.3 0 .6 0 .8-.1 1.3-.5 2-1.9 1.5-3.2-.1-.3-.2-.6-.4-1-.9-2.5-2.2-5.8-.8-10.7 1.9-6.7 1.8-11.4-.5-16.3-.6-1.3-2.1-1.8-3.3-1.2-1.3.6-1.8 2.1-1.2 3.3 1.7 3.8 1.8 7.3.2 12.8-1.9 6.4-.1 11 1 13.8M121 38.1l.3.9c.4 1 1.3 1.7 2.4 1.7.3 0 .6 0 .8-.1 1.3-.5 2-1.9 1.5-3.2-.1-.3-.2-.6-.4-1-.9-2.5-2.2-5.8-.8-10.7 1.9-6.7 1.8-11.4-.5-16.3-.6-1.3-2.1-1.8-3.3-1.2-1.3.6-1.8 2.1-1.2 3.3 1.7 3.8 1.8 7.3.2 12.8-1.8 6.4-.1 11.1 1 13.8"/></svg>