<svg xmlns="http://www.w3.org/2000/svg" xmlns:xlink="http://www.w3.org/1999/xlink" viewBox="0 0 90.4 79.8"><path d="M43.1 26l-7.9 28.4 9.9-6.2-.6 10.9-2.2-.4 2.7 9.8 5.7-8.4-2.1-.3 3.7-19.4-11.1 6.2L49 25.8z"/><defs><path id="a" d="M0 0h90.4v79.8H0z"/></defs><clipPath id="b"><use xlink:href="#a" overflow="visible"/></clipPath><path clip-path="url(#b)" d="M89.5 70.9L50.3 3c-1.1-1.8-3-3-5.2-3C43 0 41 1.1 40 3L.8 70.9c-1.1 1.8-1.1 4.1 0 5.9 1.1 1.8 3 3 5.1 3h78.5a6 6 0 0 0 5.2-3c1-1.7 1-4-.1-5.9m-5 3.1c0 .1-.1.1-.2.1H5.9c-.1 0-.2-.1-.2-.1 0-.1-.1-.1 0-.2L44.9 5.9c.1-.1.1-.1.2-.1s.1 0 .2.1l39.2 67.9c.1.1.1.2 0 .2"/></svg>