<svg xmlns="http://www.w3.org/2000/svg" xmlns:xlink="http://www.w3.org/1999/xlink" viewBox="0 0 512 390.9"><defs><path id="a" d="M0 0h512v390.9H0z"/></defs><clipPath id="b"><use xlink:href="#a" overflow="visible"/></clipPath><path clip-path="url(#b)" d="M512 238.8c0-5.9-4.8-10.7-10.7-10.7h-48s-44.6-72.3-154.7-72.3c-31.5 0-58.3 5.9-80.5 14.4 12.1-26.9 25.4-44 36.2-54.8 12.1-12 22.8-17.7 28.7-20.2 10.2 12.8 25.7 20 41.7 20 7.7 0 15.6-1.7 23-5.3l28.9-13.8-9.1-19.1 19.2-9.2c5.3-2.5 7.6-8.9 5-14.2-2.5-5.3-8.9-7.6-14.2-5l-19.2 9.2-9.3-19.3 19.2-9.2c5.3-2.5 7.6-8.9 5-14.2-2.5-5.3-8.9-7.5-14.2-5l-19.2 9.2L330.6 0l-28.9 13.8c-23.7 11.3-35.2 37.9-28.3 62.3-18.3 8.1-57 33.3-83.5 107.3-36.1 20.4-53.7 44.5-53.7 44.5C-44 228.8 6.5 347.8 6.5 347.8h58.3c4.9 24.6 26.5 43.1 52.6 43.1 26 0 47.7-18.5 52.5-43.1h172.2c4.8 24.6 26.5 43.1 52.5 43.1s47.7-18.5 52.5-43.1h23c19.1 0 30.5-4.4 36.4-7.9.2-.1.3-.2.5-.3 2.9-1.9 4.9-5.2 4.9-9l.1-91.8zM311 33.1l9.6-4.6 27.7 57.7-9.6 4.6c-4.4 2.1-9 3.2-13.8 3.2-6 0-11.8-1.7-16.9-4.8-5.2-3.2-9.4-7.8-12-13.4-7.7-16-.9-35.1 15-42.7m92.1 175c10.1 7.1 17.7 14.3 23 20h-95.4v-48.6c10.5 1.6 20.7 4.1 30.4 7.3 15.2 5.2 29.3 12.3 42 21.3m-104.4-31c3.6 0 7.1.1 10.7.3v50.7H164.9c5.9-5.7 14.2-12.6 24.6-19.5 13.9-9.2 29.1-16.4 45.2-21.6 20-6.6 41.6-9.9 64-9.9M117.3 369.6c-17.8 0-32.3-14.5-32.3-32.2 0-17.8 14.5-32.2 32.3-32.2 17.8 0 32.2 14.5 32.2 32.2.1 17.8-14.4 32.2-32.2 32.2m277.4 0c-17.8 0-32.2-14.5-32.2-32.2 0-17.8 14.5-32.2 32.2-32.2 17.8 0 32.2 14.5 32.2 32.2 0 17.8-14.4 32.2-32.2 32.2m52.4-43.1c-5-24.4-26.6-42.7-52.5-42.7s-47.4 18.3-52.5 42.7H169.8c-5-24.4-26.6-42.7-52.5-42.7s-47.4 18.3-52.5 42.7H22.6c-2.1-11.4-2.7-28.4 6.8-42.6 14.9-22.3 51.9-34.3 106.8-34.5l354.4.1v74.3c-4.2 1.4-10.8 2.7-20.4 2.7h-23.1z"/><path clip-path="url(#b)" d="M298.7 262.5h-21.3c-5.9 0-10.7 4.8-10.7 10.7 0 5.9 4.8 10.7 10.7 10.7h21.3c5.9 0 10.7-4.8 10.7-10.7-.1-5.9-4.8-10.7-10.7-10.7M117.3 326.7c-5.9 0-10.7 4.8-10.7 10.7 0 5.9 4.8 10.7 10.7 10.7 5.9 0 10.7-4.8 10.7-10.7 0-5.9-4.8-10.7-10.7-10.7M394.7 326.7c-5.9 0-10.7 4.8-10.7 10.7 0 5.9 4.8 10.7 10.7 10.7 5.9 0 10.7-4.8 10.7-10.7-.1-5.9-4.8-10.7-10.7-10.7"/></svg>