<?xml version="1.0" encoding="utf-8"?>
<!-- Generator: Adobe Illustrator 18.1.1, SVG Export Plug-In . SVG Version: 6.00 Build 0)  -->
<svg version="1.1" id="Слой_1" xmlns="http://www.w3.org/2000/svg" xmlns:xlink="http://www.w3.org/1999/xlink" x="0px" y="0px"
	 viewBox="0 0 86.1 88" enable-background="new 0 0 86.1 88" xml:space="preserve">
<g>
	<defs>
		<rect id="SVGID_1_" width="86.1" height="88"/>
	</defs>
	<clipPath id="SVGID_2_">
		<use xlink:href="#SVGID_1_"  overflow="visible"/>
	</clipPath>
	<path clip-path="url(#SVGID_2_)" d="M54.1,24.5c0-6.1-5-11-11.1-11c-6.1,0-11,5-11,11.1c0,6.1,5,11,11.1,11
		C49.2,35.6,54.1,30.6,54.1,24.5 M36,24.5c0-3.9,3.2-7,7.1-7c3.9,0,7,3.2,7,7.1c0,3.9-3.2,7-7.1,7C39.2,31.6,36,28.4,36,24.5"/>
	<path clip-path="url(#SVGID_2_)" d="M86,78.6l-3.8-21.3c-0.7-3.8-4-6.6-7.9-6.6H58.5l5.2-7c4-5.2,6-11.7,5.6-18.3
		C68.4,11.2,56.8,0,42.8,0C28.9,0,17.2,11.2,16.3,25.5c-0.4,6.6,1.6,13,5.6,18.3l5.2,7H11.8c-3.9,0-7.2,2.8-7.9,6.6L0.1,78.6
		c-0.8,4.3,2.1,8.5,6.4,9.3C7,88,7.5,88,8,88h70.1c4.4,0,8-3.6,8-8C86.1,79.5,86.1,79,86,78.6L86,78.6z M20.3,25.8
		C21,15.1,29.6,4,42.8,4s21.8,11,22.6,21.7c0.3,5.6-1.4,11.1-4.9,15.6L42.8,65.1L25.1,41.4C21.7,36.9,20,31.4,20.3,25.8 M81.3,82.5
		c-0.8,0.9-1.9,1.5-3.1,1.5H8c-2.2,0-4-1.8-4-4c0-0.2,0-0.5,0.1-0.7L7.9,58c0.3-1.9,2-3.3,3.9-3.3h18.2l11.2,14.9
		c0.7,0.9,1.9,1.1,2.8,0.4c0.2-0.1,0.3-0.3,0.4-0.4l11.1-14.9h18.8c1.9,0,3.6,1.4,3.9,3.3l3.8,21.3C82.3,80.4,82,81.6,81.3,82.5
		L81.3,82.5z"/>
</g>
</svg>
