<svg xmlns="http://www.w3.org/2000/svg" xmlns:xlink="http://www.w3.org/1999/xlink" viewBox="0 0 83 61"><path d="M9.1 22.1h28v2h-28z"/><path fill="none" stroke="#000" d="M9.1 22.1h28v2h-28z"/><defs><path id="a" d="M0 0h83v61H0z"/></defs><clipPath id="b"><use xlink:href="#a" overflow="visible"/></clipPath><path clip-path="url(#b)" d="M77.1 60.5H5.9c-3 0-5.4-2.4-5.4-5.4V5.9C.5 2.9 2.9.5 5.9.5H77c3 0 5.4 2.4 5.4 5.4V55c.1 3.1-2.3 5.5-5.3 5.5M5.9 2.5C4 2.5 2.5 4 2.5 5.9V55c0 1.9 1.5 3.4 3.4 3.4H77c1.9 0 3.4-1.5 3.4-3.4V5.9c0-1.9-1.5-3.4-3.4-3.4H5.9z"/><path clip-path="url(#b)" fill="none" stroke="#000" d="M77.1 60.5H5.9c-3 0-5.4-2.4-5.4-5.4V5.9C.5 2.9 2.9.5 5.9.5H77c3 0 5.4 2.4 5.4 5.4V55c.1 3.1-2.3 5.5-5.3 5.5zM5.9 2.5C4 2.5 2.5 4 2.5 5.9V55c0 1.9 1.5 3.4 3.4 3.4H77c1.9 0 3.4-1.5 3.4-3.4V5.9c0-1.9-1.5-3.4-3.4-3.4H5.9z"/><path clip-path="url(#b)" d="M9.1 28.1h28v2h-28z"/><path clip-path="url(#b)" fill="none" stroke="#000" d="M9.1 28.1h28v2h-28z"/><path clip-path="url(#b)" d="M70.9 38H43.4c-1.3 0-2.4-1.1-2.4-2.4v-11c0-1.3 1.1-2.4 2.4-2.4h27.5c1.3 0 2.4 1.1 2.4 2.4v11c.1 1.3-1 2.4-2.4 2.4M43.4 24.1c-.2 0-.4.2-.4.4v11c0 .2.2.4.4.4h27.5c.2 0 .4-.2.4-.4v-11c0-.2-.2-.4-.4-.4H43.4z"/><path clip-path="url(#b)" fill="none" stroke="#000" d="M70.9 38H43.4c-1.3 0-2.4-1.1-2.4-2.4v-11c0-1.3 1.1-2.4 2.4-2.4h27.5c1.3 0 2.4 1.1 2.4 2.4v11c.1 1.3-1 2.4-2.4 2.4zM43.4 24.1c-.2 0-.4.2-.4.4v11c0 .2.2.4.4.4h27.5c.2 0 .4-.2.4-.4v-11c0-.2-.2-.4-.4-.4H43.4z"/><path clip-path="url(#b)" d="M9.1 16.1h28v2h-28z"/><path clip-path="url(#b)" fill="none" stroke="#000" d="M9.1 16.1h28v2h-28z"/><path clip-path="url(#b)" d="M41.4 42.5h16v2h-16z"/><path clip-path="url(#b)" fill="none" stroke="#000" d="M41.4 42.5h16v2h-16z"/><path clip-path="url(#b)" d="M41.4 15.8h32.1v2H41.4z"/><path clip-path="url(#b)" fill="none" stroke="#000" d="M41.4 15.8h32.1v2H41.4z"/></svg>