<svg xmlns="http://www.w3.org/2000/svg" xmlns:xlink="http://www.w3.org/1999/xlink" viewBox="0 0 90 90"><defs><path id="a" d="M0 0h90v90H0z"/></defs><clipPath id="b"><use xlink:href="#a" overflow="visible"/></clipPath><path clip-path="url(#b)" d="M67.7 42.6c.3.6.8 1 1.5 1.1.2.1.4.1.6.1 1.1 0 2-.7 2.3-1.8.9-3.3.9-6.8 0-10.2-.9-3.3-2.6-6.4-5.1-8.8-2.4-2.4-5.5-4.2-8.8-5.1-3.3-.9-6.9-.9-10.2 0-1.3.3-2 1.7-1.7 2.9.3 1.2 1.7 2 2.9 1.7 2.5-.7 5.2-.7 7.7 0s4.8 2 6.7 3.9c1.9 1.8 3.2 4.2 3.9 6.7.7 2.5.7 5.2 0 7.7-.2.6-.1 1.2.2 1.8"/><path clip-path="url(#b)" d="M88.8 27.4c-1.7-6.2-5-12-9.6-16.5C74.6 6.3 68.9 3 62.6 1.3c-6.2-1.7-12.9-1.7-19.1 0-.6.2-1.1.6-1.5 1.1-.3.6-.4 1.2-.2 1.8.3 1.2 1.7 2 2.9 1.7 5.4-1.4 11.2-1.5 16.6 0 5.4 1.5 10.4 4.3 14.4 8.3 4 4 6.9 9 8.3 14.4 1.4 5.4 1.4 11.2 0 16.6-.3 1.3.4 2.6 1.7 2.9.2.1.4.1.6.1 1.1 0 2-.7 2.3-1.8 1.8-6.2 1.8-12.8.2-19M79 58.4c-3.3-2.7-6.3-4-9.3-4-2.7 0-5.5 1.1-8.6 3.3l-.1.1c-1.1.8-4 3.5-4.4 3.8-.3.2-.9.5-1.5.5h-.2c-.1 0-5.4-1.6-15.4-11.5C29.6 40.5 28 35.2 28 35.2c-.1-.5.1-1.4.5-1.8.5-.6 3.1-3.4 3.9-4.4 4.7-6.4 4.6-11.8-.6-18.1-3.5-4.2-7.7-8.5-13.4-8.8C14 2 9.6 4.1 5 8.7.6 13.1-1.1 20 .7 26.3c.3 2 4 20.1 23.5 39.6C43.6 85.4 61.7 89 63.6 89.3c1.6.4 3.3.7 5 .7 4.8 0 9.4-1.8 12.6-5 4.6-4.6 6.7-8.9 6.5-13.2-.1-5.7-4.5-10-8.7-13.4m-1.1 23.2c-2.3 2.3-5.6 3.6-9.2 3.6-1.3 0-2.6-.2-3.9-.5-.1 0-.2 0-.3-.1-.2 0-18.2-3.2-37.1-22.1-18.8-18.9-22-36.9-22-37.1 0-.1 0-.2-.1-.3-1.3-4.7-.1-9.8 3.1-13 3.4-3.4 6.5-5.2 9.3-5.2h.3c3.8.2 7.1 3.7 9.9 7 3.7 4.6 3.8 7.5.4 12.2-.5.7-2.6 3-3.5 4-1.4 1.5-2.1 4.1-1.6 6.2.1.2 1.5 6.1 12 16.9l1.6 1.6c10.8 10.4 16.6 11.9 16.9 12 .4.1.9.2 1.4.2 1.8 0 3.6-.7 4.8-1.8 1.2-1.1 3.4-3.1 4-3.5 2.4-1.7 4.2-2.5 5.9-2.5 1.9 0 3.8.9 6.2 2.9 3.4 2.8 6.9 6.1 7 9.9.2 2.9-1.5 6-5.1 9.6"/></svg>