<svg xmlns="http://www.w3.org/2000/svg" xmlns:xlink="http://www.w3.org/1999/xlink" viewBox="0 0 86.1 88"><defs><path id="a" d="M0 0h86.1v88H0z"/></defs><clipPath id="b"><use xlink:href="#a" overflow="visible"/></clipPath><path clip-path="url(#b)" d="M54.1 24.5c0-6.1-5-11-11.1-11s-11 5-11 11.1 5 11 11.1 11 11-5 11-11.1m-18.1 0c0-3.9 3.2-7 7.1-7 3.9 0 7 3.2 7 7.1 0 3.9-3.2 7-7.1 7-3.8 0-7-3.2-7-7.1"/><path clip-path="url(#b)" d="M86 78.6l-3.8-21.3c-.7-3.8-4-6.6-7.9-6.6H58.5l5.2-7c4-5.2 6-11.7 5.6-18.3C68.4 11.2 56.8 0 42.8 0 28.9 0 17.2 11.2 16.3 25.5c-.4 6.6 1.6 13 5.6 18.3l5.2 7H11.8c-3.9 0-7.2 2.8-7.9 6.6L.1 78.6c-.8 4.3 2.1 8.5 6.4 9.3.5.1 1 .1 1.5.1h70.1c4.4 0 8-3.6 8-8 0-.5 0-1-.1-1.4zM20.3 25.8C21 15.1 29.6 4 42.8 4s21.8 11 22.6 21.7c.3 5.6-1.4 11.1-4.9 15.6L42.8 65.1 25.1 41.4c-3.4-4.5-5.1-10-4.8-15.6m61 56.7c-.8.9-1.9 1.5-3.1 1.5H8c-2.2 0-4-1.8-4-4 0-.2 0-.5.1-.7L7.9 58c.3-1.9 2-3.3 3.9-3.3H30l11.2 14.9c.7.9 1.9 1.1 2.8.4.2-.1.3-.3.4-.4l11.1-14.9h18.8c1.9 0 3.6 1.4 3.9 3.3L82 79.3c.3 1.1 0 2.3-.7 3.2z"/></svg>