<?xml version="1.0" encoding="utf-8"?>
<!-- Generator: Adobe Illustrator 18.1.1, SVG Export Plug-In . SVG Version: 6.00 Build 0)  -->
<svg version="1.1" id="Слой_1" xmlns="http://www.w3.org/2000/svg" xmlns:xlink="http://www.w3.org/1999/xlink" x="0px" y="0px"
	 viewBox="0 0 90 90" enable-background="new 0 0 90 90" xml:space="preserve">
<g>
	<defs>
		<rect id="SVGID_1_" y="0" width="90" height="90"/>
	</defs>
	<clipPath id="SVGID_2_">
		<use xlink:href="#SVGID_1_"  overflow="visible"/>
	</clipPath>
	<path clip-path="url(#SVGID_2_)" d="M67.7,42.6c0.3,0.6,0.8,1,1.5,1.1c0.2,0.1,0.4,0.1,0.6,0.1c1.1,0,2-0.7,2.3-1.8
		c0.9-3.3,0.9-6.8,0-10.2c-0.9-3.3-2.6-6.4-5.1-8.8c-2.4-2.4-5.5-4.2-8.8-5.1c-3.3-0.9-6.9-0.9-10.2,0c-1.3,0.3-2,1.7-1.7,2.9
		c0.3,1.2,1.7,2,2.9,1.7c2.5-0.7,5.2-0.7,7.7,0c2.5,0.7,4.8,2,6.7,3.9c1.9,1.8,3.2,4.2,3.9,6.7c0.7,2.5,0.7,5.2,0,7.7
		C67.3,41.4,67.4,42,67.7,42.6"/>
	<path clip-path="url(#SVGID_2_)" d="M88.8,27.4c-1.7-6.2-5-12-9.6-16.5c-4.6-4.6-10.3-7.9-16.6-9.6c-6.2-1.7-12.9-1.7-19.1,0
		c-0.6,0.2-1.1,0.6-1.5,1.1c-0.3,0.6-0.4,1.2-0.2,1.8c0.3,1.2,1.7,2,2.9,1.7c5.4-1.4,11.2-1.5,16.6,0c5.4,1.5,10.4,4.3,14.4,8.3
		c4,4,6.9,9,8.3,14.4c1.4,5.4,1.4,11.2,0,16.6c-0.3,1.3,0.4,2.6,1.7,2.9c0.2,0.1,0.4,0.1,0.6,0.1c1.1,0,2-0.7,2.3-1.8
		C90.4,40.2,90.4,33.6,88.8,27.4"/>
	<path clip-path="url(#SVGID_2_)" d="M79,58.4c-3.3-2.7-6.3-4-9.3-4c-2.7,0-5.5,1.1-8.6,3.3L61,57.8c0,0,0,0,0,0l0,0c0,0,0,0,0,0
		l0,0c-1.1,0.8-4,3.5-4.4,3.8c-0.3,0.2-0.9,0.5-1.5,0.5c-0.1,0-0.2,0-0.2,0c-0.1,0-5.4-1.6-15.4-11.5c-9.9-10.1-11.5-15.4-11.5-15.4
		c-0.1-0.5,0.1-1.4,0.5-1.8c0.5-0.6,3.1-3.4,3.9-4.4c4.7-6.4,4.6-11.8-0.6-18.1c-3.5-4.2-7.7-8.5-13.4-8.8C14,2,9.6,4.1,5,8.7
		C0.6,13.1-1.1,20,0.7,26.3c0.3,2,4,20.1,23.5,39.6C43.6,85.4,61.7,89,63.6,89.3c1.6,0.4,3.3,0.7,5,0.7c4.8,0,9.4-1.8,12.6-5
		c4.6-4.6,6.7-8.9,6.5-13.2C87.6,66.1,83.2,61.8,79,58.4 M77.9,81.6c-2.3,2.3-5.6,3.6-9.2,3.6c-1.3,0-2.6-0.2-3.9-0.5
		c-0.1,0-0.2,0-0.3-0.1c-0.2,0-18.2-3.2-37.1-22.1C8.6,43.6,5.4,25.6,5.4,25.4c0-0.1,0-0.2-0.1-0.3C4,20.4,5.2,15.3,8.4,12.1
		c3.4-3.4,6.5-5.2,9.3-5.2c0.1,0,0.2,0,0.3,0c3.8,0.2,7.1,3.7,9.9,7c3.7,4.6,3.8,7.5,0.4,12.2c-0.5,0.7-2.6,3-3.5,4
		c-1.4,1.5-2.1,4.1-1.6,6.2c0.1,0.2,1.5,6.1,12,16.9l0,0c0.3,0.3,1.3,1.3,1.6,1.6l0,0c10.8,10.4,16.6,11.9,16.9,12
		c0.4,0.1,0.9,0.2,1.4,0.2c1.8,0,3.6-0.7,4.8-1.8c1.2-1.1,3.4-3.1,4-3.5c2.4-1.7,4.2-2.5,5.9-2.5c1.9,0,3.8,0.9,6.2,2.9
		c3.4,2.8,6.9,6.1,7,9.9C83.2,74.9,81.5,78,77.9,81.6"/>
</g>
</svg>
