<svg id="Layer_1" data-name="Layer 1" xmlns="http://www.w3.org/2000/svg" viewBox="0 0 648.62 327.71"><defs><style>.cls-1,.cls-2,.cls-3{fill:#0071bc;}.cls-2{fill-rule:evenodd;}.cls-3,.cls-5{stroke:#0071bc;}.cls-3,.cls-4{stroke-miterlimit:3.86;stroke-width:3.1px;}.cls-4{fill:#fdb813;stroke:#fdb813;}.cls-5{fill:none;stroke-miterlimit:3.86;stroke-width:2.92px;}</style></defs><title>LogoSWB_FreeH</title><path class="cls-1" d="M663.46,682.22c.58-3.37.89-9.77-10.66-9.77-8,0-12.45,4.7-13.55,9.47-1.22,5.34,3.34,6.75,5.4,7.22l6.44,1.45c5.16,1.19,6.54,2.22,5.8,5.42-1,4.39-6.61,5.16-9.83,5.16-4.24,0-8.75-1.62-7.48-7.17h-4.19c-.66,2.86-.69,5.42,1.58,7.77,1.19,1.23,3.2,2.94,9.32,2.94,5.67,0,13.4-2,15.06-9.26,1.11-4.86-1.56-7.25-5.63-8.19l-9-2c-1.84-.42-3.63-1.28-3-3.88,1.06-4.65,6-5.38,8.78-5.38,3.73,0,7.63,1.5,6.77,6.23Z" transform="translate(-635 -377)"/><path class="cls-1" d="M677.83,684.7l.71-3.12h-3.87l1.43-6.23h-4.05l-1.43,6.23h-3.27l-.71,3.12h3.27l-3.37,14.72c-.62,2.69-.22,4.78,3.79,4.78.41,0,1.6-.17,3.11-.3l.67-2.94h-1.43c-.83,0-2.44,0-2-1.75L674,684.7Z" transform="translate(-635 -377)"/><path class="cls-2" d="M692.48,673.77h-4.19l-1,4.36h4.19l1-4.36Zm7.46,0h-4.19l-1,4.36h4.19l1-4.36Zm-15.41,14.6c.67-1.71,1.91-4.31,6.52-4.31,3.82,0,5.37,1.28,4.83,3.63s-1.74,2.56-2.72,2.64l-6.86.77c-6.9.77-8.49,5.12-8.92,7-.88,3.84,1.66,6.44,6.08,6.44a14.23,14.23,0,0,0,9.53-3.63c-.25,1.71-.09,3.42,3.5,3.42a9,9,0,0,0,2.31-.43l.63-2.73a9.74,9.74,0,0,1-1.38.17c-.83,0-1.24-.38-1-1.32L700,687.17c1.31-5.71-5.58-6.23-7.51-6.23-5.94,0-10.24,2.09-11.65,7.43Zm9.32,7.81c-.69,3-4.89,5.24-8.66,5.24-3,0-4.05-1.45-3.49-3.88.64-2.81,3.95-3.37,6-3.63,5.15-.59,6.24-.93,7-1.4l-.84,3.67Z" transform="translate(-635 -377)"/><path class="cls-2" d="M730,673.26h-4l-2.56,11.18-.16.3c-.68-1.28-1.94-3.8-6.32-3.8-6.4,0-11.15,4.87-12.58,11.14-1.22,5.33-.46,12.46,7.74,12.46a9.45,9.45,0,0,0,7.71-3.71h.09l-.7,3.07H723l7-30.64Zm-21.62,19.42c.65-2.86,2.24-8.37,8.5-8.37,5.85,0,5.15,5.85,4.32,9.48-1.35,5.93-5.72,7.51-8.3,7.51-4.42,0-5.64-3.72-4.52-8.62Z" transform="translate(-635 -377)"/><path class="cls-1" d="M741.83,684.7l.72-3.12h-3.87l1.42-6.23h-4.05l-1.43,6.23h-3.26l-.72,3.12h3.27l-3.37,14.72c-.61,2.69-.21,4.78,3.79,4.78.42,0,1.61-.17,3.11-.3l.67-2.94h-1.42c-.83,0-2.44,0-2-1.75L738,684.7Z" transform="translate(-635 -377)"/><path class="cls-2" d="M750.64,681.58h-4l-5.1,22.32h4l5.1-22.32Zm.93-4.05,1-4.27h-4.06l-1,4.27Z" transform="translate(-635 -377)"/><path class="cls-1" d="M772.85,687.94c.25-1.11,1-7-7.61-7-4.74,0-9.62,2.22-10.75,7.13-.7,3.07,1.15,4.65,4.34,5.42l4.45,1.06c3.27.82,4.47,1.41,4.06,3.21-.57,2.47-3.44,3.54-6.34,3.54-5.71,0-5.62-2.82-5.36-4.57h-3.91c-.48,2.69-1,7.81,8.57,7.81,5.44,0,10.17-2.77,11.23-7.38.69-3-.67-4.74-5.43-5.89l-3.83-.94c-3-.72-4.12-1.15-3.7-3,.64-2.77,4.27-3.15,5.52-3.15,5.11,0,5.12,2.34,4.85,3.75Z" transform="translate(-635 -377)"/><path class="cls-1" d="M797,689.09c.57-3.88-.85-8.15-7.16-8.15-8,0-12.82,5.51-14.4,12.42-1.48,6.44,1.45,11.18,8.22,11.18A12.22,12.22,0,0,0,795.43,696h-3.92c-1.47,3.41-4.25,5.29-7,5.29-5.58,0-5.51-4.74-4.63-8.58s3.54-8.41,8.56-8.41c3.41,0,4.79,1.8,4.62,4.78Z" transform="translate(-635 -377)"/><path class="cls-1" d="M820.78,688.71c1.46-6.36-2.92-7.77-6.65-7.77a11.19,11.19,0,0,0-7.87,3.63h-.1l2.59-11.31h-4l-7,30.64h4l2.78-12.16c1.29-5.63,5.11-7.43,8.43-7.43,3.86,0,4.34,2,3.64,5l-3.34,14.59h4.06l3.47-15.19Z" transform="translate(-635 -377)"/><path class="cls-2" d="M841.29,696.9c-.52,1.67-3.4,4.4-7.22,4.4-4.65,0-6.39-2.69-5.32-7.34h17.59c1.8-7.9-.43-13-7.39-13-8,0-12.81,5.51-14.4,12.42-1.47,6.44,1.45,11.18,8.22,11.18a12.77,12.77,0,0,0,6.89-1.54,13.06,13.06,0,0,0,5.68-6.1ZM829.43,691a9,9,0,0,1,8.2-6.66c4.93,0,5.76,3.2,5.2,6.66Z" transform="translate(-635 -377)"/><polygon class="cls-1" points="251.2 301.51 251.29 301.51 253.03 326.9 257.73 326.9 273.44 296.26 268.52 296.26 256.65 321.18 256.55 321.18 254.84 296.26 249.96 296.26 236.84 321.18 236.75 321.18 236.28 296.26 231.45 296.26 233.05 326.9 237.75 326.9 251.2 301.51 251.2 301.51"/><path class="cls-2" d="M922.35,696.9c-.52,1.67-3.4,4.4-7.23,4.4-4.65,0-6.38-2.69-5.32-7.34h17.59c1.81-7.9-.43-13-7.38-13-8,0-12.82,5.51-14.4,12.42-1.47,6.44,1.45,11.18,8.22,11.18a12.77,12.77,0,0,0,6.89-1.54,13.06,13.06,0,0,0,5.68-6.1ZM910.49,691a9,9,0,0,1,8.2-6.66c4.92,0,5.76,3.2,5.2,6.66Z" transform="translate(-635 -377)"/><path class="cls-1" d="M937.53,690.93a7.8,7.8,0,0,1,7.54-6h1.51l.89-3.88a3.35,3.35,0,0,0-1-.13c-3,0-5.55,1.75-7.76,4.36h-.09l.85-3.72h-3.83l-5.1,22.32h4l3-13Z" transform="translate(-635 -377)"/><polygon class="cls-1" points="323.8 312.9 334.92 304.58 329.76 304.58 317.24 314.01 321.3 296.26 317.39 296.26 310.38 326.9 314.29 326.9 316.22 318.45 320.23 315.63 325.16 326.9 330.36 326.9 323.8 312.9 323.8 312.9"/><path class="cls-2" d="M986.32,696.9c-.52,1.67-3.4,4.4-7.22,4.4-4.65,0-6.39-2.69-5.32-7.34h17.59c1.8-7.9-.43-13-7.39-13-8,0-12.81,5.51-14.39,12.42-1.48,6.44,1.44,11.18,8.21,11.18a12.77,12.77,0,0,0,6.89-1.54,13.06,13.06,0,0,0,5.68-6.1ZM974.46,691a9,9,0,0,1,8.2-6.66c4.93,0,5.76,3.2,5.2,6.66Z" transform="translate(-635 -377)"/><path class="cls-2" d="M1017.81,676.8h8.1c5,0,6.49,1.63,5.84,4.48-.86,3.76-3.76,5-8,5h-8.06l2.16-9.43Zm-10.67,27.1h14.23c7.32,0,12.18-4.14,13.31-9,1.2-5.24-2.3-6.65-4.28-7.46a9,9,0,0,0,5.88-6.4c1-4.19-1.41-7.73-7.58-7.73h-14.55l-7,30.64Zm7.74-14.29h8.79c3.64,0,7.54.85,6.56,5.16-.78,3.41-3.63,5.59-8.28,5.59h-9.53l2.46-10.75Z" transform="translate(-635 -377)"/><path class="cls-2" d="M1038.64,692.72c-1.32,5.76.8,11.78,8.49,11.78s12.57-6,13.89-11.78-.81-11.78-8.5-11.78-12.57,6-13.88,11.78Zm4.19,0c.68-3,3.15-8.53,9-8.53s5.73,5.54,5,8.53-3.15,8.53-9,8.53-5.73-5.54-5-8.53Z" transform="translate(-635 -377)"/><path class="cls-1" d="M1070.64,690.93a7.8,7.8,0,0,1,7.54-6h1.52l.88-3.88a3.35,3.35,0,0,0-1-.13c-3,0-5.55,1.75-7.76,4.36h-.09l.85-3.72h-3.83l-5.1,22.32h4.05l3-13Z" transform="translate(-635 -377)"/><path class="cls-1" d="M1101.49,688.71c1.45-6.36-2.92-7.77-6.65-7.77a11.57,11.57,0,0,0-8.15,3.8h-.09l.72-3.16h-3.82l-5.1,22.32h4l2.78-12.16c1.39-6.06,5.75-7.43,8-7.43,4,0,4.71,2,3.82,5.85L1094,703.9h4l3.48-15.19Z" transform="translate(-635 -377)"/><path class="cls-2" d="M1111.15,688.37c.66-1.71,1.9-4.31,6.51-4.31,3.82,0,5.37,1.28,4.83,3.63s-1.73,2.56-2.72,2.64l-6.85.77c-6.9.77-8.5,5.12-8.93,7-.88,3.84,1.66,6.44,6.08,6.44a14.23,14.23,0,0,0,9.53-3.63c-.25,1.71-.09,3.42,3.51,3.42a9,9,0,0,0,2.3-.43l.63-2.73a9.74,9.74,0,0,1-1.38.17c-.82,0-1.24-.38-1-1.32l2.94-12.85c1.31-5.71-5.58-6.23-7.51-6.23-5.94,0-10.24,2.09-11.64,7.43Zm9.31,7.81c-.69,3-4.89,5.24-8.66,5.24-3,0-4-1.45-3.49-3.88.64-2.81,4-3.37,6-3.63,5.15-.59,6.24-.93,7-1.4l-.84,3.67Z" transform="translate(-635 -377)"/><path class="cls-1" d="M1160.26,691.06h10.31a11.92,11.92,0,0,1-5.5,8.15,13.11,13.11,0,0,1-7.22,2c-8.79,0-9.54-6.4-8.11-12.63,1.83-8,7.72-12.42,13.66-12.42,3.64,0,8.22,1.11,8.43,6.44h4.32c.61-6.86-5.51-10.11-11.68-10.11-10.78,0-17.58,8.41-19.29,15.88-.74,3.24-1.8,8.49,2.25,12.92,1.35,1.54,3.67,3.46,9.34,3.46a17.55,17.55,0,0,0,12-4.78l.16,4h2.9l3.75-16.39h-14.51l-.81,3.55Z" transform="translate(-635 -377)"/><path class="cls-1" d="M1178.24,703.9h4l2.78-12.16c1.39-6.06,5.75-7.43,8-7.43,3,0,3.26,2.27,2.83,4.14l-3.53,15.45h4l3.12-13.61c.68-3,3.62-6,7-6s4,2.1,3.28,5.17l-3.3,14.42h4.06l3.53-15.45c1.43-6.27-3.16-7.51-5.74-7.51-3.73,0-5.7,1.54-8.2,3.63-.42-1.19-1.24-3.63-5.57-3.63a11.18,11.18,0,0,0-8.15,3.8h-.09l.72-3.16h-3.82l-5.1,22.32Z" transform="translate(-635 -377)"/><path class="cls-2" d="M1220.11,703.9l.63-2.77h.09c.55,1.23,1.75,3.41,5.85,3.41,8.2,0,12.22-7.13,13.45-12.46,1.43-6.27-1.1-11.14-7.5-11.14a10.76,10.76,0,0,0-7.74,3.46h-.09l2.54-11.14h-4l-7,30.64Zm15.69-11.22c-1.12,4.9-4,8.62-8.47,8.62-2.58,0-6.22-1.58-4.86-7.51.82-3.63,2.81-9.48,8.66-9.48,6.26,0,5.32,5.51,4.67,8.37Z" transform="translate(-635 -377)"/><polygon class="cls-1" points="633.61 308.94 616.34 308.94 619.24 296.26 614.77 296.26 607.76 326.9 612.23 326.9 615.5 312.61 632.77 312.61 629.5 326.9 633.97 326.9 640.98 296.26 636.51 296.26 633.61 308.94 633.61 308.94"/><polygon class="cls-3" points="16.76 203.71 646.67 203.71 638.87 237.23 8.96 237.23 16.76 203.71 16.76 203.71"/><polygon class="cls-4" points="260.77 1.62 474.65 1.62 417.97 257.48 204.08 257.48 260.77 1.62 260.77 1.62"/><polygon class="cls-4" points="500.06 1.55 571.47 1.55 514.77 257.42 443.36 257.42 500.06 1.55 500.06 1.55"/><polygon class="cls-4" points="596.83 1.55 638.51 1.55 581.81 257.42 540.14 257.42 596.83 1.55 596.83 1.55"/><path class="cls-1" d="M737.15,489.42C739.42,478.17,746,452,712.07,452c-22.49,0-35.72,10.64-39.91,30.09a28,28,0,0,0,1.7,17.48c6.21,11.39,18.7,17.63,27.93,26.29,4.65,3.79,6.71,8.35,5.27,15-1.87,8.67-7.14,13.37-16.1,13.37-10.49,0-12.1-8-9.25-19.14l1.44-6.69H661.87l-1.8,8.36c-4.38,20.36,1.66,34.64,27.19,34.64,20.82,0,37.53-11.24,42.17-32.82,2.13-9.87,1.33-16.72-4.43-23.86-4.68-5.77-15.77-14.28-21.81-18.69-5.77-4.25-10.52-7.6-8.66-16.26,1.67-7.75,6.86-10.64,14-10.64,11.7,0,10.45,10,8.11,20.22Z" transform="translate(-635 -377)"/><path class="cls-1" d="M818.08,454.77H800.45l-23,59c-4.58,11.39-8.79,26-13.6,40.57h-.3c.43-2.73.87-5.47,1.15-8.2,1.34-9.73,2.52-19.45,3.1-29.18l3.81-62.15h-22l-2.82,114h25.53l17.28-45c4.87-12,8.25-24.16,12.39-36.32h.3c-1.1,12.16-3,24.31-3.26,36.32l-1.18,45h25.53l45.67-114H847l-21.9,62.15c-3.61,9.73-6.62,19.45-9.48,29.18-.89,2.73-1.63,5.47-2.53,8.2h-.3c1.63-14.58,3.7-29.18,4-40.57l1.3-59Z" transform="translate(-635 -377)"/><path class="cls-2" d="M888.69,552.41l8.64-38h10.86c13.47,0,14.1,6.69,11.4,19.23-1.26,5.89-4,14.9-10.48,17.53-4.24,1.71-8.78,1.24-13.27,1.24Zm10.77-49.82,7.15-32.74h12.57c9.84.31,10.76,4.65,8.9,13.32-1.2,5.57-3.1,12.46-5.74,15.4-4.34,4.33-11.09,4-16.35,4Zm4,63.78c14.75,0,24-5.9,31.42-19.91a59.05,59.05,0,0,0,4.4-13.57c3.08-14.3.75-24-10.55-25.65,12.16-4.43,16.26-13.87,18.32-23.45,1.62-7.52,2.25-13.86-1.16-19.91-4.28-7.52-12.86-8.11-21.7-8.11H891.52L867.7,566.37Z" transform="translate(-635 -377)"/><path class="cls-5" d="M888.69,552.41l8.64-38h10.86c13.47,0,14.1,6.69,11.4,19.23-1.26,5.89-4,14.9-10.48,17.53-4.24,1.71-8.78,1.24-13.27,1.24Zm10.77-49.82,7.15-32.74h12.57c9.84.31,10.76,4.65,8.9,13.32-1.2,5.57-3.1,12.46-5.74,15.4-4.34,4.33-11.09,4-16.35,4Zm4,63.78c14.75,0,24-5.9,31.42-19.91a59.05,59.05,0,0,0,4.4-13.57c3.08-14.3.75-24-10.55-25.65,12.16-4.43,16.26-13.87,18.32-23.45,1.62-7.52,2.25-13.86-1.16-19.91-4.28-7.52-12.86-8.11-21.7-8.11H891.52L867.7,566.37Z" transform="translate(-635 -377)"/></svg>