<svg xmlns="http://www.w3.org/2000/svg" xmlns:xlink="http://www.w3.org/1999/xlink" viewBox="0 0 50 60"><defs><path id="a" d="M0 0h50v60H0z"/></defs><clipPath id="b"><use xlink:href="#a" overflow="visible"/></clipPath><path clip-path="url(#b)" fill="none" stroke="#fff" stroke-width="2" stroke-linecap="round" stroke-linejoin="round" d="M13 35v20c0 2.2-1.8 4-4 4s-4-1.8-4-4V23c0-2.2 1.8-4 4-4 .7 0 1.5.2 2.1.6.4 1.4 1.1 2.8 1.9 4V31M21 40v15c0 2.2-1.8 4-4 4s-4-1.8-4-4V35M13 31v-7.4c1.9 2.8 4.7 4.9 8 5.8V35M29 39v16c0 2.2-1.8 4-4 4s-4-1.8-4-4V39M21 34v-4.6c1.3.4 2.6.6 4 .6s2.7-.2 4-.6V35"/><path clip-path="url(#b)" fill="none" stroke="#fff" stroke-width="2" stroke-linejoin="round" d="M37 37v18c0 2.2-1.8 4-4 4s-4-1.8-4-4V39"/><path clip-path="url(#b)" fill="none" stroke="#fff" stroke-width="2" stroke-linecap="round" stroke-linejoin="round" d="M29 35v-5.6c3.3-.9 6.1-3 8-5.8V31M37 30v-6.4c.8-1.2 1.5-2.6 1.9-4 1.9-1.2 4.4-.6 5.5 1.3.4.6.6 1.3.6 2.1v32c0 2.2-1.8 4-4 4s-4-1.8-4-4V35M5 52H1M45 52h2c1.1 0 2-.9 2-2v-2M30.2 17.4c0 3.1-2.5 5.6-5.6 5.6-3.1 0-5.6-2.5-5.6-5.6 0-2 1-3.8 2.7-4.8.1 1.4.9 2.8 2.2 3.5-.8-1.2-1.2-2.5-1.2-3.9v-.1c0-2.6 1.4-4.9 3.7-6.1-.2.6-.3 1.2-.3 1.8v.3c0 1.9.7 3.7 2.1 5 .6.5 1.1 1.2 1.5 1.9.3.7.5 1.6.5 2.4z"/><path clip-path="url(#b)" fill="none" stroke="#fff" stroke-width="2" stroke-linecap="round" stroke-linejoin="round" d="M39.5 15.5c0 1.4-.2 2.8-.6 4.1-1.4 4.8-5.1 8.5-9.9 9.8-1.3.4-2.6.6-4 .6-8 0-14.5-6.5-14.5-14.5S17 1 25 1s14.5 6.5 14.5 14.5z"/></svg>