<svg xmlns="http://www.w3.org/2000/svg" xmlns:xlink="http://www.w3.org/1999/xlink" viewBox="0 0 54 72"><defs><path id="a" d="M0 0h54v72H0z"/></defs><clipPath id="b"><use xlink:href="#a" overflow="visible"/></clipPath><path fill="#fff" clip-path="url(#b)" d="M23.7 0c-.8.1-1.4.7-1.6 1.5C19 14.5 13.7 21.9 9 28.3c-4.7 6.4-9 12-9 20.6C0 61 9.1 72 20 72c1.1 0 2-.9 2-2 0-.5-.2-1-.5-1.4-1.9-2.2-2.6-4.2-2.7-6.3-.1-2.1.5-4.3 1.6-6.6 1.8-3.9 4.8-7.9 7.1-11.8 3.3 2.8 5.9 6.7 6.9 10.9 1.2 4.9.6 9.8-2.9 13.8-.7.8-.7 2.1.1 2.8.4.4.9.6 1.4.6 6.4 0 11.7-3.8 15.3-8.7C51.9 58.5 54 52.4 54 47 54 30.5 47.2 16.8 25.2.4c-.4-.3-1-.5-1.5-.4M25 5.4C44.6 20.5 50 32.1 50 47c0 4.4-1.8 9.8-4.9 14-2.1 2.9-4.8 5.1-7.9 6.2 2-4.2 2.2-8.9 1.1-13.3-1.5-5.9-5.2-11.3-10.2-14.6-.9-.6-2.2-.4-2.8.5 0 .1-.1.1-.1.2-2.1 4-6.1 8.8-8.5 14.1-1.2 2.6-2.1 5.4-1.9 8.4.1 1.5.5 3.1 1.1 4.6C9.4 64.8 4 57.3 4 48.9c0-7.3 3.5-11.9 8.2-18.3 4.3-5.9 9.5-13.4 12.8-25.2"/></svg>