<svg xmlns="http://www.w3.org/2000/svg" xmlns:xlink="http://www.w3.org/1999/xlink" viewBox="0 0 30 48"><defs><path id="a" d="M0 0h30v48H0z"/></defs><clipPath id="b"><use xlink:href="#a" overflow="visible"/></clipPath><path fill="#fff" clip-path="url(#b)" d="M15 0C11.4 0 7.7 1.3 4.9 3.9-.7 9-1.6 17.6 2.9 23.7c2 2.7 3.1 6 3.1 9.3 0 .8.3 1.6.9 2.1.5.6 1.3.9 2.1.9h11c.4 0 .7.2.9.5.2.3.2.7 0 1-.2.3-.5.5-.9.5h-9c-1 0-2.1.6-2.6 1.5s-.5 2.1 0 3c.5.9 1.6 1.5 2.6 1.5h7c.4 0 .7.2.9.5.2.3.2.7 0 1-.2.3-.5.5-.9.5h-6c-1.4 0-1.4 2 0 2h6c1.1 0 2.1-.6 2.6-1.5s.5-2.1 0-3C20.1 42.6 19 42 18 42h-7c-.4 0-.7-.2-.9-.5-.2-.3-.2-.7 0-1 .2-.3.5-.5.9-.5h9.1c1 0 1.9-.6 2.5-1.5.5-.9.5-2.1 0-3-.5-.9-1.5-1.5-2.6-1.5H9c-.3 0-.5-.1-.7-.3-.2-.2-.3-.4-.3-.7 0-3.6-1.2-7.2-3.3-10.1C.6 17.6 1.2 10 6.2 5.4 8.7 3.1 11.8 2 15 2s6.3 1.1 8.8 3.4c5 4.6 5.6 12.1 1.5 17.5-1.7 2.3-2.8 5-3.2 7.9v.2c0 .6.4 1 1 1 .5 0 .9-.4 1-.8V31c.4-2.6 1.4-5.1 3-7.2 4.4-6.1 3.6-14.7-2-19.8-2.8-2.7-6.5-4-10.1-4"/></svg>