<svg version="1.1" id="Слой_1" xmlns="http://www.w3.org/2000/svg" xmlns:xlink="http://www.w3.org/1999/xlink" x="0px" y="0px"
	 viewBox="0 0 50 60" enable-background="new 0 0 50 60" xml:space="preserve">
<g>
	<defs>
		<rect id="SVGID_1_" width="50" height="60"/>
	</defs>
	<clipPath id="SVGID_2_">
		<use xlink:href="#SVGID_1_"  overflow="visible"/>
	</clipPath>
	
		<path clip-path="url(#SVGID_2_)" fill="none" stroke="#ffffff" stroke-width="2" stroke-linecap="round" stroke-linejoin="round" d="
		M13,35v20c0,2.2-1.8,4-4,4s-4-1.8-4-4V23c0-2.2,1.8-4,4-4c0.7,0,1.5,0.2,2.1,0.6c0.4,1.4,1.1,2.8,1.9,4V31"/>
	
		<path clip-path="url(#SVGID_2_)" fill="none" stroke="#ffffff" stroke-width="2" stroke-linecap="round" stroke-linejoin="round" d="
		M21,40v15c0,2.2-1.8,4-4,4s-4-1.8-4-4V35"/>
	
		<path clip-path="url(#SVGID_2_)" fill="none" stroke="#ffffff" stroke-width="2" stroke-linecap="round" stroke-linejoin="round" d="
		M13,31v-7.4c1.9,2.8,4.7,4.9,8,5.8V35"/>
	
		<path clip-path="url(#SVGID_2_)" fill="none" stroke="#ffffff" stroke-width="2" stroke-linecap="round" stroke-linejoin="round" d="
		M29,39v16c0,2.2-1.8,4-4,4s-4-1.8-4-4V39"/>
	
		<path clip-path="url(#SVGID_2_)" fill="none" stroke="#ffffff" stroke-width="2" stroke-linecap="round" stroke-linejoin="round" d="
		M21,34v-4.6c1.3,0.4,2.6,0.6,4,0.6c1.4,0,2.7-0.2,4-0.6V35"/>
	<path clip-path="url(#SVGID_2_)" fill="none" stroke="#ffffff" stroke-width="2" stroke-linejoin="round" d="M37,37v18
		c0,2.2-1.8,4-4,4s-4-1.8-4-4V39"/>
	
		<path clip-path="url(#SVGID_2_)" fill="none" stroke="#ffffff" stroke-width="2" stroke-linecap="round" stroke-linejoin="round" d="
		M29,35v-5.6c3.3-0.9,6.1-3,8-5.8V31"/>
	
		<path clip-path="url(#SVGID_2_)" fill="none" stroke="#ffffff" stroke-width="2" stroke-linecap="round" stroke-linejoin="round" d="
		M37,30v-6.4c0.8-1.2,1.5-2.6,1.9-4c1.9-1.2,4.4-0.6,5.5,1.3c0.4,0.6,0.6,1.3,0.6,2.1v32c0,2.2-1.8,4-4,4c-2.2,0-4-1.8-4-4V35"/>
	
		<line clip-path="url(#SVGID_2_)" fill="none" stroke="#ffffff" stroke-width="2" stroke-linecap="round" stroke-linejoin="round" x1="5" y1="52" x2="1" y2="52"/>
	
		<path clip-path="url(#SVGID_2_)" fill="none" stroke="#ffffff" stroke-width="2" stroke-linecap="round" stroke-linejoin="round" d="
		M45,52h2c1.1,0,2-0.9,2-2v-2"/>
	
		<path clip-path="url(#SVGID_2_)" fill="none" stroke="#ffffff" stroke-width="2" stroke-linecap="round" stroke-linejoin="round" d="
		M30.2,17.4c0,3.1-2.5,5.6-5.6,5.6c-3.1,0-5.6-2.5-5.6-5.6c0-2,1-3.8,2.7-4.8c0.1,1.4,0.9,2.8,2.2,3.5c-0.8-1.2-1.2-2.5-1.2-3.9
		c0,0,0,0,0-0.1c0-2.6,1.4-4.9,3.7-6.1c-0.2,0.6-0.3,1.2-0.3,1.8c0,0.1,0,0.2,0,0.3c0,1.9,0.7,3.7,2.1,5l0,0
		c0.6,0.5,1.1,1.2,1.5,1.9C30,15.7,30.2,16.6,30.2,17.4z"/>
	
		<path clip-path="url(#SVGID_2_)" fill="none" stroke="#ffffff" stroke-width="2" stroke-linecap="round" stroke-linejoin="round" d="
		M39.5,15.5c0,1.4-0.2,2.8-0.6,4.1c-1.4,4.8-5.1,8.5-9.9,9.8c-1.3,0.4-2.6,0.6-4,0.6c-8,0-14.5-6.5-14.5-14.5S17,1,25,1
		S39.5,7.5,39.5,15.5z"/>
</g>
</svg>
