<svg version="1.1" id="Слой_1" xmlns="http://www.w3.org/2000/svg" xmlns:xlink="http://www.w3.org/1999/xlink" x="0px" y="0px"
	 viewBox="0 0 30 48" enable-background="new 0 0 30 48" xml:space="preserve">
<g>
	<defs>
		<rect id="SVGID_1_" width="30" height="48"/>
	</defs>
	<clipPath id="SVGID_2_">
		<use xlink:href="#SVGID_1_"  overflow="visible"/>
	</clipPath>
	<path fill="#ffffff" clip-path="url(#SVGID_2_)" d="M15,0C11.4,0,7.7,1.3,4.9,3.9c-5.6,5.1-6.5,13.7-2,19.8C4.9,26.4,6,29.7,6,33
		c0,0.8,0.3,1.6,0.9,2.1C7.4,35.7,8.2,36,9,36h11c0.4,0,0.7,0.2,0.9,0.5c0.2,0.3,0.2,0.7,0,1C20.7,37.8,20.4,38,20,38h-9
		c-1,0-2.1,0.6-2.6,1.5c-0.5,0.9-0.5,2.1,0,3C8.9,43.4,10,44,11,44h7c0.4,0,0.7,0.2,0.9,0.5c0.2,0.3,0.2,0.7,0,1
		C18.7,45.8,18.4,46,18,46h-6c-1.4,0-1.4,2,0,2h6c1.1,0,2.1-0.6,2.6-1.5c0.5-0.9,0.5-2.1,0-3C20.1,42.6,19,42,18,42h-7
		c-0.4,0-0.7-0.2-0.9-0.5c-0.2-0.3-0.2-0.7,0-1c0.2-0.3,0.5-0.5,0.9-0.5h9.1c1,0,1.9-0.6,2.5-1.5c0.5-0.9,0.5-2.1,0-3
		C22.1,34.6,21.1,34,20,34H9c-0.3,0-0.5-0.1-0.7-0.3C8.1,33.5,8,33.3,8,33c0-3.6-1.2-7.2-3.3-10.1C0.6,17.6,1.2,10,6.2,5.4
		C8.7,3.1,11.8,2,15,2s6.3,1.1,8.8,3.4c5,4.6,5.6,12.1,1.5,17.5c-1.7,2.3-2.8,5-3.2,7.9c0,0,0,0.2,0,0.2c0,0.6,0.4,1,1,1
		c0.5,0,0.9-0.4,1-0.8l0-0.2c0.4-2.6,1.4-5.1,3-7.2c4.4-6.1,3.6-14.7-2-19.8C22.3,1.3,18.6,0,15,0"/>
</g>
</svg>
