<?xml version="1.0" standalone="no"?>
<!DOCTYPE svg PUBLIC "-//W3C//DTD SVG 20010904//EN"
 "http://www.w3.org/TR/2001/REC-SVG-20010904/DTD/svg10.dtd">
<svg version="1.0" xmlns="http://www.w3.org/2000/svg"
 width="128.000000pt" height="128.000000pt" viewBox="0 0 128.000000 128.000000"
 preserveAspectRatio="xMidYMid meet">

<g transform="translate(0.000000,128.000000) scale(0.100000,-0.100000)"
fill="#F2CF70" stroke="none">
<path d="M420 974 l-235 -144 -77 0 c-107 0 -108 -3 -108 -190 0 -187 1 -190
108 -190 l77 0 238 -145 c130 -80 239 -145 242 -145 3 0 5 216 5 480 0 264 -3
480 -7 479 -5 0 -114 -65 -243 -145z m190 -335 c0 -306 -2 -360 -14 -356 -8 3
-102 55 -210 116 -194 110 -197 111 -261 111 l-66 0 3 133 3 132 75 6 c73 5
81 8 265 112 105 58 193 107 198 107 4 0 7 -162 7 -361z"/>
<path d="M1100 1024 c0 -28 8 -46 34 -74 19 -21 44 -67 57 -106 21 -59 24 -88
24 -204 0 -158 -21 -239 -81 -308 -29 -34 -35 -48 -32 -79 l3 -37 36 32 c43
38 101 145 120 222 17 71 17 269 0 340 -24 98 -93 214 -142 241 -17 9 -19 6
-19 -27z"/>
<path d="M920 964 c0 -28 8 -46 34 -74 55 -61 79 -138 79 -250 0 -112 -24
-189 -79 -250 -26 -28 -34 -46 -34 -74 l0 -37 30 23 c42 31 96 112 121 182 28
83 28 229 0 312 -25 70 -79 151 -121 182 l-30 23 0 -37z"/>
<path d="M730 911 c0 -21 8 -36 30 -51 16 -12 42 -42 57 -68 26 -43 28 -55 28
-152 0 -97 -2 -109 -28 -152 -15 -26 -41 -56 -57 -68 -22 -15 -30 -30 -30 -51
0 -16 4 -29 9 -29 21 0 114 97 139 144 24 46 27 61 27 156 0 95 -3 110 -27
156 -25 47 -118 144 -139 144 -5 0 -9 -13 -9 -29z"/>
</g>
</svg>
