<?xml version="1.0" standalone="no"?>
<!DOCTYPE svg PUBLIC "-//W3C//DTD SVG 20010904//EN"
 "http://www.w3.org/TR/2001/REC-SVG-20010904/DTD/svg10.dtd">
<svg version="1.0" xmlns="http://www.w3.org/2000/svg"
 width="500.000000pt" height="500.000000pt" viewBox="0 0 500.000000 500.000000"
 preserveAspectRatio="xMidYMid meet">

<g transform="translate(0.000000,500.000000) scale(0.100000,-0.100000)"
fill="#ffffff" stroke="none">
<!-- <path d="M510 2500 l0 -1990 1990 0 1990 0 0 1990 0 1990 -1990 0 -1990 0 0
-1990z m3828 8 l-3 -1833 -1835 0 -1835 0 -3 1833 -2 1832 1840 0 1840 0 -2
-1832z"/> -->
<path d="M2980 3216 c0 -277 3 -397 11 -402 6 -3 220 -3 475 1 l464 7 0 394 0
394 -475 0 -475 0 0 -394z"/>
<path d="M1090 3210 l0 -389 263 -3 c144 -2 353 -2 465 0 l202 2 0 384 c0 341
-2 385 -16 390 -9 3 -218 6 -465 6 l-449 0 0 -390z"/>
<path d="M2040 2605 l0 -195 -152 -2 c-84 -2 -184 -3 -223 -3 -38 -1 -78 -2
-87 -3 -17 -2 -18 -38 -18 -592 l0 -590 229 0 c126 0 236 3 245 6 14 5 16 32
16 199 0 191 0 193 23 199 30 8 586 8 765 -1 l142 -6 0 -197 c0 -197 0 -198
23 -204 12 -3 118 -6 235 -6 l212 0 0 606 0 605 -237 -2 -238 -2 -3 192 -2
191 -465 0 -465 0 0 -195z"/>
</g>
</svg>
