<?xml version="1.0" standalone="no"?>
<!DOCTYPE svg PUBLIC "-//W3C//DTD SVG 20010904//EN"
 "http://www.w3.org/TR/2001/REC-SVG-20010904/DTD/svg10.dtd">
<svg version="1.0" xmlns="http://www.w3.org/2000/svg"
 width="128.000000pt" height="128.000000pt" viewBox="0 0 128.000000 128.000000"
 preserveAspectRatio="xMidYMid meet">

<g transform="translate(0.000000,128.000000) scale(0.100000,-0.100000)"
fill="#F2CF70" stroke="none">
<path d="M515 1030 c-60 -38 -111 -72 -112 -77 -2 -4 51 -43 117 -85 l120 -78
0 155 c0 85 -3 155 -7 154 -5 -1 -57 -32 -118 -69z"/>
<path d="M132 1028 c-7 -7 -12 -17 -12 -22 0 -11 1100 -739 1125 -744 15 -4
31 36 18 48 -14 13 -1091 720 -1105 725 -8 3 -19 0 -26 -7z"/>
<path d="M1050 1004 c0 -26 8 -46 29 -69 47 -54 72 -136 78 -255 3 -58 1 -130
-5 -160 -9 -46 -8 -56 6 -67 10 -7 20 -13 24 -13 25 -1 42 201 27 306 -16 113
-78 241 -134 278 l-25 16 0 -36z"/>
<path d="M870 951 c0 -19 12 -42 35 -67 50 -55 77 -132 80 -234 3 -73 6 -87
24 -99 30 -19 34 0 29 112 -6 119 -33 189 -100 262 -27 30 -54 55 -59 55 -5 0
-9 -13 -9 -29z"/>
<path d="M700 894 c0 -16 11 -35 31 -52 32 -26 79 -112 79 -144 0 -9 14 -27
31 -39 l32 -22 -8 49 c-11 76 -43 139 -96 189 -55 52 -69 55 -69 19z"/>
<path d="M200 834 c-15 -8 -55 -13 -97 -14 -100 0 -103 -5 -103 -180 0 -174 3
-180 102 -180 l71 0 226 -138 c124 -75 229 -139 233 -140 5 -2 7 88 6 199 l-3
203 -190 124 c-239 155 -216 143 -245 126z"/>
<path d="M738 448 c-36 -38 -51 -88 -27 -88 6 0 34 22 62 49 51 49 51 50 32
65 -11 9 -22 15 -25 14 -3 0 -22 -19 -42 -40z"/>
<path d="M887 382 c-17 -18 -24 -82 -10 -82 4 0 24 17 45 37 34 33 36 37 20
49 -23 18 -36 17 -55 -4z"/>
<path d="M1050 275 l0 -35 25 16 c30 19 30 23 8 40 -27 21 -33 17 -33 -21z"/>
</g>
</svg>
