<?xml version="1.0" encoding="utf-8"?>
<!-- Generator: Adobe Illustrator 18.1.1, SVG Export Plug-In . SVG Version: 6.00 Build 0)  -->
<svg version="1.1" id="objects" xmlns="http://www.w3.org/2000/svg" xmlns:xlink="http://www.w3.org/1999/xlink" x="0px" y="0px"
	 viewBox="0 0 184.2 195.4" enable-background="new 0 0 184.2 195.4" xml:space="preserve">
<g>
	<path fill-rule="evenodd" clip-rule="evenodd" fill="#BF9741" d="M78.5,6.4c3.9-7.3,35.4-13.7,48.2,12.2
		c12.8,25.8,6.4,34.9,13.4,44c7.1,9.1-9.6,79.7-49.1,79.5C48.8,141.8,39.6,74.3,48,60.6C56.4,46.9,49.1,6.4,78.5,6.4z"/>
	<path fill-rule="evenodd" clip-rule="evenodd" fill="#7491A0" d="M109.5,126.6c-0.4,0.6-35.6,1.1-35.9,1.7
		c-11.1,15.8-34.9,18.7-53.9,22.9C0.8,155.4,0,179.4,0,195.4h184.2c0-16-0.4-39.9-19.7-44.2C145.3,146.8,120,143,109.5,126.6z"/>
	<path fill-rule="evenodd" clip-rule="evenodd" fill="#FFFFFF" d="M110.6,128.1v8.7l-9,58.6H82.4l-8.9-57.9v-9.1c0,0,0-0.1,0-0.1
		c0.4-0.6,35.6-1.1,35.9-1.7C109.9,127.1,110.2,127.6,110.6,128.1z"/>
	<path fill-rule="evenodd" clip-rule="evenodd" fill="#F6DBC2" d="M73.7,88.9v30.3v14.9c9.2,18.9,25.9,19.4,36.9,0v-14.9V88.9
		C110.6,64.5,73.7,64.5,73.7,88.9z"/>
	<path fill-rule="evenodd" clip-rule="evenodd" fill="#F6DBC2" d="M140.8,67.8c-3.7-1.7-8.9,2.4-11.6,9.1c-2.7,6.7-2,13.5,1.7,15.1
		c3.7,1.7,8.9-2.4,11.6-9.1C145.3,76.2,144.5,69.4,140.8,67.8z"/>
	<path fill-rule="evenodd" clip-rule="evenodd" fill="#F6DBC2" d="M43.5,67.8c3.7-1.7,8.9,2.4,11.6,9.1c2.7,6.7,2,13.5-1.7,15.1
		c-3.7,1.7-8.9-2.4-11.6-9.1C39,76.2,39.8,69.4,43.5,67.8z"/>
	<path opacity="0.2" fill-rule="evenodd" clip-rule="evenodd" d="M73.7,111.4v1.3c0,0,11.6,11.6,18.3,11.6
		c6.7,0,18.6-11.7,18.6-11.7v-1.1H73.7z"/>
	<path fill-rule="evenodd" clip-rule="evenodd" fill="#F6DBC2" d="M92.2,120.2c-11.5,0-35.7-18.9-43.2-46
		C41.4,46.9,55.7,7.7,92.2,7.7c36.5,0,50.7,39.2,43.2,66.5C127.8,101.3,103.6,120.2,92.2,120.2z"/>
	<path fill-rule="evenodd" clip-rule="evenodd" fill="#BF9741" d="M99.6,41.6c9,18.8,12.6,24.3,24.5,19.4c11.9-5,9.6,8.9,7.5,18.8
		c10.5-13.4,9.3-26.1,6-39C134,26.6,115.8,5.1,98.8,5.5c-9.2-1-23.2,0.2-38.1,10.9c-26,18.7-17.3,60.8-10.3,65.7
		c-6.8-38.9,9.8-31,21.3-51.4C75.5,21.7,89.8,21.2,99.6,41.6z"/>
	<polygon fill-rule="evenodd" clip-rule="evenodd" fill="#EDEDED" points="82.6,195.4 67,195.4 66,195.4 49.9,180.7 66.2,169.8 
		46.3,160.5 59.5,139.9 64.6,132 73.5,128 73.5,137.4 82.4,195.4 	"/>
	<polygon fill-rule="evenodd" clip-rule="evenodd" fill="#EDEDED" points="117.8,169.2 134.1,180.1 118.1,195.4 117,195.4 
		101.5,195.4 101.6,195.4 110.6,136.8 110.6,127.4 121.5,132.2 126.2,140.4 137.8,159.9 	"/>
</g>
</svg>
