<?xml version="1.0" encoding="utf-8"?>
<!-- Generator: Adobe Illustrator 18.1.1, SVG Export Plug-In . SVG Version: 6.00 Build 0)  -->
<svg version="1.1" id="objects" xmlns="http://www.w3.org/2000/svg" xmlns:xlink="http://www.w3.org/1999/xlink" x="0px" y="0px"
	 viewBox="0 0 184.2 190.2" enable-background="new 0 0 184.2 190.2" xml:space="preserve">
<g>
	<path fill-rule="evenodd" clip-rule="evenodd" fill="#605343" d="M52.5,15.4C54.7,8.1,72,1.7,79,27.6c7.1,25.8,3.5,34.9,7.4,44
		c3.9,9.1-5.3,79.7-27,79.5c-23.2-0.2-28.3-67.7-23.7-81.4C40.3,55.9,36.3,15.4,52.5,15.4z"/>
	<path fill-rule="evenodd" clip-rule="evenodd" fill="#605343" d="M128.9,15.4c-2.2-7.3-19.5-13.7-26.5,12.2
		c-7.1,25.8-3.5,34.9-7.4,44c-3.9,9.1,5.3,79.7,27,79.5c23.2-0.2,28.3-67.7,23.7-81.4C141.1,55.9,145.1,15.4,128.9,15.4z"/>
	<path fill-rule="evenodd" clip-rule="evenodd" fill="#C93838" d="M109.5,121.4c-0.4,0.6-35.6,1.1-35.9,1.7
		c-11.1,15.8-34.9,18.7-53.9,22.9C0.8,150.2,0,174.2,0,190.2h184.2c0-16-0.4-39.9-19.7-44.2C145.3,141.7,120,137.9,109.5,121.4z"/>
	<path fill-rule="evenodd" clip-rule="evenodd" fill="#C93838" d="M110.6,122.9v8.7l-9,58.6H82.4l-8.9-57.9v-9.1c0,0,0-0.1,0-0.1
		c0.4-0.6,35.6-1.1,35.9-1.7C109.9,121.9,110.2,122.4,110.6,122.9z"/>
	<path fill-rule="evenodd" clip-rule="evenodd" fill="#F6DCB9" d="M73.7,83.7V114v14.9c9.2,18.9,25.9,19.4,36.9,0V114V83.7
		C110.6,59.3,73.7,59.3,73.7,83.7z"/>
	<path fill-rule="evenodd" clip-rule="evenodd" fill="#F6DCB9" d="M140.8,62.6c-3.7-1.7-8.9,2.4-11.6,9.1c-2.7,6.7-2,13.5,1.7,15.1
		c3.7,1.7,8.9-2.4,11.6-9.1C145.3,71,144.5,64.2,140.8,62.6z"/>
	<path fill-rule="evenodd" clip-rule="evenodd" fill="#F6DCB9" d="M43.5,62.6c3.7-1.7,8.9,2.4,11.6,9.1c2.7,6.7,2,13.5-1.7,15.1
		c-3.7,1.7-8.9-2.4-11.6-9.1C39,71,39.8,64.2,43.5,62.6z"/>
	<path opacity="0.2" fill-rule="evenodd" clip-rule="evenodd" d="M73.7,106.2v1.3c0,0,11.6,11.6,18.3,11.6
		c6.7,0,18.6-11.7,18.6-11.7v-1.1H73.7z"/>
	<path fill-rule="evenodd" clip-rule="evenodd" fill="#F6DCB9" d="M92.2,115C80.7,115,56.5,96.1,49,69C41.4,41.7,55.7,2.5,92.2,2.5
		c36.5,0,50.7,39.2,43.2,66.5C127.8,96.1,103.6,115,92.2,115z"/>
	<path fill-rule="evenodd" clip-rule="evenodd" fill="#605343" d="M137.6,35.6C134,21.4,115.8-0.1,98.8,0.3
		c-2.4-0.3-5.2-0.4-8.3-0.2c-3-0.2-5.8-0.1-8.3,0.2c-17-0.4-35.1,21.1-38.7,35.3c-2.9,11.4-4.2,22.6,2.8,34.3c1.2,3.5,2.7,6,4.1,7
		c-1.6-9-1.9-15.4-1.3-20.3c1.3-1.9,3.7-2.5,7.9-0.8c11.9,5,15.5-0.6,24.5-19.4c2.7-5.8,4.9-12.6,9-12.5c4.1,0,6.3,6.8,9,12.5
		c9,18.8,12.6,24.3,24.5,19.4c4.2-1.7,6.6-1.1,7.9,0.8c0.6,4.9,0.2,11.4-1.3,20.3c1.4-1,2.9-3.5,4.1-7
		C141.8,58.2,140.5,47,137.6,35.6z"/>
	<polygon fill-rule="evenodd" clip-rule="evenodd" fill="#EDEDED" points="82.6,190.2 67,190.2 66,190.2 49.9,175.5 66.2,164.6 
		46.3,155.3 59.5,134.8 64.6,126.8 73.5,122.8 73.5,132.2 82.4,190.2 	"/>
	<polygon fill-rule="evenodd" clip-rule="evenodd" fill="#EDEDED" points="117.8,164 134.1,174.9 118.1,190.2 117,190.2 
		101.5,190.2 101.6,190.2 110.6,131.6 110.6,122.2 121.5,127 126.2,135.2 137.8,154.7 	"/>
</g>
</svg>
