<?xml version="1.0" encoding="utf-8"?>
<!-- Generator: Adobe Illustrator 18.1.1, SVG Export Plug-In . SVG Version: 6.00 Build 0)  -->
<svg version="1.1" id="objects" xmlns="http://www.w3.org/2000/svg" xmlns:xlink="http://www.w3.org/1999/xlink" x="0px" y="0px"
	 viewBox="0 0 194.2 218.3" enable-background="new 0 0 194.2 218.3" xml:space="preserve">
<g>
	<path fill-rule="evenodd" clip-rule="evenodd" fill="#FFDECC" d="M77.7,130.1c-42.9,18.8-55.8,28.9-60.9,33.4
		C9,170.4,4.6,196.3,0,218.3h97.1h97.1c-4.6-22-9-47.8-16.8-54.8c-5.1-4.5-17.5-14.3-60.4-33.1L77.7,130.1z"/>
	<path fill-rule="evenodd" clip-rule="evenodd" fill="#333333" d="M77.7,130.1c-42.9,18.8-55.8,28.9-60.9,33.4
		C9,170.4,4.6,196.3,0,218.3h97.1h97.1c-4.6-22-9-47.8-16.8-54.8c-5.1-4.5-17.5-14.3-60.4-33.1L77.7,130.1z"/>
	<path fill-rule="evenodd" clip-rule="evenodd" fill="#FFDBBA" d="M76.3,92.6v31.9v15.7c11.5,13.6,30.2,14,41.7,0v-15.7V92.6
		C118,66.9,76.3,66.9,76.3,92.6z"/>
	
		<ellipse transform="matrix(-0.3127 -0.9498 0.9498 -0.3127 4.9396 151.9458)" fill-rule="evenodd" clip-rule="evenodd" fill="#FFDBBA" cx="57.4" cy="74.2" rx="12.1" ry="7"/>
	
		<ellipse transform="matrix(0.3129 -0.9498 0.9498 0.3129 23.4136 180.735)" fill-rule="evenodd" clip-rule="evenodd" fill="#FFDBBA" cx="136.6" cy="74.2" rx="12.1" ry="7"/>
	<path fill-rule="evenodd" clip-rule="evenodd" fill="#FFFFFF" d="M97.2,150.5c0,0-29.1,6.9-29.1,8.7c0,1.8,11.1,59,11.1,59h39.5
		l4.5-58.8L97.2,150.5z"/>
	<polygon fill-rule="evenodd" clip-rule="evenodd" fill="#605F5B" points="76.3,130.7 76.3,140.2 85.3,218.3 69.8,218.3 52.6,183.5 
		69,172.6 49,163.2 67.4,134.7 	"/>
	<polygon fill-rule="evenodd" clip-rule="evenodd" fill="#605F5B" points="118,130.8 118,140.2 108.8,218.3 124.4,218.3 
		141.5,183.5 125.2,172.6 145.1,163.2 128.8,135.6 	"/>
	<path fill-rule="evenodd" clip-rule="evenodd" fill="#C93838" d="M88.2,160.2l5,7.8c2.6,0,5.2,0,7.8,0l5.1-7.8l-8.9-9.7L88.2,160.2
		z"/>
	<polygon fill-rule="evenodd" clip-rule="evenodd" fill="#C93838" points="93.2,168 86,218.3 108.2,218.3 101,168 	"/>
	<path fill-rule="evenodd" clip-rule="evenodd" fill="#EDEDED" d="M76.3,124.5l-1.8,7.1l5.1,36.9l17.7-17.9L76.3,124.5z"/>
	<path opacity="0.2" d="M76.3,115.6v1.5c0,0,10.6,12.6,20.8,13.1C107.2,130.7,118,118,118,118v-2.3"/>
	<g>
		<path fill-rule="evenodd" clip-rule="evenodd" fill="#755A48" d="M130.1,10.8c9.5,1.5,14.8,8.1,17.1,16.9
			c5.9,23.1-6.4,73.2-49,73.8c-22,0.3-37.8-5.3-43.6-23.1C48.8,60.7,46.5,32,59,16C74.8-4.3,107.9-4.4,130.1,10.8z"/>
		<path fill-rule="evenodd" clip-rule="evenodd" fill="#FFDBBA" d="M97.2,7.2C33,7.2,57.6,95,61.8,101.7c4.6,7.4,25,23.8,35.4,23.8
			c10.4,0,30.7-16.4,35.4-23.8C136.7,95,161.3,7.2,97.2,7.2z"/>
		<path fill-rule="evenodd" clip-rule="evenodd" fill="#755A48" d="M66.1,34.8c11.4,6.9,20.3-3.4,30.6,1c10.3,4.4,38.2-16.9,44.3,30
			c9.8-34-5-58.4-42.2-60C59,4.1,42.9,40.3,53.9,74.1C53.2,55.8,57.7,43.8,66.1,34.8z"/>
		<g>
			<g>
				<path fill="#755A48" d="M65.1,31.7c0.3,5.9,10.3,6.8,14.5,7.1c4,0.3,7.9-0.4,11.7-1.5c4.7-1.3,10.6-3,14.4-6.2
					c0.4-0.3,0.2-1-0.3-1.1c-7.2-1.2-14.7,4.7-21.9,5.4c-5.7,0.5-13.2-0.3-17.7-4.1C65.6,31.2,65.1,31.3,65.1,31.7L65.1,31.7z"/>
			</g>
		</g>
	</g>
	<path fill-rule="evenodd" clip-rule="evenodd" fill="#C93838" d="M117,89c0.4,0,0.7,0,1.1-0.1c10.4-0.9,13-5.6,14.2-11.5
		c1.3-6.5,1.4-8.8,3.1-9.4c1.2-0.4,1.5-1.9,1.5-3.6c0-1.7-0.1-1.9-2.1-2.6c-1.6-0.6-10.5-1.4-17.2-0.9l0,1.8
		c5.3-0.3,10.3,0.3,11.8,1.3c3.3,2.2,2.4,12.6-0.5,17.8c-2,3.6-7.1,5.4-11.8,5.5L117,89z M97.5,64.4c-2.3,0.1-11.7-2.7-18.4-3.2
		c-0.5,0-1-0.1-1.5-0.1l0,1.8c5.4,0.2,11.1,1.5,13,4.4c3.2,4.8-2.5,16.4-7.7,19c-1.6,0.8-3.6,1.2-5.8,1.2l0,1.7
		c9,0,12.4-6.5,13.5-8.7c2.1-4.1,1.7-9.7,6.8-9.7c5.2,0,4.5,5.5,6.3,9.6c1,2.2,3.9,9,13.3,8.7l0-1.6c-2.3,0-4.5-0.4-6.1-1.2
		c-5-2.6-10-14.2-6.5-19c2.1-2.9,7.7-4.2,13.1-4.4l0-1.8c-0.4,0-0.8,0.1-1.2,0.1C110.2,61.6,102.9,64.2,97.5,64.4z M77.6,61
		c-6.6-0.4-15.4,0.5-17,1c-2.1,0.7-2.1,0.9-2.3,2.6c-0.1,1.7,0.1,3.1,1.3,3.6c1.6,0.6,1.6,2.9,2.5,9.4c0.8,5.9,3.1,10.6,13.5,11.4
		c0.5,0,1,0.1,1.5,0.1l0-1.7c-4.8,0-10.1-1.8-11.9-5.5c-2.5-5.2-2.9-15.6,0.6-17.8c1.5-0.9,6.5-1.6,11.7-1.4L77.6,61z"/>
	<path fill-rule="evenodd" clip-rule="evenodd" fill="#EDEDED" d="M118,124.5l1.4,7l-4.8,37.4l-17.4-18.3L118,124.5z"/>
	<polyline opacity="5.000000e-002" points="76.3,124.5 97.2,150.5 118,124.5 118,123.8 97.2,149.8 76.3,123.8 76.3,124.5 	"/>
	<polygon opacity="0.1" fill-rule="evenodd" clip-rule="evenodd" points="93.2,168 101,168 101.1,168.3 93.2,168.3 	"/>
</g>
</svg>
