<?xml version="1.0" encoding="utf-8"?>
<!-- Generator: Adobe Illustrator 18.1.1, SVG Export Plug-In . SVG Version: 6.00 Build 0)  -->
<svg version="1.1" id="objects" xmlns="http://www.w3.org/2000/svg" xmlns:xlink="http://www.w3.org/1999/xlink" x="0px" y="0px"
	 viewBox="0 0 184.2 195.4" enable-background="new 0 0 184.2 195.4" xml:space="preserve">
<g>
	<path fill-rule="evenodd" clip-rule="evenodd" fill="#806049" d="M75.2,7c4.5-7.9,40.8-14.9,55.5,13.2
		c14.8,28.1,7.3,37.9,15.5,47.8c8.2,9.9,0.5,32.6-5.2,34.6c-5.7,2-3.4,9.9-0.6,13.2c11.8,14.4-5.3,38.7-50.8,38.5
		C41,154.1,31.4,125.8,43.9,117c4.1-2.9,5.6-8.4,1.2-13.3c-4.5-4.9-14.7-23-5-37.9C49.7,51,41.2,7,75.2,7z"/>
	<path fill-rule="evenodd" clip-rule="evenodd" fill="#268085" d="M109.5,122.6c-0.4,0.6-35.6,1.1-35.9,1.7
		c-11.1,15.8-34.9,22.7-53.9,26.9C0.8,155.4,0,179.4,0,195.4h184.2c0-16-0.4-39.9-19.7-44.2C145.3,146.8,120,139,109.5,122.6z"/>
	<path fill-rule="evenodd" clip-rule="evenodd" fill="#F5D5C1" d="M73.7,88.9v30.3v14.9c9.2,18.9,25.9,19.4,36.9,0v-14.9V88.9
		C110.6,64.5,73.7,64.5,73.7,88.9z"/>
	<path fill-rule="evenodd" clip-rule="evenodd" fill="#F5D5C1" d="M140.8,67.8c-3.7-1.7-8.9,2.4-11.6,9.1c-2.7,6.7-2,13.5,1.7,15.1
		c3.7,1.7,8.9-2.4,11.6-9.1C145.3,76.2,144.5,69.4,140.8,67.8z"/>
	<path fill-rule="evenodd" clip-rule="evenodd" fill="#F5D5C1" d="M43.5,67.8c3.7-1.7,8.9,2.4,11.6,9.1c2.7,6.7,2,13.5-1.7,15.1
		c-3.7,1.7-8.9-2.4-11.6-9.1C39,76.2,39.8,69.4,43.5,67.8z"/>
	<path opacity="0.2" fill-rule="evenodd" clip-rule="evenodd" d="M73.7,111.4v1.3c0,0,11.6,11.6,18.3,11.6
		c6.7,0,18.6-11.7,18.6-11.7v-1.1H73.7z"/>
	<path fill-rule="evenodd" clip-rule="evenodd" fill="#F5D5C1" d="M92.2,120.2c-11.5,0-35.7-18.9-43.2-46
		C41.4,46.9,55.7,7.7,92.2,7.7c36.5,0,50.7,39.2,43.2,66.5C127.8,101.3,103.6,120.2,92.2,120.2z"/>
	<path fill-rule="evenodd" clip-rule="evenodd" fill="#80604A" d="M83.6,41.6c-9,18.8-12.6,24.3-24.5,19.4c-11.9-5-9.6,8.9-7.5,18.8
		c-10.5-13.4-9.3-26.1-6-39C49.2,26.6,67.3,5.1,84.3,5.5c9.2-1,23.2,0.2,38.1,10.9c26,18.7,17.3,60.8,10.3,65.7
		c6.8-38.9-9.8-31-21.3-51.4C107.7,21.7,93.3,21.2,83.6,41.6z"/>
	<rect x="89.7" y="148.7" fill-rule="evenodd" clip-rule="evenodd" fill="#FFFFFF" width="3.8" height="46.7"/>
	<g>
		<polygon fill-rule="evenodd" clip-rule="evenodd" fill="#FFFFFF" points="73.7,124.2 60.5,136.2 77.2,162.2 91.7,148.5 		"/>
		<polygon fill-rule="evenodd" clip-rule="evenodd" fill="#FFFFFF" points="110.6,124.1 123.8,136.7 106.2,162.2 91.7,148.5 		"/>
	</g>
	<path fill-rule="evenodd" clip-rule="evenodd" fill="#268085" d="M112.2,88.3c0.4,0,0.7,0,1.1-0.1c10.5-0.9,13.1-5.6,14.2-11.5
		c1.3-6.5,1.4-8.8,3.1-9.4c1.2-0.4,1.5-1.9,1.5-3.6c0-1.7-0.1-1.9-2.1-2.6c-1.6-0.6-10.6-1.4-17.3-1l0,1.8
		c5.3-0.3,10.4,0.3,11.9,1.3c3.4,2.2,2.4,12.7-0.5,17.9c-2,3.6-7.2,5.5-11.9,5.5L112.2,88.3z M92.6,63.6c-2.3,0.1-11.8-2.7-18.5-3.3
		c-0.5,0-1-0.1-1.5-0.1l0,1.8c5.5,0.2,11.1,1.5,13.1,4.4c3.2,4.8-2.5,16.5-7.7,19.1c-1.6,0.8-3.6,1.2-5.8,1.2l0,1.7
		c9.1,0,12.4-6.5,13.5-8.7c2.1-4.1,1.7-9.8,6.9-9.8c5.2,0,4.5,5.5,6.4,9.6c1,2.2,3.9,9,13.3,8.7l0-1.7c-2.3,0-4.5-0.4-6.1-1.2
		c-5-2.6-10-14.3-6.5-19.1c2.1-2.9,7.7-4.2,13.1-4.5l0-1.8c-0.4,0-0.8,0.1-1.2,0.1C105.4,60.8,98,63.4,92.6,63.6z M72.6,60.2
		c-6.6-0.4-15.4,0.5-17.1,1c-2.1,0.7-2.2,0.9-2.3,2.6c-0.1,1.7,0.1,3.2,1.3,3.6c1.7,0.6,1.6,2.9,2.5,9.4c0.8,5.9,3.1,10.6,13.5,11.5
		c0.5,0,1,0.1,1.6,0.1l0-1.7c-4.8,0-10.1-1.8-11.9-5.5c-2.5-5.2-2.9-15.7,0.6-17.9c1.5-0.9,6.5-1.6,11.7-1.4L72.6,60.2z"/>
	<polygon opacity="5.000000e-002" fill-rule="evenodd" clip-rule="evenodd" points="73.7,124.2 91.7,148.5 110.6,124.1 110.6,123.6 
		91.7,147.8 73.7,123.6 	"/>
</g>
</svg>
