<?xml version="1.0" encoding="utf-8"?>
<!-- Generator: Adobe Illustrator 18.1.1, SVG Export Plug-In . SVG Version: 6.00 Build 0)  -->
<svg version="1.1" id="objects" xmlns="http://www.w3.org/2000/svg" xmlns:xlink="http://www.w3.org/1999/xlink" x="0px" y="0px"
	 viewBox="0 0 194.2 218" enable-background="new 0 0 194.2 218" xml:space="preserve">
<g>
	<path fill-rule="evenodd" clip-rule="evenodd" fill="#FFDECC" d="M77.7,129.8c-42.9,18.8-55.8,28.8-60.9,33.4
		C9,170.1,4.6,196,0,218h97.1h97.1c-4.6-22-9-47.8-16.8-54.8c-5.1-4.5-17.5-14.3-60.4-33.1L77.7,129.8z"/>
	<path fill-rule="evenodd" clip-rule="evenodd" fill="#C93838" d="M77.7,129.8c-42.9,18.8-55.8,28.8-60.9,33.4
		C9,170.1,4.6,196,0,218h97.1h97.1c-4.6-22-9-47.8-16.8-54.8c-5.1-4.5-17.5-14.3-60.4-33.1L77.7,129.8z"/>
	<path fill-rule="evenodd" clip-rule="evenodd" fill="#F6D1AF" d="M76.3,92.3v31.9v15.7c11.5,13.6,30.2,14,41.7,0v-15.7V92.3
		C118,66.6,76.3,66.6,76.3,92.3z"/>
	<path fill-rule="evenodd" clip-rule="evenodd" fill="#F6D1AF" d="M53.7,62.4c3.7-1.2,8.3,3,10.4,9.3c2.1,6.3,0.8,12.5-2.9,13.7
		c-3.7,1.2-8.3-3-10.4-9.3C48.7,69.7,50,63.6,53.7,62.4z"/>
	<path fill-rule="evenodd" clip-rule="evenodd" fill="#F6D1AF" d="M140.4,62.4c-3.7-1.2-8.3,3-10.4,9.3c-2.1,6.3-0.8,12.5,2.9,13.7
		c3.7,1.2,8.3-3,10.4-9.3C145.4,69.7,144.1,63.6,140.4,62.4z"/>
	<path opacity="0.2" d="M76.3,115.3v1.5c0,0,10.6,12.6,20.8,13.1c10.2,0.5,20.9-12.2,20.9-12.2v-2.3"/>
	<g>
		<path fill-rule="evenodd" clip-rule="evenodd" fill="#F6D1AF" d="M97.2,6.9c-64.1,0-39.5,87.8-35.4,94.6
			c4.6,7.4,25,23.8,35.4,23.8c10.4,0,30.7-16.4,35.4-23.8C136.7,94.7,161.3,6.9,97.2,6.9z"/>
		<path fill="#343434" d="M125.9,8.9c-21.7-17-55.1-6.9-65.2,7.3C48.1,34,52.6,61,55.6,81.3c0,0,0-0.1,0-0.1c0,0.2,0.1,0.4,0.1,0.6
			c0,0.2,0.4,0.6,0.5,0.8c0.1,0.2,0.9,0,1.2-0.1c0.1,0,0.1-0.2,0.1-0.3c0.1-1.8,0-5.3,0-5.4c-0.2-2.8-0.8-5.5-1.3-8.2
			c2-12.8,8-15.5,11.2-30.9c0.7-1,1.4-2,2.1-3c0.9-1.1,1.7-2.2,2.8-3.2c0.5-0.3,1.1-0.7,1.6-1.1c11.7-4.3,23.7,0.9,34.7,5.3
			c4.2,1.7,4.8-5.8,9.5-6.1c2-0.2,6.1,6.6,7.7,6.4c16.5-1.9,9.6,23.1,12.2,34.7c-0.4,2-0.7,4-0.9,6.1c0,0-0.1,3.6,0,5.4
			c0,0.1,0,0.2,0.1,0.3c0.3,0.1,1,0.3,1.2,0.1c0.1-0.1,0.4-0.6,0.5-0.8c0.2-0.8,0.2-1.4,0.3-2.2c0.1-1,0.3-2.1,0.4-3.2
			C142.8,63.9,149,14.3,125.9,8.9z M93.1,25.7c-0.4-0.1-0.7-0.2-1.1-0.3c0.5,0.1,1.1,0.3,1.6,0.4C93.4,25.7,93.3,25.7,93.1,25.7z"/>
	</g>
	<polygon opacity="0.1" fill-rule="evenodd" clip-rule="evenodd" points="93.2,167.7 101,167.7 101.1,168 93.2,168 	"/>
	<path fill="#343434" d="M109.5,14.8c0,0-18.7-13-35.3-6s-31.3,9.7-35,5c0,0-10.3,21.7,9,33s41.3,2.3,47.7-4.7
		c6.3-7,16.7-18.3,22.3-16C123.9,28.5,109.5,14.8,109.5,14.8z"/>
</g>
</svg>
