<?xml version="1.0" encoding="utf-8"?>
<!-- Generator: Adobe Illustrator 18.1.1, SVG Export Plug-In . SVG Version: 6.00 Build 0)  -->
<svg version="1.1" id="Objects" xmlns="http://www.w3.org/2000/svg" xmlns:xlink="http://www.w3.org/1999/xlink" x="0px" y="0px"
	 viewBox="0 0 766.4 311.5" enable-background="new 0 0 766.4 311.5" xml:space="preserve">
<g>
	<g>
		<polygon fill-rule="evenodd" clip-rule="evenodd" fill="#335E59" points="672.6,114.9 695.6,114.9 706.3,134.4 661.9,134.4 		"/>
		<path fill-rule="evenodd" clip-rule="evenodd" fill="#335E59" d="M630.1,30.9h108.1c3,0,5.5,2.5,5.5,5.5v77.9c0,3-2.5,5.5-5.5,5.5
			H630.1c-3,0-5.5-2.5-5.5-5.5V36.4C624.5,33.4,627,30.9,630.1,30.9z"/>
		<g>
			<circle fill-rule="evenodd" clip-rule="evenodd" fill="#71B8B0" cx="737" cy="114.9" r="0.7"/>
			<circle fill-rule="evenodd" clip-rule="evenodd" fill="#71B8B0" cx="734.2" cy="114.9" r="0.7"/>
			<circle fill-rule="evenodd" clip-rule="evenodd" fill="#71B8B0" cx="731.4" cy="114.9" r="0.7"/>
		</g>
		<path fill-rule="evenodd" clip-rule="evenodd" fill="#71B8B0" d="M618.2,128.5h131.9c1.6,0,2.9,1.3,2.9,2.9l0,0
			c0,1.6-1.3,2.9-2.9,2.9H618.2c-1.6,0-2.9-1.3-2.9-2.9l0,0C615.2,129.8,616.5,128.5,618.2,128.5z"/>
		<path fill-rule="evenodd" clip-rule="evenodd" fill="#335E59" d="M753,131.4c0,1.6-1.3,2.9-2.9,2.9H618.2c-1.6,0-2.9-1.3-2.9-2.9
			H753z"/>
		<rect x="628.2" y="34.1" fill-rule="evenodd" clip-rule="evenodd" fill="#D6FFFA" width="111.8" height="75.8"/>
	</g>
	<g>
		<polygon fill-rule="evenodd" clip-rule="evenodd" fill="#FFDC8F" points="645.7,1.2 711.5,1.2 722.6,12.2 722.6,1.2 722.6,109.9 
			645.7,109.9 		"/>
		
			<path fill-rule="evenodd" clip-rule="evenodd" fill="none" stroke="#FFFFFF" stroke-width="1.1999" stroke-miterlimit="22.9256" d="
			M708.9,78.3v13.6 M692.4,78.3v6.8 M659,78.3v21.3"/>
		<g>
			
				<circle fill-rule="evenodd" clip-rule="evenodd" fill="#FFFFFF" stroke="#FFDC8F" stroke-width="0.5669" stroke-miterlimit="22.9256" cx="707.4" cy="56.2" r="8.1"/>
			
				<path fill-rule="evenodd" clip-rule="evenodd" fill="#FFFFFF" stroke="#FFDC8F" stroke-width="0.5669" stroke-miterlimit="22.9256" d="
				M702.9,63c-1.2-0.8-2.1-1.8-2.8-3.1l7.3-3.7L702.9,63z"/>
			
				<path fill-rule="evenodd" clip-rule="evenodd" fill="#FFFFFF" stroke="#FFDC8F" stroke-width="0.5669" stroke-miterlimit="22.9256" d="
				M700.1,59.9c-0.6-1.1-0.9-2.4-0.9-3.7c0-2.6,1.2-4.9,3.1-6.4l5,6.4L700.1,59.9z"/>
			
				<path fill-rule="evenodd" clip-rule="evenodd" fill="#FFFFFF" stroke="#FFDC8F" stroke-width="0.5669" stroke-miterlimit="22.9256" d="
				M702.3,49.8c1.4-1.1,3.1-1.7,5-1.7v8.1L702.3,49.8z"/>
			
				<path fill-rule="evenodd" clip-rule="evenodd" fill="#FFFFFF" stroke="#FFDC8F" stroke-width="0.5669" stroke-miterlimit="22.9256" d="
				M707.4,48v8.1l5.8-5.7C711.7,49,709.6,48,707.4,48z"/>
		</g>
		<g>
			
				<rect x="652.7" y="65.7" fill-rule="evenodd" clip-rule="evenodd" fill="#FFAE00" stroke="#FFDC8F" stroke-width="0.5669" stroke-miterlimit="22.9256" width="37.4" height="3.5"/>
			
				<rect x="652.7" y="45.7" fill-rule="evenodd" clip-rule="evenodd" fill="#FFFFFF" stroke="#FFDC8F" stroke-width="0.5669" stroke-miterlimit="22.9256" width="6.6" height="20"/>
			
				<rect x="660.4" y="53.3" fill-rule="evenodd" clip-rule="evenodd" fill="#FFFFFF" stroke="#FFDC8F" stroke-width="0.5669" stroke-miterlimit="22.9256" width="6.6" height="12.5"/>
			
				<rect x="668.1" y="57.5" fill-rule="evenodd" clip-rule="evenodd" fill="#FFFFFF" stroke="#FFDC8F" stroke-width="0.5669" stroke-miterlimit="22.9256" width="6.6" height="8.2"/>
			
				<rect x="675.8" y="53.6" fill-rule="evenodd" clip-rule="evenodd" fill="#FFFFFF" stroke="#FFDC8F" stroke-width="0.5669" stroke-miterlimit="22.9256" width="6.6" height="12.1"/>
			
				<rect x="683.4" y="57.1" fill-rule="evenodd" clip-rule="evenodd" fill="#FFFFFF" stroke="#FFDC8F" stroke-width="0.5669" stroke-miterlimit="22.9256" width="6.6" height="8.7"/>
		</g>
		<rect x="699.7" y="65.7" fill-rule="evenodd" clip-rule="evenodd" fill="#FFAE00" width="3.4" height="3.5"/>
		<rect x="704.6" y="65.7" fill-rule="evenodd" clip-rule="evenodd" fill="#FFAE00" width="10" height="3.5"/>
		<g>
			<rect x="665.4" y="12.8" fill-rule="evenodd" clip-rule="evenodd" fill="#FFAE00" width="37.3" height="2.7"/>
			<rect x="652.7" y="19.5" fill-rule="evenodd" clip-rule="evenodd" fill="#FFAE00" width="62.8" height="2.7"/>
			<rect x="652.7" y="24.1" fill-rule="evenodd" clip-rule="evenodd" fill="#FFAE00" width="62.8" height="2.7"/>
			<rect x="652.7" y="28.8" fill-rule="evenodd" clip-rule="evenodd" fill="#FFAE00" width="62.8" height="2.7"/>
			<rect x="652.7" y="33.4" fill-rule="evenodd" clip-rule="evenodd" fill="#FFAE00" width="29.4" height="2.7"/>
			<polygon fill-rule="evenodd" clip-rule="evenodd" fill="#FFAE00" points="711.5,12.2 722.6,12.2 711.5,1.2 			"/>
		</g>
		<rect x="652.7" y="76.3" fill-rule="evenodd" clip-rule="evenodd" fill="#FFAE00" width="13.2" height="4"/>
		<rect x="669.3" y="76.3" fill-rule="evenodd" clip-rule="evenodd" fill="#FFAE00" width="13.2" height="4"/>
		<rect x="685.8" y="76.3" fill-rule="evenodd" clip-rule="evenodd" fill="#FFAE00" width="13.2" height="4"/>
		<rect x="702.3" y="76.3" fill-rule="evenodd" clip-rule="evenodd" fill="#FFAE00" width="13.2" height="4"/>
		<rect x="652.7" y="83.1" fill-rule="evenodd" clip-rule="evenodd" fill="#FFCD60" width="13.2" height="4"/>
		<rect x="652.7" y="89.9" fill-rule="evenodd" clip-rule="evenodd" fill="#FFEBBF" width="13.2" height="4"/>
		<rect x="652.7" y="96.7" fill-rule="evenodd" clip-rule="evenodd" fill="#FFFFFF" width="13.2" height="4"/>
		<rect x="685.8" y="83.1" fill-rule="evenodd" clip-rule="evenodd" fill="#FFCD60" width="13.2" height="4"/>
		<rect x="702.3" y="83.1" fill-rule="evenodd" clip-rule="evenodd" fill="#FFCD60" width="13.2" height="4"/>
		<rect x="702.3" y="89.9" fill-rule="evenodd" clip-rule="evenodd" fill="#FFDC8F" width="13.2" height="4"/>
	</g>
	<g>
		<path fill-rule="evenodd" clip-rule="evenodd" fill="#71B8B0" d="M720.6,99.7l-6.8,2.4l2.8-6.6l38.8-36.9c0.6-0.6,1.6-0.6,2.2,0.1
			l1.8,1.9c0.6,0.6,0.6,1.6-0.1,2.2L720.6,99.7z"/>
		<path fill-rule="evenodd" clip-rule="evenodd" fill="#335E59" d="M720.6,99.7l-6.8,2.4l4.9-4.7l39.8-37.8l0.9,1
			c0.6,0.6,0.6,1.6-0.1,2.2L720.6,99.7z"/>
		<path fill-rule="evenodd" clip-rule="evenodd" fill="#D6FFFA" d="M720.6,99.7l-6.8,2.4l2.8-6.6l37.1-35.3c1.7,1.2,3,2.6,4,4.2
			L720.6,99.7z"/>
		<path fill-rule="evenodd" clip-rule="evenodd" fill="#71B8B0" d="M720.6,99.7l-6.8,2.4l4.9-4.7l37.1-35.3c0.7,0.7,1.3,1.5,1.8,2.3
			L720.6,99.7z"/>
		<path fill-rule="evenodd" clip-rule="evenodd" fill="#FFD5C9" d="M720.6,99.7l-6.8,2.4l2.8-6.6l35.8-34c1.7,1.2,3,2.6,4,4.2
			L720.6,99.7z"/>
		<path fill-rule="evenodd" clip-rule="evenodd" fill="#FC6E4B" d="M720.6,99.7l-6.8,2.4l4.9-4.7l35.8-34c0.7,0.7,1.3,1.5,1.8,2.3
			L720.6,99.7z"/>
		<path fill-rule="evenodd" clip-rule="evenodd" fill="#D6FFFA" d="M720.6,99.7l-6.8,2.4l2.8-6.6c0.8,0.5,1.5,1.2,2.2,1.9
			C719.5,98.1,720.1,98.9,720.6,99.7z"/>
		<path fill-rule="evenodd" clip-rule="evenodd" fill="#71B8B0" d="M720.6,99.7l-6.8,2.4l4.9-4.7C719.5,98.1,720.1,98.9,720.6,99.7z
			"/>
		<path fill-rule="evenodd" clip-rule="evenodd" fill="#666666" d="M716.1,101.3l-2.2,0.8l0.9-2.2c0.3,0.2,0.5,0.4,0.7,0.6
			C715.7,100.8,715.9,101,716.1,101.3z"/>
	</g>
	<g>
		<rect x="591.2" y="130.3" fill-rule="evenodd" clip-rule="evenodd" fill="#FC6E4B" width="39.5" height="4"/>
		<path fill-rule="evenodd" clip-rule="evenodd" fill="#FC6E4B" d="M611.4,130.3h2v-4.1h-2h0.4v4.1H611.4z M609.4,130.3h2H611v-4.1
			h0.4h-2V130.3z"/>
		<path fill-rule="evenodd" clip-rule="evenodd" fill="#FC6E4B" d="M617.3,103.6l7.2-34.6l-3.9-0.8l-3.2,15.7v7.5l4.7-22.9l0.9,0.2
			l-5.7,27.4V103.6z M610.2,118.5l3.9,0.8l3.2-15.7v-7.5l-4.7,22.9l-0.9-0.2l5.7-27.4v-7.5L610.2,118.5z"/>
		<path fill-rule="evenodd" clip-rule="evenodd" fill="#FC6E4B" d="M678.3,45.3l-1.5-3.7l-24.8,10v1.6L677.3,43l0.4,0.9L652,54.2
			v1.6L678.3,45.3z M652,51.6l-26.3,10.5l1.5,3.7l24.8-10v-1.6l-25.4,10.2l-0.4-0.9L652,53.2V51.6z"/>
		<path fill-rule="evenodd" clip-rule="evenodd" fill="#FC6E4B" d="M671.9,30.3c1.3-0.8,2.6-1.3,4-1.7l5.2,6.4
			c5.2-0.2,10.9,3,14.3,8.5c-3.8,1.9-7.7,4.1-11.6,6.5c-3.9,2.4-7.7,4.8-11.1,7.3c-3.3-5.7-3.4-12.1-0.8-16.7l-3.2-7.6
			C669.5,32,670.7,31.1,671.9,30.3z"/>
		<path fill-rule="evenodd" clip-rule="evenodd" fill="#FC6E4B" d="M623.2,61c1.1,0,2.1,0.4,2.9,1.2c1.7,1.6,1.7,4.3,0.1,6
			c-0.8,0.8-1.9,1.3-3,1.3v-0.8c0.9,0,1.8-0.3,2.4-1c1.3-1.3,1.3-3.5,0-4.8c-0.7-0.6-1.5-1-2.4-1V61z M620.2,62.3
			c0.8-0.8,1.9-1.3,3-1.3v0.8c-0.9,0-1.8,0.3-2.4,1c-1.3,1.3-1.3,3.5,0,4.8c0.7,0.6,1.5,1,2.4,1v0.8c-1.1,0-2.1-0.4-2.9-1.2
			C618.6,66.6,618.6,64,620.2,62.3z"/>
		<path fill-rule="evenodd" clip-rule="evenodd" fill="#FC6E4B" d="M611.4,118.3c2.3,0,4.2,1.9,4.2,4.2c0,2.3-1.9,4.2-4.2,4.2l0,0
			v-0.8l0,0c1.9,0,3.4-1.5,3.4-3.4c0-1.9-1.5-3.4-3.4-3.4l0,0V118.3L611.4,118.3z M611.4,126.7c-2.3,0-4.2-1.9-4.2-4.2
			c0-2.3,1.9-4.2,4.2-4.2v0.8c-1.9,0-3.4,1.5-3.4,3.4c0,1.9,1.5,3.4,3.4,3.4V126.7z"/>
	</g>
</g>
<g>
	<g>
		<g>
			
				<rect x="214.1" y="38.4" transform="matrix(-0.8604 0.5096 -0.5096 -0.8604 490.8745 -51.9014)" fill-rule="evenodd" clip-rule="evenodd" fill="#FFEBBF" width="76.9" height="5.7"/>
			
				<rect x="277.3" y="38.4" transform="matrix(0.8604 0.5096 -0.5096 0.8604 65.1054 -155.1462)" fill-rule="evenodd" clip-rule="evenodd" fill="#FFEBBF" width="76.9" height="5.7"/>
		</g>
		<g>
			<rect x="311.7" y="14.7" fill-rule="evenodd" clip-rule="evenodd" fill="#FFEBBF" width="5.2" height="25.8"/>
			<rect x="330.4" y="14.7" fill-rule="evenodd" clip-rule="evenodd" fill="#FFEBBF" width="5.2" height="37.4"/>
			<rect x="311.7" y="14.7" fill-rule="evenodd" clip-rule="evenodd" fill="#FFEBBF" width="24" height="5.2"/>
		</g>
	</g>
	<g>
		<rect x="222.1" y="78.2" fill-rule="evenodd" clip-rule="evenodd" fill="#335E59" width="124.1" height="56.4"/>
		<rect x="225.5" y="82.1" fill-rule="evenodd" clip-rule="evenodd" fill="#88C9C1" width="117.4" height="48.7"/>
		<path fill-rule="evenodd" clip-rule="evenodd" fill="#335E59" d="M328.7,78.2h17.5v17.5C336.6,95.7,328.7,87.9,328.7,78.2z"/>
		<path fill-rule="evenodd" clip-rule="evenodd" fill="#335E59" d="M239.6,134.6h-17.5v-17.5C231.8,117.1,239.6,125,239.6,134.6z"/>
		<path fill-rule="evenodd" clip-rule="evenodd" fill="#335E59" d="M284.2,124.8c10.1,0,18.3-8.2,18.3-18.3
			c0-10.1-8.2-18.3-18.3-18.3c-10.1,0-18.3,8.2-18.3,18.3C265.8,116.5,274.1,124.8,284.2,124.8z"/>
		<text transform="matrix(1 0 0 1 227.4388 96.2109)" fill="#335E59" font-family="'Arial-BoldMT'" font-size="13.5876">100</text>
		<text transform="matrix(1 0 0 1 318.2283 128.9961)" fill="#335E59" font-family="'Arial-BoldMT'" font-size="13.5876">100</text>
		<path fill="#88C9C1" d="M287,95.1c1,0.3,1.8,0.7,2.5,1.3c0.9,0.9,1.5,2,1.7,3.5l-3.7,0.5c-0.1-0.5-0.3-1-0.5-1.3V95.1L287,95.1z
			 M287,104.1c1.7,0.6,2.8,1.3,3.5,2.1c0.8,1,1.3,2.3,1.3,3.9c0,1.8-0.5,3.2-1.6,4.4c-0.8,0.9-1.9,1.6-3.2,2V113
			c0.2-0.1,0.4-0.3,0.5-0.5c0.5-0.5,0.7-1.2,0.7-1.9c0-0.7-0.2-1.2-0.6-1.7c-0.2-0.2-0.4-0.4-0.7-0.6V104.1z M283.7,113.3v-6.1
			c-0.3-0.1-0.6-0.2-0.9-0.3v-4.4c0.3,0.2,0.6,0.4,0.9,0.6v-5c-0.4,0.1-0.7,0.3-0.9,0.5V95c0.3-0.1,0.6-0.1,0.9-0.2v-1.4h2.1v1.4
			c0.4,0.1,0.8,0.1,1.2,0.2v4c-0.3-0.4-0.7-0.8-1.2-1v5.7c0.4,0.1,0.8,0.2,1.2,0.4v4.2c-0.3-0.2-0.7-0.4-1.2-0.5v5.7
			c0.5-0.1,0.9-0.3,1.2-0.5v3.5c-0.4,0.1-0.8,0.2-1.2,0.3v2.7h-2.1v-2.6c-0.3,0-0.6-0.1-0.9-0.2v-4
			C283,112.9,283.3,113.1,283.7,113.3z M282.7,106.9c-1.4-0.5-2.5-1.2-3.2-2.2c-0.9-1.1-1.3-2.4-1.3-4c0-1.6,0.5-2.9,1.5-4
			c0.8-0.9,1.8-1.4,3.1-1.7v3.5c-0.2,0.1-0.3,0.3-0.4,0.5c-0.3,0.5-0.5,1-0.5,1.5c0,0.5,0.2,1,0.5,1.4c0.1,0.2,0.3,0.4,0.5,0.5
			V106.9L282.7,106.9z M282.7,116.6c-1.3-0.3-2.3-0.9-3.2-1.7c-1-1-1.7-2.5-2-4.4l3.8-0.4c0.2,0.8,0.4,1.4,0.9,2
			c0.2,0.2,0.3,0.4,0.5,0.6V116.6z"/>
	</g>
	<g>
		<path fill-rule="evenodd" clip-rule="evenodd" fill="#FFAE00" d="M288.9,61.2c6.1,0,11.1-5,11.1-11.1s-5-11.1-11.1-11.1
			s-11.1,5-11.1,11.1S282.8,61.2,288.9,61.2z"/>
		<path fill-rule="evenodd" clip-rule="evenodd" fill="#FFEBBF" d="M288.9,59.5c5.2,0,9.4-4.2,9.4-9.4c0-5.2-4.2-9.4-9.4-9.4
			c-5.2,0-9.4,4.2-9.4,9.4C279.5,55.3,283.8,59.5,288.9,59.5z"/>
		<path fill="#FFAE00" d="M285.7,52c0.5,0.6,1,1,1.6,1.3c0.5,0.3,1.1,0.4,1.6,0.4c0.4,0,0.8-0.1,1.1-0.4c0.3-0.3,0.4-0.6,0.4-1
			c0-0.4-0.1-0.7-0.4-1c-0.2-0.2-0.8-0.5-1.7-0.7c-1.3-0.4-2.3-0.8-2.8-1.4c-0.5-0.5-0.8-1.3-0.8-2.3c0-1.2,0.4-2.1,1.1-2.9
			c0.7-0.7,1.8-1.2,3.1-1.3v-1.2h1.1l0,1.2c0.5,0.1,1,0.2,1.5,0.4c0.5,0.2,1,0.4,1.5,0.8l-1.1,2.5c-0.4-0.3-0.8-0.6-1.2-0.8
			c-0.4-0.2-0.8-0.3-1.3-0.3c-0.4,0-0.8,0.1-1,0.3c-0.3,0.2-0.4,0.5-0.4,0.8c0,0.3,0.1,0.6,0.3,0.8c0.2,0.2,0.7,0.4,1.4,0.6l0.1,0
			c1.5,0.4,2.4,0.8,2.9,1.3c0.3,0.3,0.5,0.7,0.7,1.1c0.2,0.4,0.2,0.9,0.2,1.5c0,1.2-0.4,2.3-1.1,3.1c-0.7,0.8-1.7,1.3-3,1.4v2.2
			h-1.1v-2.1c-0.8,0-1.6-0.2-2.3-0.5c-0.7-0.3-1.4-0.8-2-1.4L285.7,52z"/>
	</g>
	<g>
		<path fill-rule="evenodd" clip-rule="evenodd" fill="#FFAE00" d="M275.3,73.8c6.1,0,11.1-5,11.1-11.1c0-6.1-5-11.1-11.1-11.1
			c-6.1,0-11.1,5-11.1,11.1C264.2,68.8,269.2,73.8,275.3,73.8z"/>
		<path fill-rule="evenodd" clip-rule="evenodd" fill="#FFEBBF" d="M275.3,72.1c5.2,0,9.4-4.2,9.4-9.4c0-5.2-4.2-9.4-9.4-9.4
			c-5.2,0-9.4,4.2-9.4,9.4C265.9,67.9,270.2,72.1,275.3,72.1z"/>
		<path fill="#FFAE00" d="M272.1,64.5c0.5,0.6,1,1,1.6,1.3c0.5,0.3,1.1,0.4,1.6,0.4c0.4,0,0.8-0.1,1.1-0.4c0.3-0.3,0.4-0.6,0.4-1
			c0-0.4-0.1-0.7-0.4-1c-0.2-0.2-0.8-0.5-1.7-0.7c-1.3-0.4-2.3-0.8-2.8-1.4c-0.5-0.5-0.8-1.3-0.8-2.3c0-1.2,0.4-2.1,1.1-2.9
			c0.7-0.7,1.8-1.2,3.1-1.3v-1.2h1.1l0,1.2c0.5,0.1,1,0.2,1.5,0.4c0.5,0.2,1,0.4,1.5,0.8l-1.1,2.5c-0.4-0.3-0.8-0.6-1.2-0.8
			c-0.4-0.2-0.8-0.3-1.3-0.3c-0.4,0-0.8,0.1-1,0.3c-0.3,0.2-0.4,0.5-0.4,0.8c0,0.3,0.1,0.6,0.3,0.8c0.2,0.2,0.7,0.4,1.4,0.6l0.1,0
			c1.5,0.4,2.4,0.8,2.9,1.3c0.3,0.3,0.5,0.7,0.7,1.1c0.2,0.4,0.2,0.9,0.2,1.5c0,1.2-0.4,2.3-1.1,3.1c-0.7,0.8-1.7,1.3-3,1.4v2.2
			h-1.2V69c-0.8,0-1.6-0.2-2.3-0.5c-0.7-0.3-1.4-0.8-2-1.4L272.1,64.5z"/>
	</g>
	<g>
		<path fill-rule="evenodd" clip-rule="evenodd" fill="#FFAE00" d="M294.3,88.1c6.1,0,11.1-5,11.1-11.1c0-6.1-5-11.1-11.1-11.1
			s-11.1,5-11.1,11.1C283.2,83.1,288.2,88.1,294.3,88.1z"/>
		<path fill-rule="evenodd" clip-rule="evenodd" fill="#FFEBBF" d="M294.3,86.4c5.2,0,9.4-4.2,9.4-9.4c0-5.2-4.2-9.4-9.4-9.4
			c-5.2,0-9.4,4.2-9.4,9.4C284.9,82.1,289.2,86.4,294.3,86.4z"/>
		<path fill="#FFAE00" d="M291.1,78.8c0.5,0.6,1,1,1.6,1.3c0.5,0.3,1.1,0.4,1.6,0.4c0.4,0,0.8-0.1,1.1-0.4c0.3-0.3,0.4-0.6,0.4-1
			c0-0.4-0.1-0.7-0.4-1c-0.2-0.2-0.8-0.5-1.7-0.7c-1.3-0.4-2.3-0.8-2.8-1.4c-0.5-0.5-0.8-1.3-0.8-2.3c0-1.2,0.4-2.1,1.1-2.9
			c0.7-0.7,1.8-1.2,3.1-1.3v-1.2h1.1l0,1.2c0.5,0.1,1,0.2,1.5,0.4c0.5,0.2,1,0.4,1.5,0.8l-1.1,2.5c-0.4-0.3-0.8-0.6-1.2-0.8
			c-0.4-0.2-0.8-0.3-1.3-0.3c-0.4,0-0.8,0.1-1,0.3c-0.3,0.2-0.4,0.5-0.4,0.8c0,0.3,0.1,0.6,0.3,0.8c0.2,0.2,0.7,0.4,1.4,0.6l0.1,0
			c1.5,0.4,2.4,0.8,2.9,1.3c0.3,0.3,0.5,0.7,0.7,1.2c0.2,0.4,0.2,0.9,0.2,1.5c0,1.2-0.4,2.3-1.1,3.1c-0.7,0.8-1.7,1.3-3,1.4v2.2
			h-1.1v-2.1c-0.8,0-1.6-0.2-2.3-0.5c-0.7-0.3-1.4-0.8-2-1.4L291.1,78.8z"/>
	</g>
</g>
<g>
	<g>
		<path fill-rule="evenodd" clip-rule="evenodd" fill="#FC6E4B" d="M461.6,0h45c6,0,10.9,4.9,10.9,10.9v101.3
			c0,6-4.9,10.9-10.9,10.9h-45c-6,0-10.9-4.9-10.9-10.9V10.9C450.7,4.9,455.6,0,461.6,0z"/>
		<rect x="452.8" y="10.9" fill-rule="evenodd" clip-rule="evenodd" fill="#FFFDFA" width="62.8" height="103.2"/>
		<rect x="477.7" y="7" fill-rule="evenodd" clip-rule="evenodd" fill="#FFB8A6" width="12.9" height="1.3"/>
		<circle fill-rule="evenodd" clip-rule="evenodd" fill="#FFB8A6" cx="484.1" cy="4.2" r="1.2"/>
		<circle fill-rule="evenodd" clip-rule="evenodd" fill="#FFB8A6" cx="484.1" cy="118.6" r="2.8"/>
	</g>
	<g>
		<path fill-rule="evenodd" clip-rule="evenodd" fill="#71B8B0" d="M499.7,48h1.3c3.8,0,3.9-4.3,0-4.3l-1.3,0v0.3
			c1,0,1.8,0.8,1.8,1.8c0,1-0.8,1.8-1.8,1.8V48z M468.6,48h31v-0.4c-1,0-1.8-0.8-1.8-1.8c0-1,0.8-1.8,1.8-1.8v-0.3
			c-10.3,0-20.7,0-31,0v0.3c1,0,1.8,0.8,1.8,1.8c0,1-0.8,1.8-1.8,1.8V48z M467.3,48h1.3v-0.4c-1,0-1.8-0.8-1.8-1.8
			c0-1,0.8-1.8,1.8-1.8v-0.3l-1.3,0C463.4,43.8,463.5,48,467.3,48z"/>
		<circle fill-rule="evenodd" clip-rule="evenodd" fill="#71B8B0" cx="486.5" cy="31" r="1.8"/>
		<path fill-rule="evenodd" clip-rule="evenodd" fill="#71B8B0" d="M500.3,45.4l-12.2-13.7c-0.3-0.3-0.8-0.3-1.1-0.1l0,0
			c-0.3,0.3-0.3,0.8-0.1,1.1l12.2,13.7c0.3,0.3,0.8,0.3,1.1,0.1l0,0C500.6,46.2,500.6,45.7,500.3,45.4z"/>
		<circle fill-rule="evenodd" clip-rule="evenodd" fill="#71B8B0" cx="481.8" cy="31" r="1.8"/>
		<path fill-rule="evenodd" clip-rule="evenodd" fill="#71B8B0" d="M467.9,45.4l13.3-14.9c0.3-0.3,0.8-0.3,1.1-0.1l0,0
			c0.3,0.3,0.3,0.8,0.1,1.1l-13.3,14.9c-0.3,0.3-0.8,0.3-1.1,0.1l0,0C467.7,46.2,467.6,45.7,467.9,45.4z"/>
		<path fill-rule="evenodd" clip-rule="evenodd" fill="#71B8B0" d="M494.5,49.3h6.3l-1.6,9.4c-0.4,2-1.3,3.6-4.5,3.6h-0.2v-2.8
			c0.4-0.2,0.8-0.7,0.9-1.2c0.1-1.1,0.3-2.2,0.4-3.2c0.1-1.1,0.3-2.2,0.4-3.2c0.1-0.7-0.5-1.3-1.2-1.3l0,0c-0.2,0-0.3,0-0.5,0.1
			V49.3z M489.3,49.3h5.2v1.3c-0.6,0.2-1,0.7-1.1,1.2c-0.1,1.1-0.2,2.2-0.3,3.2c-0.1,1.1-0.2,2.2-0.3,3.2c-0.1,0.7,0.4,1.3,1.1,1.3
			l0,0c0.2,0,0.4-0.1,0.6-0.1v2.8h-5.2v-2.7c0.6-0.1,1-0.7,1.1-1.3c0.1-1.1,0.2-2.2,0.2-3.2c0.1-1.1,0.2-2.2,0.2-3.2
			c0.1-0.7-0.5-1.3-1.3-1.3l0,0c-0.1,0-0.2,0-0.2,0V49.3z M484.1,49.3h5.2v1.2c-0.7,0.1-1.2,0.6-1.3,1.3c0,1.1-0.1,2.2-0.1,3.2
			c0,1.1-0.1,2.2-0.1,3.2c0,0.7,0.5,1.3,1.2,1.3l0,0c0.1,0,0.2,0,0.3,0v2.7h-5.2v-2.7c0.7,0,1.3-0.6,1.3-1.3c0-1.1,0-2.2,0.1-3.2
			c0-1.1,0-2.2,0.1-3.2c0-0.7-0.6-1.3-1.4-1.3l0,0l0,0V49.3z M478.9,49.3h5.2v1.2c-0.8,0-1.4,0.6-1.4,1.3c0,1.1,0,2.2,0.1,3.2
			c0,1.1,0,2.2,0,3.2c0,0.7,0.6,1.3,1.3,1.3l0,0h0v2.7h-5.2v-2.7c0.1,0,0.2,0,0.3,0l0,0c0.7,0,1.3-0.6,1.2-1.3
			c0-1.1-0.1-2.2-0.1-3.2c0-1.1-0.1-2.2-0.1-3.2c0-0.7-0.6-1.2-1.3-1.3V49.3z M473.8,49.3h5.1v1.2c-0.1,0-0.1,0-0.2,0l0,0
			c-0.8,0-1.4,0.6-1.3,1.3c0.1,1.1,0.2,2.2,0.2,3.2c0.1,1.1,0.2,2.2,0.2,3.2c0,0.6,0.5,1.1,1.1,1.3v2.7h-5.1v-2.8
			c0.2,0.1,0.4,0.1,0.6,0.1l0,0c0.7,0,1.2-0.6,1.1-1.3c-0.1-1.1-0.2-2.2-0.3-3.2c-0.1-1.1-0.2-2.2-0.3-3.2c-0.1-0.6-0.5-1.1-1.1-1.2
			V49.3z M473.6,62.3c-3.1,0-4.1-1.5-4.5-3.6l-1.6-9.4h6.3v1.3c-0.2-0.1-0.3-0.1-0.5-0.1l0,0c-0.8,0-1.3,0.6-1.2,1.3
			c0.1,1.1,0.3,2.2,0.4,3.2c0.1,1.1,0.3,2.2,0.4,3.2c0.1,0.5,0.4,1,0.9,1.2v2.8H473.6z"/>
	</g>
	<g>
		<polygon fill-rule="evenodd" clip-rule="evenodd" fill="#49807A" points="419.6,80.7 425.3,80.7 425.3,64.3 419.6,70 		"/>
		<polygon fill-rule="evenodd" clip-rule="evenodd" fill="#49807A" points="454.6,80.7 448.9,80.7 448.9,64.3 454.6,70 		"/>
		<polygon fill-rule="evenodd" clip-rule="evenodd" fill="#335E59" points="419.6,70 425.3,64.3 448.9,64.3 454.6,70 		"/>
		<rect x="407.8" y="78.3" fill-rule="evenodd" clip-rule="evenodd" fill="#335E59" width="58.5" height="56.3"/>
	</g>
	<g>
		<path fill-rule="evenodd" clip-rule="evenodd" fill="#FFAE00" d="M504.7,16.7h61.9c1.2,0,2.2,1,2.2,2.2v37.7c0,1.2-1,2.2-2.2,2.2
			h-61.9c-1.2,0-2.2-1-2.2-2.2V18.9C502.5,17.7,503.5,16.7,504.7,16.7z"/>
		<rect x="502.5" y="46.2" fill-rule="evenodd" clip-rule="evenodd" fill="#FFEBBF" width="66.3" height="7.8"/>
		<path fill-rule="evenodd" clip-rule="evenodd" fill="#FFEBBF" d="M507.8,20.6h12.6c0.7,0,1.2,0.5,1.2,1.2v8.4
			c0,0.7-0.5,1.2-1.2,1.2h-12.6c-0.7,0-1.2-0.5-1.2-1.2v-8.4C506.6,21.1,507.1,20.6,507.8,20.6z"/>
	</g>
	<path fill-rule="evenodd" clip-rule="evenodd" fill="#45706B" d="M474.6,68h19.2c0.4,0,0.7,0.3,0.7,0.7v5c0,0.4-0.3,0.7-0.7,0.7
		h-19.2c-0.4,0-0.7-0.3-0.7-0.7v-5C473.8,68.3,474.2,68,474.6,68z"/>
	<g>
		<rect x="480.6" y="77.3" fill-rule="evenodd" clip-rule="evenodd" fill="#71B8B0" width="7.1" height="18.3"/>
		<polygon fill-rule="evenodd" clip-rule="evenodd" fill="#71B8B0" points="484.1,103 492.7,91.8 475.6,91.8 		"/>
	</g>
</g>
<g>
	<g>
		<path fill="#71B8B0" d="M34.3,70.3c-0.2,0.8-0.3,1.7-0.4,2.5c-0.1,0.8-0.2,1.7-0.3,2.5c-0.2,1.7-0.3,3.4-0.3,5.2
			c0,1.8,0.1,3.5,0.3,5.2c0.1,0.9,0.2,1.7,0.3,2.5c0.1,0.8,0.3,1.7,0.4,2.5c0.2,0.8,0.4,1.6,0.6,2.5c0.4,1.6,0.9,3.2,1.5,4.8
			c0.3,0.8,0.6,1.5,0.9,2.3c0.3,0.8,0.7,1.5,1,2.3c0.2,0.4,0.4,0.7,0.5,1.1c0.4,0.7,0.8,1.5,1.2,2.2c1.2,2.1,2.6,4.2,4.1,6.1
			c0.8,1,1.5,1.9,2.4,2.8c0.5,0.6,1.1,1.2,1.7,1.8c0.6,0.6,1.2,1.1,1.8,1.7c2.7,2.5,5.7,4.6,8.9,6.5c0.7,0.4,1.4,0.8,2.2,1.2
			c1.5,0.7,3,1.4,4.5,2c0.8,0.3,1.5,0.6,2.3,0.9c5.1,1.7,10.6,2.7,16.3,2.7c3.9,0,7.7-0.4,11.3-1.3c1.7-0.4,3.4-0.9,5-1.4
			c0.8-0.3,1.6-0.6,2.3-0.9c1.5-0.6,3-1.3,4.5-2c0.7-0.4,1.5-0.8,2.2-1.2c3.2-1.8,6.2-4,8.9-6.5c0.6-0.5,1.2-1.1,1.8-1.7
			c0.6-0.6,1.1-1.2,1.7-1.8c0.8-0.9,1.6-1.8,2.4-2.8c1.2-1.5,2.3-3.1,3.3-4.8c0.3-0.4,0.5-0.9,0.8-1.3c0.4-0.7,0.8-1.4,1.2-2.2
			c0.2-0.4,0.4-0.7,0.6-1.1c0.4-0.7,0.7-1.5,1-2.3c0.3-0.8,0.6-1.5,0.9-2.3c0.6-1.6,1.1-3.2,1.5-4.8c0.2-0.8,0.4-1.6,0.6-2.5
			c0.2-0.8,0.3-1.7,0.5-2.5c0.1-0.8,0.2-1.7,0.3-2.5c0.2-1.7,0.3-3.4,0.3-5.2c0-1.8-0.1-3.5-0.3-5.2c-0.1-0.9-0.2-1.7-0.3-2.5
			c-0.1-0.8-0.3-1.7-0.5-2.5c-0.2-0.8-0.4-1.6-0.6-2.5c-0.4-1.6-0.9-3.2-1.5-4.8c-0.1-0.4-0.3-0.8-0.4-1.2c-0.5-1.2-0.9-2.3-1.5-3.4
			c-0.2-0.4-0.4-0.7-0.5-1.1c-0.4-0.7-0.8-1.5-1.2-2.2c-1.2-2.1-2.6-4.2-4.1-6.1c-0.8-1-1.5-1.9-2.4-2.8c-0.5-0.6-1.1-1.2-1.7-1.8
			c-0.6-0.6-1.2-1.1-1.8-1.7c-1.2-1.1-2.4-2.1-3.6-3c-1.7-1.3-3.4-2.4-5.2-3.5c-0.7-0.4-1.4-0.8-2.2-1.2c-0.3-0.2-0.7-0.3-1-0.5
			c-0.4-0.2-0.8-0.4-1.2-0.6c-0.2-0.1-0.3-0.2-0.5-0.2c-0.6-0.3-1.2-0.5-1.8-0.7c0,0,0,0,0,0c-0.6-0.2-1.3-0.5-1.9-0.7
			c-0.1,0-0.3-0.1-0.4-0.1c-1.5-0.5-3-0.9-4.6-1.3c-0.5-0.1-1-0.2-1.5-0.3c-0.4-0.1-0.7-0.1-1.1-0.2c-2.7-0.5-5.4-0.8-8.2-0.8
			c-0.3,0-0.6,0-0.9,0c-0.5,0-1,0-1.6,0c-5.1,0.2-10.1,1.1-14.7,2.6c-0.8,0.3-1.6,0.6-2.3,0.9c-0.2,0.1-0.5,0.2-0.7,0.3
			c-0.5,0.2-1.1,0.4-1.6,0.7c-0.8,0.3-1.5,0.7-2.2,1.1c-0.7,0.4-1.5,0.8-2.2,1.2c-2.9,1.6-5.5,3.6-8,5.7c-0.3,0.3-0.6,0.5-0.9,0.8
			c-0.6,0.5-1.2,1.1-1.8,1.7c-0.6,0.6-1.1,1.2-1.7,1.8c-0.8,0.9-1.6,1.8-2.4,2.8c-1.5,1.9-2.9,4-4.1,6.1c-0.4,0.7-0.8,1.4-1.2,2.2
			c-0.2,0.4-0.4,0.7-0.5,1.1c-0.5,1.1-1,2.2-1.5,3.4c-0.2,0.4-0.3,0.8-0.4,1.2c-0.6,1.6-1.1,3.2-1.5,4.8
			C34.7,68.6,34.5,69.5,34.3,70.3z"/>
		<path fill-rule="evenodd" clip-rule="evenodd" fill="#A0DED7" d="M112.3,121.8V76.6c0.2,0.1,0.4,0.2,0.6,0.3
			c1.3,0.8,3.1,1.8,3.6,0.6c0.5-1.2,2.2-0.8,3.6-0.5c1.4,0.3,3.9,0.8,5.2,0.6c1.3-0.1,2.6-1.3,2.7-2.5c0.1-1.2-1.7-1.4-3.9-1.4
			c-2.2,0-3.1-0.4-2.7-1.7c0.4-1.3,1-2.5,2.2-3c1.2-0.5,2.2-0.8,3.4-0.8c1.2,0,2.7,0.9,4.2,0.8c1.4-0.1,0.9-1.4-0.5-2.2
			c-1.4-0.8-1.7-1.9-1-2.6c0.6-0.6,0.3-1.3-0.9-0.6c-1.2,0.6-2.9,2.3-3.2,1.3c-0.4-1-3.2-0.1-3.2,1.4c0,1.6,0.4,1.8-0.1,2.9
			c-0.5,1-1.7,1.8-2.7,1.7c-1-0.1,0.1,1.8-0.9,2.3c-1,0.5-1.6-0.8-2.2-2.1c-0.6-1.3-1.2-2.1-1.8-2.9c-0.6-0.8-1-1.2-1.9-1.9
			c-0.1-0.1-0.2-0.1-0.2-0.2V55.5c0.3-0.1,0.6-0.1,1-0.1c1.4,0,2.5,1.2,3.5,0.3c1-0.9-0.8-2.5,0.8-2.5c1.6,0,2.9,0.1,1.7-1
			c-1.2-1.2,0.4-0.5,1.7-1.2c1.3-0.6,1.2-1.7-0.4-1.4c-1.6,0.3-2.9,1.2-3.5-0.4c-0.6-1.6,1.3-3.4,2.3-4.5c0.2-0.3,0.3-0.5,0.2-0.7
			c0.2,0.2,0.4,0.4,0.6,0.6c0.6,0.6,1.1,1.2,1.7,1.8c0.8,0.9,1.6,1.8,2.4,2.8c1.5,1.9,2.9,4,4.1,6.1c0.4,0.7,0.8,1.4,1.2,2.2
			c0.2,0.4,0.4,0.7,0.5,1.1c0.5,1.1,1,2.2,1.5,3.4c0.2,0.4,0.3,0.8,0.4,1.2c0.6,1.6,1.1,3.2,1.5,4.8c0.2,0.8,0.4,1.6,0.6,2.5
			c0.2,0.8,0.3,1.7,0.5,2.5c0.1,0.8,0.2,1.7,0.3,2.5c0.2,1.7,0.3,3.4,0.3,5.2c0,1.8-0.1,3.5-0.3,5.2c-0.1,0.9-0.2,1.7-0.3,2.5
			c-0.1,0.8-0.3,1.7-0.5,2.5c-0.1,0.3-0.1,0.7-0.2,1l0-0.1c-1.2-2.7-3.8-5.7-4.7-8.2c-0.9-2.5-1.8-4-2.7-3.9
			c-0.9,0.1,1.2,4.8,2.1,6.5c0.9,1.7,1.9,4.4,3.5,6c0.5,0.5,1,0.9,1.5,1.2c-0.4,1.6-0.9,3.2-1.5,4.7c-0.3,0.8-0.6,1.5-0.9,2.3
			c-0.3,0.8-0.7,1.5-1,2.3c-0.2,0.4-0.4,0.7-0.6,1.1c-0.4,0.7-0.8,1.5-1.2,2.2c-0.3,0.4-0.5,0.9-0.8,1.3c-1,1.7-2.1,3.2-3.3,4.8
			c-0.8,1-1.5,1.9-2.4,2.8c-0.5,0.6-1.1,1.2-1.7,1.8c-0.6,0.6-1.2,1.1-1.8,1.7c-1.9,1.7-3.8,3.2-5.9,4.6
			C112.4,122.5,112.3,122.2,112.3,121.8L112.3,121.8z M112.3,70.1c0.2,0.6,0.2,1.4,0.2,2.3c0,1.8,1.4-0.6,1.7-1.4
			c0.3-0.8,0.8-2.6-0.3-2.6c-0.8,0-1.1-0.2-1.7-0.8V70.1L112.3,70.1z M112.3,54.1c0.2-0.2,0.4-0.3,0.6-0.3c0.9,0,1.3-1.2,2.3-2.2
			c1-1-0.9-2.3-0.4-3.8c0.5-1.4,2.1-2.1,2.5-3.5c0.2-0.9,1.3-1,1.9-0.7c-0.3-0.3-0.6-0.5-0.8-0.8c-1.2-1.1-2.4-2.1-3.6-3
			c-0.3-0.2-0.6-0.4-0.9-0.6c-0.5,0.4-1.1,1-1.6,1.6V54.1z M112.3,40.8v13.3c-0.6,0.5-1.2,1.4-1.4,0.4c-0.4-1.3-1.2-2.7-2.1-2.1
			c-0.9,0.6-0.8,2.9-1.9,1c-1.2-1.8-2.2-4.4-0.9-5.8c1.3-1.4,3.1-2.6,4.2-4C110.5,42.9,111.3,41.8,112.3,40.8L112.3,40.8z
			 M112.3,55.5c-0.7,0.2-1.3,0.5-2.5,0.5c-1.7,0-1-1.2-2.1-1.2c-1,0-0.8,1.9-1.7,2.9c-0.8,0.8-2.1,1.8-3.4,2.3v10.4
			c0.6-0.2,0.8-1.4,0.4-2.7c-0.4-1.4,2.1-0.9,4.2-0.9c2.1,0,2.3,1.4,3.8,1.9c0.7,0.3,1.1,0.7,1.3,1.3v-2.5c-0.2-0.2-0.3-0.3-0.5-0.5
			c-0.8-0.8-0.3-1.3,0.5-0.8V55.5L112.3,55.5z M112.3,76.6v45.2c-0.1-0.9-0.2-1.8-0.8-2.7c-1.2-1.7-2.3-4.7-1.2-6.2
			c1.2-1.6,1.7-2.7,0.6-3.1c-1-0.4,0.5-2.2-0.9-3.1c-1.4-0.9-2.3-3.4-1.8-4.5c0.5-1.2,0.6-3.1-1-3.1c-1.2,0-3.1-0.7-4.6-0.9V73.4
			c0.8-0.3,1.5-0.6,2.8-0.6c2.5,0,4.3-0.9,4,1C109.2,75.5,110.9,76,112.3,76.6L112.3,76.6z M102.6,59v-1.1c0.3-0.1,0.6,0.1,0.5,0.4
			C103,58.6,102.8,59,102.6,59z M102.6,57.9V59c-0.1,0-0.2-0.1-0.3-0.2c-0.4-0.4-0.3-0.7,0.1-0.9C102.5,57.9,102.5,57.9,102.6,57.9
			L102.6,57.9z M102.6,60v10.4c-0.1,0-0.1,0-0.2,0c-0.2,0-0.4,0-0.7,0V60.3c0.1,0,0.2,0,0.3-0.1C102.2,60.2,102.4,60.1,102.6,60
			L102.6,60z M102.6,73.4v24.7c-0.3,0-0.6,0-0.9,0V73.7C102,73.6,102.3,73.5,102.6,73.4L102.6,73.4z M101.7,54.6v-1.1
			c0.3-0.1,0.6,0.1,0.5,0.4C102.2,54.3,102,54.6,101.7,54.6z M101.7,53.5v1.1c-0.1,0-0.2-0.1-0.3-0.2c-0.4-0.4-0.3-0.7,0.1-0.9
			C101.6,53.6,101.7,53.6,101.7,53.5L101.7,53.5z M101.7,60.3v10.2c-0.6,0.1-1,0.3-0.9,1c0.1,0.9-0.3,0.8-0.9,1.3
			c-0.3,0.2-0.7,0.5-1.1,0.7v-6.2c1.1-0.3,1.7-1.5,0.8-2.4c-1.2-1-0.8-2.5-0.1-3.6C100,60.2,100.4,60.5,101.7,60.3L101.7,60.3z
			 M101.7,73.7v24.4c-0.2,0-0.4,0.1-0.6,0.1c-0.9,0.3-1.6,0.5-2.3,0.7V74.1c0.3-0.1,0.7-0.1,1.1-0.1C100.6,74,101.2,73.8,101.7,73.7
			L101.7,73.7z M98.8,60.3c0.5-0.2,1-0.4,1.5-0.4c1.9,0-0.1-3.2,0.1-4.3c0.3-1,0.2-3.4-1.7-3.4V60.3z M98.8,52.3v8
			c-1.1,0.5-1.9,1.1-2.2-0.2c-0.3-1.9-0.4-1.8,1.3-2.5c1.8-0.7-0.7-5.4,0.6-5.3C98.6,52.3,98.7,52.3,98.8,52.3L98.8,52.3z
			 M98.8,67.2v6.2c-0.5,0.2-1,0.2-1.6-0.2c-0.5-0.3-1.3-0.2-1.9-0.2v-6c1.2,0,1.5,0.3,2.9,0.3C98.3,67.3,98.5,67.3,98.8,67.2
			L98.8,67.2z M98.8,74.1v24.9c-0.7,0.2-1.3,0.4-1.8,0.6c-0.5,0.2-1-0.1-1.7-0.6V75.4c0.2-0.1,0.5-0.2,0.8-0.3
			C97.1,74.9,97.4,74.3,98.8,74.1L98.8,74.1z M95.2,59.7c0.3-0.1,0.6-0.3,0.8-0.8c0.6-1.3,0.6-3.7-0.6-3.5c-0.1,0-0.1,0-0.2,0V59.7
			L95.2,59.7z M95.2,37.4v-1.5c0.1,0,0.2,0,0.3,0c1,0,1.8,1.8,0.4,1.8C95.7,37.7,95.5,37.6,95.2,37.4z M95.2,35.9v1.5
			C94.5,37,94.3,36,95.2,35.9L95.2,35.9z M95.2,55.4v4.3c-0.6,0.2-1.3-0.3-1.1-1.2C94.4,57.2,93.4,55.2,95.2,55.4L95.2,55.4z
			 M95.2,67.1v6c-0.7,0-1.2,0-1.2-0.7c0-1.3-0.9-1.8-0.3-3c0.6-1.2,0-2.3,1.3-2.3L95.2,67.1L95.2,67.1z M95.2,75.4v23.5
			c-1-0.7-2.2-2-3.2-3.1c-0.8-0.8-1.8-1.7-2.6-2.6v-9c0.6-1.1,1-3.8,2.2-4c1.3-0.1,2.2-1.6,2.2-2.7C93.8,76.7,94.4,75.8,95.2,75.4
			L95.2,75.4z M89.4,77c0.2,0,0.5-0.3,0.5-0.6c0.1-0.4-0.2-0.6-0.5-0.4V77L89.4,77z M89.4,46.3v-3.1c1.3,0,1.9,1.2,1.1,2.2
			C90.2,45.7,89.8,46.1,89.4,46.3z M89.4,43.2v3.1c-0.2,0.2-0.5,0.3-0.8,0.4v-3.4C88.9,43.3,89.2,43.2,89.4,43.2L89.4,43.2z
			 M89.4,75.9V77c-0.1,0-0.2-0.1-0.3-0.2c-0.4-0.4-0.3-0.7,0.1-0.9C89.3,75.9,89.3,75.9,89.4,75.9L89.4,75.9z M89.4,84.3v9
			c-0.3-0.4-0.6-0.7-0.8-1v-1.9c1-1,0.6-1.3,0-1.9v-2.8c0.2-0.4,0.5-0.9,0.7-1.2C89.3,84.4,89.4,84.3,89.4,84.3L89.4,84.3z
			 M88.6,80.2v-1.1c0.3-0.1,0.5,0.1,0.4,0.5C89,79.8,88.8,80.1,88.6,80.2z M88.6,43.4v3.4c-1,0.4-2.2,0.5-3.4-0.5l-0.1-0.1v-3.5
			c0.2-0.1,0.4-0.1,0.7,0C87.1,43.4,87.5,43.2,88.6,43.4L88.6,43.4L88.6,43.4z M88.6,79.1v1.1c-0.1,0-0.2,0-0.4-0.2
			c-0.4-0.4-0.3-0.7,0.1-0.9C88.5,79.1,88.5,79.1,88.6,79.1L88.6,79.1z M88.6,85.6v2.8c-0.1-0.1-0.2-0.2-0.2-0.3
			C87.9,87.5,88.2,86.5,88.6,85.6L88.6,85.6z M88.6,90.3v1.9c-0.5-0.7-0.6-1.4-0.1-1.8L88.6,90.3L88.6,90.3z M85.1,31.4v-1.7l0,0
			c0.3,0,0.6,0,0.9,0c0,0.3-0.1,0.7-0.5,1.1C85.4,31,85.2,31.2,85.1,31.4L85.1,31.4z M86.9,76.5c0.4-0.2,0.7,0,0.7,0.4
			c-0.1,0.4-0.4,0.9-0.8,0.5C86.4,77,86.5,76.7,86.9,76.5z M59,59.6c0.1,0,0.2,0,0.3,0c1.5,0,0.4-1-0.3-1.9V59.6L59,59.6z
			 M85.1,29.7v1.7c-0.7,0.9-0.7,1.5-2.1,1.5c-1.7,0,2.1,2.7,0.1,2.7c-2,0-2.6,2.5-0.6,2.2c2-0.2,1.8,0.6-0.2,1.6
			c-2.1,1-5.4,1-6.4,2.6c-1,1.6-4.7,1.5-4.7,3s-0.6,6.9-3.4,5.9c-2.8-1-3.4-3.8-4.6-5.5c-1.1-1.7,0.6-3.6-0.5-4.2
			c-1.1-0.6,2.5-3.4,1.2-2.6c-1.2,0.9-3.2-0.4-1.5-0.7c1.7-0.4,1.1-2.1-0.1-1.7c-0.9,0.3-1.9,0-1.7-0.7l0.4-0.2
			c0.7-0.4,1.5-0.7,2.2-1.1c0.5-0.2,1-0.5,1.6-0.7c0.2-0.1,0.5-0.2,0.7-0.3c0.8-0.3,1.5-0.6,2.3-0.9c4.7-1.6,9.6-2.5,14.7-2.6
			c0.5,0,1,0,1.6,0C84.5,29.7,84.8,29.7,85.1,29.7L85.1,29.7z M85.1,42.7c-1,0.3-1.6,2.2,0,3.5V42.7L85.1,42.7z M59,124.8V96.6
			c1.4,0.9,2.6,1.8,3.7,1.8c1.6,0,1.4,1.6,1.4,3.2c0,1.6,2.1,1.6,4.3,2.3c2.2,0.7,3.2,0.6,5.4,2c2.2,1.4,2.7,2.1,1.6,3.7
			c-1.1,1.6-3.4,4.1-3.6,6.4c-0.1,2.3-1.6,4.6-3.2,4.8c-1.6,0.2-3.1,1.5-3.1,2.6c0,1.1-1.5,0.6-1.6,2.7c0,0.3-0.1,0.7-0.2,1
			c-0.9-0.4-1.8-0.8-2.7-1.3C60.3,125.5,59.6,125.2,59,124.8L59,124.8z M59,63.8v-3.6c0.1,0,0.2,0,0.3,0c1.9-0.1,2.2,1.4,2.8,2.6
			c0.6,1.2,0.2,2.4-1.7,1.6C59.8,64.1,59.4,63.9,59,63.8z M54.8,61.2c0.3,0.3,0.6,0.4,0.9-0.1c0.5-0.8,1.4-1.4,3.3-1.5v-1.9
			c-0.3-0.4-0.5-0.8-0.4-1c0.4-0.9-1.5-1.2-2.5-2.2c-0.7-0.7-0.8-2.5-1.4-3.4V61.2L54.8,61.2z M59,60.2v3.6c-0.9-0.4-1.3-0.8-0.7-2
			C58.9,60.1,58.2,60.1,59,60.2L59,60.2z M59,96.6v28.1l-0.1-0.1c-1.4-0.8-2.7-1.7-4.1-2.6V94.7c0.8,0.1,1.6,0.3,2.5,0.9
			C57.9,95.9,58.4,96.3,59,96.6L59,96.6z M54.8,66.8v-1.6c1-0.1,1.2,1.6,0.2,1.6C54.9,66.8,54.9,66.8,54.8,66.8L54.8,66.8z
			 M54.8,43.8v-1.5C55.2,42.9,55.3,43.6,54.8,43.8z M53.2,65.3c0.1-0.1,0.1-0.1,0.1-0.2c0.7-0.9,0.4-1.8-0.1-2.4V65.3L53.2,65.3z
			 M53.2,60.5c0.4,0,0.7,0,0.9,0.1c0.3,0.2,0.5,0.4,0.7,0.6V51c-0.2-0.4-0.5-0.6-1-0.6c-0.3,0-0.5,0-0.6,0.1V60.5L53.2,60.5z
			 M54.8,42.2v1.5c-0.1,0-0.3,0-0.6,0c-0.4-0.1-0.7-0.2-1-0.2V41c0,0,0.1,0,0.1,0.1C54,41.2,54.5,41.7,54.8,42.2L54.8,42.2z
			 M54.8,65.2v1.6c-0.9-0.2-1.3-1.4-0.2-1.5C54.6,65.2,54.7,65.2,54.8,65.2L54.8,65.2z M54.8,94.7v27.4c-0.5-0.4-1.1-0.8-1.6-1.2
			V94.6C53.7,94.6,54.2,94.6,54.8,94.7L54.8,94.7z M53.2,89.3V89C53.3,89.1,53.3,89.2,53.2,89.3L53.2,89.3z M53.2,67.4
			c0.1,0,0.1,0,0.2,0c0.7,0,0.6-1.2-0.2-1.2V67.4L53.2,67.4z M53.2,48v-2.3C53.9,46.6,53.7,47.5,53.2,48z M50.8,67
			c0.7-0.3,1.6-0.7,2.4-1.7v-2.6c-0.6-0.7-1.5-1.1-2.1-1.1c-1,0,0.8-1,2.1-1.1v-10c-0.6,0.2-0.1,1.1-1.1,1.4c-0.5,0.2-1,0.1-1.3,0
			V67L50.8,67z M53.2,41v2.6c-1.1,0-1.6,0.6-0.3,1.8c0.1,0.1,0.2,0.2,0.3,0.4V48c-0.3,0.2-0.7,0.3-1.1,0.2c-0.3-0.1-0.7-0.3-1.3-0.5
			v-5.6c0.6-0.5,1.2-1,1.9-1.5C52.8,40.7,53,40.9,53.2,41L53.2,41z M53.2,66.2v1.2c-0.6-0.1-0.9-1-0.2-1.1
			C53.1,66.2,53.1,66.2,53.2,66.2L53.2,66.2z M53.2,89v0.3c-0.1,0.1-0.3,0.1-0.6,0.1c-1.5-0.1-2.4-1-0.6-0.8
			C52.5,88.6,53,88.8,53.2,89L53.2,89z M53.2,94.6v26.3c-0.8-0.6-1.6-1.3-2.4-1.9V94.7c0.5,0,1-0.1,1.4-0.1
			C52.5,94.7,52.8,94.6,53.2,94.6z M48.8,68.9c0.2-0.4,0.5-0.8,0.8-1.2c0.3-0.3,0.7-0.5,1.2-0.7V51.8c-0.4-0.2-0.6-0.7-0.6-1.3
			c0-0.5-0.6-1.1-1.4-1.7V68.9L48.8,68.9z M50.8,42.1v5.6c-0.6-0.2-1.3-0.5-2-0.7v-3c0.4-0.4,0.7-0.7,1.1-1
			C50.2,42.6,50.5,42.4,50.8,42.1L50.8,42.1L50.8,42.1z M50.8,94.7V119c-0.3-0.3-0.6-0.5-0.9-0.8c-0.4-0.3-0.7-0.7-1.1-1V94.4
			C49.3,94.8,50.1,94.8,50.8,94.7L50.8,94.7z M48.8,89.2v-1.7c0.1,0,0.3,0,0.4,0c1.1-0.1,1,1.7-0.2,1.7C49,89.2,48.9,89.2,48.8,89.2
			z M44.7,75.2c0.3-0.3,0.6-0.6,0.6-0.9c0-1.1,0.7-4.2,2.1-4.2c0.8,0,1.2-0.5,1.5-1.2V48.8c-1-0.7-2.2-1.3-3.3-1.4
			c-0.3,0.4-0.6,0.7-0.9,1.1V75.2L44.7,75.2z M48.8,43.9v3c-0.8-0.3-1.6-0.5-2.3-0.7c0.5-0.6,1.1-1.2,1.7-1.7
			C48.4,44.3,48.6,44.1,48.8,43.9L48.8,43.9z M48.8,87.5v1.7C47.8,89,46.9,87.7,48.8,87.5L48.8,87.5z M48.8,94.4v22.8
			c-0.1-0.1-0.3-0.3-0.4-0.4c-0.5-0.6-1.2-1.5-1.9-1.9l-0.1-0.1c-0.6-0.7-1.3-1.4-1.9-2.1V94.8c0.5,0,1,0,1.4-0.2
			c1-0.6,2-1.8,2.5-0.6C48.6,94.1,48.7,94.2,48.8,94.4L48.8,94.4z M44.7,87v-1c1,0.2,1.6,1,0.5,1C45,87,44.8,87,44.7,87L44.7,87z
			 M44.7,84v-1.4c1.1,0.6,1.8,2.1,1,1.6C45.2,84,44.9,83.9,44.7,84z M41.5,81.8c0.4,0.2,0.6-0.1,0.6-1.1c0-1.7-0.5-2.7,0.1-3.7
			c0.4-0.7,1.7-1.2,2.4-1.9V48.5c-0.2,0.2-0.3,0.4-0.5,0.6c-0.4,0.5-0.7,1-1.1,1.5c0.1,0.4,0.1,0.9,0.2,1.3c0.4,1.7,1.2,3,0.2,3
			c-1,0-1,1.5-1.1,3.8c-0.1,1.2-0.5,1-0.9,0.4V81.8L41.5,81.8z M44.7,82.6V84c-0.6,0.1-1,0.5-1.5,0.2c-0.7-0.4-0.5-1.6,0.6-1.8
			C44.1,82.4,44.4,82.5,44.7,82.6L44.7,82.6z M44.7,86v1c-1-0.2-1.6-1-0.5-1C44.3,85.9,44.5,86,44.7,86L44.7,86z M44.7,94.8v17.8
			l-0.1-0.1c0-0.1,0-0.3,0-0.4c0-1-2.1-2.6-3.1-4V103c0,0,0.1,0,0.1-0.1c1.4-0.6,0.7-2.5,2.1-2.8c1.4-0.4,0.5-1.8,0-2.8
			c-0.3-0.5-1.2-0.5-2.2-0.5v-1.9c0.3,0.1,0.6,0.1,0.9,0C43,94.6,43.8,94.7,44.7,94.8L44.7,94.8z M41.5,85.7v-1.3
			c1.1,0.2,1.7,1.5,0.4,1.4C41.8,85.8,41.7,85.8,41.5,85.7z M34.3,70.3c-0.2,0.8-0.3,1.7-0.4,2.5c-0.1,0.8-0.2,1.7-0.3,2.5
			c-0.1,1.4-0.2,2.8-0.3,4.2c0.6,0,1.2,0.1,1.7-0.1c1.2-0.5,3.6-1.1,5,0.9c0.7,0.9,1.1,1.4,1.5,1.6V59c-0.4-0.6-0.7-1.6-0.7-2.1
			c0-0.5-0.4-0.8-1.1-1.1c-0.3,0.5-0.6,1.1-0.9,1.6c-0.2,0.4-0.4,0.7-0.5,1.1c-0.5,1.1-1,2.2-1.5,3.4c-0.2,0.4-0.3,0.8-0.4,1.2
			c-0.6,1.6-1.1,3.2-1.5,4.8C34.7,68.6,34.5,69.5,34.3,70.3L34.3,70.3z M41.5,84.5v1.3c-1.1-0.3-1.7-1.5-0.4-1.3
			C41.3,84.4,41.4,84.4,41.5,84.5L41.5,84.5z M41.5,94.8c-0.8-0.2-1.6-0.9-2.1-1.8c-0.7-1.2,0.5-2.6-1.4-2.6c-1.8,0-0.6-4.1-0.6-5.4
			c0-1.2-2.5,0.9-3.8,2.2c0,0.3,0.1,0.7,0.1,1c0.1,0.8,0.3,1.7,0.4,2.5c0.1,0.3,0.1,0.6,0.2,0.9c0.7,0.4,1.4,0.7,2.2,0.7
			c2.1,0,2.2,2.8,2.8,3.8c0.3,0.5,1.1,0.5,2,0.5V94.8L41.5,94.8z M41.5,103v5.2c-0.2-0.2-0.3-0.4-0.4-0.6
			C40.4,106.1,40.3,103.7,41.5,103z"/>
	</g>
	<g>
		<path fill-rule="evenodd" clip-rule="evenodd" fill="#ED5C1B" d="M96.3,8.2c-11.3,0-20.5,9.2-20.5,20.5c0,2.4,0.6,5.7,1.6,7.8
			l18.9,43.9l19-44.1c0.8-1.9,1.5-5.2,1.5-7.6C116.8,17.4,107.6,8.2,96.3,8.2z"/>
		<path fill-rule="evenodd" clip-rule="evenodd" fill="#FFFDFA" d="M96.3,45.5c9.3,0,16.8-7.5,16.8-16.8s-7.5-16.8-16.8-16.8
			c-9.3,0-16.8,7.5-16.8,16.8S87,45.5,96.3,45.5z"/>
	</g>
	<g>
		<path fill-rule="evenodd" clip-rule="evenodd" fill="#FFAE00" d="M51.8,58.5c-6.6,0-11.9,5.3-11.9,11.9c0,1.4,0.4,3.3,0.9,4.6
			l11,25.5l11-25.6c0.5-1.1,0.9-3,0.9-4.4C63.7,63.8,58.3,58.5,51.8,58.5z"/>
		<path fill-rule="evenodd" clip-rule="evenodd" fill="#FFFDFA" d="M51.8,80.1c5.4,0,9.8-4.4,9.8-9.8c0-5.4-4.4-9.8-9.8-9.8
			c-5.4,0-9.8,4.4-9.8,9.8C42,75.7,46.4,80.1,51.8,80.1z"/>
	</g>
</g>
<g>
	<path fill-rule="evenodd" clip-rule="evenodd" fill="#E03D14" d="M648.6,250.6c-0.5-0.4-1.1-0.5-1.7-0.3v1.5
		c0.4-0.2,0.7-0.3,0.9-0.1c0.3,0.3,0.1,0.9-0.4,1.6c-0.2,0.2-0.4,0.4-0.6,0.5v2.4c1.9,0.8,3.9,0.7,4.9-0.2c-0.4,0.5,1.4-2.4,0.8-2
		c-1.4,0.9-3.3,1.3-4.9,1c0.3-0.2,0.6-0.4,0.8-0.7C649.5,253,649.5,251.4,648.6,250.6z M646.8,250.3c-0.6,0.1-1.2,0.5-1.7,1.1
		c-0.3,0.4-0.5,0.8-0.6,1.2c-0.6-1.1-1-2.6-0.8-4.6c-1.5,4.4,0.7,7.1,3.1,8.1v-2.4c-0.4,0.2-0.7,0.3-0.9,0.1
		c-0.3-0.3-0.1-0.9,0.4-1.6c0.2-0.2,0.4-0.4,0.6-0.5V250.3z"/>
	<g>
		<path fill-rule="evenodd" clip-rule="evenodd" fill="#FFAE00" d="M610.8,264.6h52.5c1,0,1.9,0.8,1.9,1.9v31.9c0,1-0.8,1.9-1.9,1.9
			h-52.5c-1,0-1.9-0.8-1.9-1.9v-31.9C609,265.4,609.8,264.6,610.8,264.6z"/>
		<rect x="609" y="289.6" fill-rule="evenodd" clip-rule="evenodd" fill="#FFEBBF" width="56.2" height="6.6"/>
		<path fill-rule="evenodd" clip-rule="evenodd" fill="#FFEBBF" d="M613.5,267.8h10.7c0.6,0,1,0.5,1,1v7.1c0,0.6-0.5,1-1,1h-10.7
			c-0.6,0-1-0.5-1-1v-7.1C612.5,268.3,612.9,267.8,613.5,267.8z"/>
	</g>
	<g>
		<rect x="686.7" y="233.3" fill-rule="evenodd" clip-rule="evenodd" fill="#FFAE00" width="79.8" height="36.3"/>
		<rect x="688.8" y="235.8" fill-rule="evenodd" clip-rule="evenodd" fill="#FFEBBF" width="75.5" height="31.3"/>
		<path fill-rule="evenodd" clip-rule="evenodd" fill="#FFAE00" d="M755.2,233.3h11.2v11.2C760.2,244.6,755.2,239.5,755.2,233.3z"/>
		<path fill-rule="evenodd" clip-rule="evenodd" fill="#FFAE00" d="M697.9,269.6h-11.2v-11.2C692.9,258.3,697.9,263.4,697.9,269.6z"
			/>
		<path fill-rule="evenodd" clip-rule="evenodd" fill="#FFAE00" d="M726.6,263.2c6.5,0,11.8-5.3,11.8-11.8c0-6.5-5.3-11.8-11.8-11.8
			c-6.5,0-11.8,5.3-11.8,11.8C714.8,257.9,720.1,263.2,726.6,263.2z"/>
		<text transform="matrix(1 0 0 1 690.2703 245.2305)" fill="#FFAE00" font-family="'Arial-BoldMT'" font-size="8.7344">100</text>
		<text transform="matrix(1 0 0 1 748.6365 266.3066)" fill="#FFAE00" font-family="'Arial-BoldMT'" font-size="8.7344">100</text>
		<path fill="#FFEBBF" d="M728.4,244.2c0.6,0.2,1.2,0.5,1.6,0.9c0.6,0.6,1,1.3,1.1,2.2l-2.4,0.3c-0.1-0.3-0.2-0.6-0.3-0.8V244.2
			L728.4,244.2z M728.4,250c1.1,0.4,1.8,0.8,2.3,1.3c0.5,0.6,0.8,1.5,0.8,2.5c0,1.1-0.3,2.1-1,2.8c-0.5,0.6-1.2,1-2.1,1.3v-2.2
			c0.1-0.1,0.2-0.2,0.3-0.3c0.3-0.3,0.4-0.8,0.4-1.2c0-0.4-0.1-0.8-0.4-1.1c-0.1-0.1-0.3-0.3-0.4-0.4V250z M726.2,255.9V252
			c-0.2-0.1-0.4-0.1-0.6-0.2v-2.8c0.2,0.1,0.4,0.3,0.6,0.4v-3.2c-0.2,0.1-0.4,0.2-0.6,0.3v-2.3c0.2,0,0.4-0.1,0.6-0.1v-0.9h1.4v0.9
			c0.3,0,0.5,0.1,0.8,0.2v2.6c-0.2-0.3-0.5-0.5-0.8-0.6v3.7c0.3,0.1,0.5,0.2,0.8,0.2v2.7c-0.2-0.1-0.5-0.2-0.8-0.3v3.6
			c0.3-0.1,0.6-0.2,0.8-0.3v2.2c-0.3,0.1-0.5,0.1-0.8,0.2v1.7h-1.4v-1.7c-0.2,0-0.4-0.1-0.6-0.1v-2.6
			C725.8,255.6,726,255.8,726.2,255.9z M725.6,251.8c-0.9-0.3-1.6-0.8-2.1-1.4c-0.6-0.7-0.9-1.6-0.9-2.6c0-1,0.3-1.9,1-2.6
			c0.5-0.6,1.2-0.9,2-1.1v2.3c-0.1,0.1-0.2,0.2-0.3,0.3c-0.2,0.3-0.3,0.6-0.3,1c0,0.3,0.1,0.6,0.3,0.9c0.1,0.1,0.2,0.2,0.3,0.3
			V251.8L725.6,251.8z M725.6,258c-0.8-0.2-1.5-0.6-2-1.1c-0.7-0.7-1.1-1.6-1.3-2.8l2.4-0.3c0.1,0.5,0.3,0.9,0.6,1.3
			c0.1,0.1,0.2,0.3,0.3,0.4V258z"/>
	</g>
	<polygon fill-rule="evenodd" clip-rule="evenodd" fill="#E03D14" points="672.9,305.2 680.5,305.2 680.5,292.3 702.8,292.3 
		701.3,305.2 710.1,305.2 710.1,284.9 663.2,284.9 666.7,305 	"/>
	<path fill-rule="evenodd" clip-rule="evenodd" fill="#FC6E4B" d="M649.2,258.5c-5,23.9,10,42.6,16.7,46.6h6.9l-0.1-9.2
		c5.2,2,12.1,3.1,19.3,2.7v6.5h9.2c7.7-4.4,19.1-23.7,31.3-25.3c3-0.2,5.4-3.5,5.9-7.8c0.2-1.1,0.2-2.3,0-3.4c-0.4-2.3-1-4-1.9-5.2
		c-1.1-1.6-2.6-2.6-4.3-2.6c-4.7-0.1-9.2-8-11.2-11C705.1,225.7,656.6,223.5,649.2,258.5z"/>
	<path fill-rule="evenodd" clip-rule="evenodd" fill="#E03D14" d="M691.8,247.7c1.1,8.5,10.5,11.9,22.4,3.8
		c7.7-5.3,9.5-7.9-0.4-10.5C706.3,239,690.1,234.6,691.8,247.7z"/>
	<path fill-rule="evenodd" clip-rule="evenodd" fill="#E03D14" d="M733.4,278.5c2.5,0,4.5-3.7,4.5-8.1c0-4.5-2-8.1-4.5-8.1
		c-2.5,0-4.5,3.7-4.5,8.1C728.9,274.9,730.9,278.5,733.4,278.5z"/>
	<path fill-rule="evenodd" clip-rule="evenodd" fill="#FC6E4B" d="M732.1,272.2c0.5,0,0.9-1,0.9-2.3c0-1.3-0.4-2.3-0.9-2.3
		c-0.5,0-0.9,1-0.9,2.3C731.2,271.2,731.6,272.2,732.1,272.2z"/>
	<path fill-rule="evenodd" clip-rule="evenodd" fill="#335E59" d="M678.8,236.5c7.6-2,18.1,1.1,20.2,2.1l1.5-2.2
		c-1.4-1.2-13.2-4.7-21.8-2.4L678.8,236.5z"/>
	<path fill-rule="evenodd" clip-rule="evenodd" fill="#E03D14" d="M699.6,237.8l1-1.4c-1.4-1.2-13.2-4.7-21.8-2.4l0,1.3
		C688.4,233.8,695.2,236.1,699.6,237.8z"/>
	<path fill-rule="evenodd" clip-rule="evenodd" fill="#335E59" d="M714,258.3c1,0,1.9-0.8,1.9-1.9c0-1-0.8-1.9-1.9-1.9
		c-1,0-1.9,0.8-1.9,1.9C712.1,257.5,713,258.3,714,258.3z"/>
	<path fill-rule="evenodd" clip-rule="evenodd" fill="#FC6E4B" d="M692.9,247.6c0.9,7.4,9.2,10.4,19.5,3.3c6.7-4.6,8.3-6.9-0.3-9.2
		C705.5,240,691.4,236.2,692.9,247.6z"/>
	<g>
		<path fill-rule="evenodd" clip-rule="evenodd" fill="#FFAE00" d="M687.2,234.7c5.5,0,9.9-4.5,9.9-9.9c0-5.5-4.5-9.9-9.9-9.9
			c-5.5,0-9.9,4.5-9.9,9.9C677.3,230.3,681.8,234.7,687.2,234.7z"/>
		<path fill-rule="evenodd" clip-rule="evenodd" fill="#FFEBBF" d="M687.2,233.2c4.6,0,8.4-3.8,8.4-8.4c0-4.6-3.8-8.4-8.4-8.4
			c-4.6,0-8.4,3.8-8.4,8.4C678.8,229.4,682.6,233.2,687.2,233.2z"/>
		<path fill="#FFAE00" d="M684.4,226.4c0.5,0.5,0.9,0.9,1.4,1.2c0.5,0.3,1,0.4,1.4,0.4c0.4,0,0.7-0.1,1-0.3c0.3-0.2,0.4-0.5,0.4-0.9
			c0-0.4-0.1-0.7-0.3-0.9c-0.2-0.2-0.7-0.4-1.5-0.6c-1.2-0.3-2-0.7-2.5-1.2c-0.5-0.5-0.7-1.2-0.7-2c0-1.1,0.3-1.9,1-2.6
			c0.7-0.7,1.6-1,2.8-1.2v-1.1h1l0,1.1c0.5,0,0.9,0.2,1.4,0.3c0.4,0.2,0.9,0.4,1.3,0.7l-1,2.3c-0.4-0.3-0.7-0.5-1.1-0.7
			c-0.4-0.2-0.8-0.2-1.1-0.2c-0.4,0-0.7,0.1-0.9,0.3c-0.2,0.2-0.4,0.4-0.4,0.7c0,0.3,0.1,0.5,0.3,0.7c0.2,0.2,0.6,0.3,1.2,0.5l0.1,0
			c1.3,0.4,2.2,0.7,2.6,1.2c0.3,0.3,0.5,0.6,0.6,1c0.1,0.4,0.2,0.8,0.2,1.3c0,1.1-0.3,2-1,2.8c-0.7,0.7-1.6,1.2-2.7,1.3v1.9h-1v-1.9
			c-0.8,0-1.4-0.2-2.1-0.4c-0.6-0.3-1.2-0.7-1.8-1.3L684.4,226.4z"/>
	</g>
	<g>
		<path fill-rule="evenodd" clip-rule="evenodd" fill="#FFAE00" d="M674,217.4c5.5,0,9.9-4.5,9.9-9.9c0-5.5-4.5-9.9-9.9-9.9
			c-5.5,0-9.9,4.5-9.9,9.9C664.1,212.9,668.5,217.4,674,217.4z"/>
		<path fill-rule="evenodd" clip-rule="evenodd" fill="#FFEBBF" d="M674,215.9c4.6,0,8.4-3.8,8.4-8.4c0-4.6-3.8-8.4-8.4-8.4
			c-4.6,0-8.4,3.8-8.4,8.4C665.6,212.1,669.4,215.9,674,215.9z"/>
		<path fill="#FFAE00" d="M671.1,209.1c0.5,0.5,0.9,0.9,1.4,1.2c0.5,0.3,1,0.4,1.4,0.4c0.4,0,0.7-0.1,1-0.3c0.3-0.2,0.4-0.5,0.4-0.9
			c0-0.4-0.1-0.7-0.3-0.9c-0.2-0.2-0.7-0.4-1.5-0.6c-1.2-0.3-2-0.7-2.5-1.2c-0.5-0.5-0.7-1.2-0.7-2c0-1.1,0.3-1.9,1-2.6
			c0.7-0.7,1.6-1,2.8-1.2v-1.1h1l0,1.1c0.5,0,0.9,0.2,1.4,0.3c0.4,0.2,0.9,0.4,1.3,0.7l-1,2.3c-0.4-0.3-0.7-0.5-1.1-0.7
			c-0.4-0.2-0.8-0.2-1.1-0.2c-0.4,0-0.7,0.1-0.9,0.3c-0.2,0.2-0.4,0.4-0.4,0.7c0,0.3,0.1,0.5,0.3,0.7c0.2,0.2,0.6,0.3,1.2,0.5l0.1,0
			c1.3,0.4,2.2,0.7,2.6,1.2c0.3,0.3,0.5,0.6,0.6,1c0.1,0.4,0.2,0.8,0.2,1.3c0,1.1-0.3,2-1,2.8c-0.7,0.7-1.6,1.2-2.7,1.3v1.9h-1v-1.9
			c-0.8,0-1.4-0.2-2.1-0.4c-0.6-0.3-1.2-0.7-1.8-1.3L671.1,209.1z"/>
	</g>
	<g>
		<path fill-rule="evenodd" clip-rule="evenodd" fill="#FFAE00" d="M704.8,221.1c5.5,0,9.9-4.5,9.9-9.9c0-5.5-4.5-9.9-9.9-9.9
			c-5.5,0-9.9,4.5-9.9,9.9C694.8,216.6,699.3,221.1,704.8,221.1z"/>
		<path fill-rule="evenodd" clip-rule="evenodd" fill="#FFEBBF" d="M704.8,219.5c4.6,0,8.4-3.8,8.4-8.4c0-4.6-3.8-8.4-8.4-8.4
			c-4.6,0-8.4,3.8-8.4,8.4C696.4,215.7,700.1,219.5,704.8,219.5z"/>
		<path fill="#FFAE00" d="M701.9,212.8c0.5,0.5,0.9,0.9,1.4,1.2c0.5,0.3,1,0.4,1.4,0.4c0.4,0,0.7-0.1,1-0.3c0.3-0.2,0.4-0.5,0.4-0.9
			c0-0.4-0.1-0.7-0.3-0.9c-0.2-0.2-0.7-0.4-1.5-0.6c-1.2-0.3-2-0.7-2.5-1.2c-0.5-0.5-0.7-1.2-0.7-2c0-1.1,0.3-1.9,1-2.6
			c0.7-0.7,1.6-1,2.8-1.2v-1.1h1l0,1.1c0.5,0,0.9,0.2,1.4,0.3c0.4,0.2,0.9,0.4,1.3,0.7l-1,2.3c-0.4-0.3-0.7-0.5-1.1-0.7
			c-0.4-0.2-0.8-0.2-1.1-0.2c-0.4,0-0.7,0.1-0.9,0.3c-0.2,0.2-0.3,0.4-0.3,0.7c0,0.3,0.1,0.5,0.3,0.7c0.2,0.2,0.6,0.3,1.2,0.5l0.1,0
			c1.3,0.4,2.2,0.7,2.6,1.2c0.3,0.3,0.5,0.6,0.6,1c0.1,0.4,0.2,0.8,0.2,1.3c0,1.1-0.3,2-1,2.8c-0.7,0.7-1.6,1.2-2.7,1.3v1.9h-1v-1.9
			c-0.8,0-1.4-0.2-2.1-0.4c-0.6-0.3-1.2-0.7-1.8-1.3L701.9,212.8z"/>
	</g>
	<path fill-rule="evenodd" clip-rule="evenodd" fill="#FC6E4B" d="M735.7,272.2c0.5,0,0.9-1,0.9-2.3c0-1.3-0.4-2.3-0.9-2.3
		c-0.5,0-0.9,1-0.9,2.3C734.7,271.2,735.2,272.2,735.7,272.2z"/>
	<path fill-rule="evenodd" clip-rule="evenodd" fill="#FF9D85" d="M651.4,278c-4.2-12.9-0.5-35.2,13.6-39.1
		C651.7,248.1,651,270.4,651.4,278z"/>
	<path fill-rule="evenodd" clip-rule="evenodd" fill="#FF9D85" d="M694,249.4c-1.2-3.7,0.5-9.2,5.6-9.1
		C695.2,242.3,693.9,247.2,694,249.4z"/>
</g>
<g>
	<g>
		<polygon fill-rule="evenodd" clip-rule="evenodd" fill="#335E59" points="71.6,292 94.5,292 105.3,311.5 60.9,311.5 		"/>
		<path fill-rule="evenodd" clip-rule="evenodd" fill="#335E59" d="M29,208h108.1c3,0,5.5,2.5,5.5,5.5v77.9c0,3-2.5,5.5-5.5,5.5H29
			c-3,0-5.5-2.5-5.5-5.5v-77.9C23.5,210.5,26,208,29,208z"/>
		<g>
			<circle fill-rule="evenodd" clip-rule="evenodd" fill="#71B8B0" cx="135.9" cy="292" r="0.7"/>
			<circle fill-rule="evenodd" clip-rule="evenodd" fill="#71B8B0" cx="133.1" cy="292" r="0.7"/>
			<circle fill-rule="evenodd" clip-rule="evenodd" fill="#71B8B0" cx="130.3" cy="292" r="0.7"/>
		</g>
		<path fill-rule="evenodd" clip-rule="evenodd" fill="#71B8B0" d="M17.1,305.6H149c1.6,0,2.9,1.3,2.9,2.9l0,0
			c0,1.6-1.3,2.9-2.9,2.9H17.1c-1.6,0-2.9-1.3-2.9-2.9l0,0C14.2,306.9,15.5,305.6,17.1,305.6z"/>
		<path fill-rule="evenodd" clip-rule="evenodd" fill="#335E59" d="M152,308.5c0,1.6-1.3,2.9-2.9,2.9H17.1c-1.6,0-2.9-1.3-2.9-2.9
			H152z"/>
		<rect x="27.2" y="211.2" fill-rule="evenodd" clip-rule="evenodd" fill="#FFFDFA" width="111.8" height="75.8"/>
	</g>
	<path fill="#71B8B0" d="M82,222.1c0.9,0,1.7,0,2.6,0.1l1.2-3.8l8.1,2.5l-1.2,3.8c2.9,1.5,5.4,3.6,7.4,6.1l3.5-1.9l4,7.4l-3.5,1.9
		c1,3,1.3,6.3,0.9,9.6l3.8,1.2l-2.5,8.1l-3.8-1.2c-1.5,2.9-3.6,5.4-6.1,7.4l1.9,3.5l-7.4,4l-1.9-3.5c-2.2,0.7-4.6,1.1-7,1.1v-6
		c7.3,0,14.1-4.7,16.3-12.1c2.7-9-2.3-18.6-11.4-21.3c-1.7-0.5-3.3-0.7-5-0.7V222.1z M67.6,227.2l-1.9-3.5l7.4-4l1.9,3.5
		c2.2-0.7,4.6-1.1,7-1.1v6c-7.3,0-14.1,4.7-16.3,12.1c-2.7,9,2.3,18.6,11.4,21.3l0,0c1.7,0.5,3.3,0.7,5,0.7v6c-0.9,0-1.7,0-2.6-0.1
		l-1.2,3.8l-8.1-2.5l1.2-3.8c-2.9-1.5-5.4-3.6-7.4-6.1l-3.5,1.9l-4-7.4l3.5-1.9c-1-3-1.3-6.3-0.9-9.6l-3.8-1.2l2.5-8.1l3.8,1.2
		C63,231.7,65.1,229.2,67.6,227.2z"/>
	<g>
		
			<rect x="42.5" y="190.7" transform="matrix(-0.5626 0.8268 -0.8268 -0.5626 262.9309 307.8333)" fill-rule="evenodd" clip-rule="evenodd" fill="#FFAE00" width="15.1" height="65.5"/>
		
			<rect x="20.2" y="218.9" transform="matrix(-0.8267 -0.5626 0.5626 -0.8267 -34.3345 436.3764)" fill-rule="evenodd" clip-rule="evenodd" fill="#FFEBBF" width="59.6" height="9.2"/>
		<path fill-rule="evenodd" clip-rule="evenodd" fill="#FFAE00" d="M10.7,185.2c5.6-2.5,12.3-2.2,17.8,1.5c8.3,5.7,10.5,17,4.8,25.3
			c-5.7,8.3-17,10.5-25.3,4.8c-5.4-3.7-8.2-9.8-8-16l8.5,5.8l4.5,3.1l4.9-2.4l4.9-2.4l0.4-5.5l0.4-5.5l-4.5-3.1L10.7,185.2z"/>
		<path fill-rule="evenodd" clip-rule="evenodd" fill="#FFAE00" d="M100,246c0.3-6.1-2.5-12.3-8-16c-8.3-5.7-19.7-3.5-25.3,4.8
			c-5.7,8.3-3.5,19.7,4.8,25.3c5.4,3.7,12.2,4.1,17.8,1.5l-8.5-5.8l-4.5-3.1l0.4-5.5l0.4-5.5l4.9-2.4l4.9-2.4l4.5,3.1L100,246z"/>
		<path fill-rule="evenodd" clip-rule="evenodd" fill="#FFEBBF" d="M96.2,239.8c-1.1-2.9-3.1-5.5-5.8-7.4c-7-4.8-16.5-2.9-21.2,4
			c-4.8,7-2.9,16.5,4,21.2c2.7,1.8,5.8,2.7,9,2.6l-9-6.1l1.1-14.3l12.9-6.2L96.2,239.8z"/>
		<path fill-rule="evenodd" clip-rule="evenodd" fill="#FFEBBF" d="M3.8,207c1.1,2.9,3.1,5.5,5.8,7.4c7,4.8,16.5,2.9,21.2-4
			c4.8-7,2.9-16.5-4-21.2c-2.7-1.8-5.8-2.7-9-2.6l9,6.1l-1.1,14.3l-12.9,6.2L3.8,207z"/>
	</g>
	<path fill="#D6FFFA" d="M117.8,251.5l-2.1-5l10.5-4.5l2.1,5c3.4-0.8,7-1,10.6-0.6v8.3c-10.5-1.7-21.2,4-25.3,14.3
		c-2.4,6.1-2.1,12.5,0.4,18.1H99.8l-0.2-0.4l5-2.1c-1-4.2-1-8.6-0.2-13l-5-2l4.2-10.6l5,2C111.1,257,114.2,253.9,117.8,251.5z"/>
	<path fill="#D6FFFA" d="M27.2,261L27.2,261l0-4.5l5.6-3l1.9,3.5c3-1,6.3-1.3,9.6-0.9l1.2-3.8l8.1,2.5l-1.2,3.8
		c2.9,1.5,5.4,3.6,7.4,6.1l3.5-1.9l4,7.4l-3.5,1.9c1,3,1.3,6.3,0.9,9.6l3.8,1.2l-1.3,4.2H56.7c0.5-0.9,0.9-2,1.2-3
		c2.7-9-2.3-18.6-11.4-21.3c-7.5-2.3-15.4,0.9-19.4,7.3L27.2,261L27.2,261z"/>
	<path fill="#FC6E4B" d="M109.5,245c2.4,0,4.8,0.5,7.2,1.5l1.7-2.6l5.5,3.7l-1.7,2.6c1.9,1.8,3.3,3.9,4.2,6.3l3.1-0.6l1.3,6.5
		l-3.1,0.6c0,2.5-0.4,5-1.5,7.4l2.6,1.7l-3.7,5.5l-2.6-1.7c-1.8,1.9-3.9,3.3-6.3,4.2l0.6,3.1l-6.5,1.3l-0.6-3.1l-0.2,0v-4.7
		c4.3,0,8.6-2.1,11.1-6c4.1-6.2,2.5-14.5-3.7-18.6c-2.3-1.5-4.9-2.3-7.4-2.3V245z M102.8,246.3l-0.6-3.1l6.5-1.3l0.6,3.1l0.2,0v4.7
		c-4.3,0-8.6,2.1-11.1,6c-4.1,6.2-2.5,14.5,3.7,18.6l0,0c2.3,1.5,4.9,2.3,7.4,2.3v4.7c-2.4,0-4.9-0.5-7.2-1.5l-1.7,2.6l-5.5-3.7
		l1.7-2.6c-1.9-1.8-3.3-3.9-4.2-6.3l-3.1,0.6l-1.3-6.5l3.1-0.6c0-2.5,0.4-5,1.5-7.4l-2.6-1.7l3.7-5.5l2.6,1.7
		C98.4,248.6,100.5,247.2,102.8,246.3z"/>
</g>
<g>
	<g>
		<path fill-rule="evenodd" clip-rule="evenodd" fill="#335E59" d="M234.2,202.7h103.9c2.1,0,3.9,1.7,3.9,3.9v65.6
			c0,2.1-1.7,3.9-3.9,3.9H234.2c-2.1,0-3.9-1.7-3.9-3.9v-65.6C230.3,204.5,232.1,202.7,234.2,202.7z"/>
		<rect x="236.1" y="210.4" fill-rule="evenodd" clip-rule="evenodd" fill="#FFAE00" width="100.1" height="53.7"/>
		<circle fill-rule="evenodd" clip-rule="evenodd" fill="#D6FFFA" cx="286.2" cy="206.7" r="1.4"/>
		<rect x="283.8" y="267.4" fill-rule="evenodd" clip-rule="evenodd" fill="#D6FFFA" width="4.7" height="4.7"/>
		<polygon fill-rule="evenodd" clip-rule="evenodd" fill="#D6FFFA" points="230.3,276.1 342,276.1 361.4,288.8 210.9,288.8 		"/>
		<path fill-rule="evenodd" clip-rule="evenodd" fill="#335E59" d="M210.9,288.8h150.4v4.3c0,1.5-1.3,2.8-2.8,2.8H213.7
			c-1.5,0-2.8-1.3-2.8-2.8V288.8z"/>
		<rect x="271" y="292.5" fill-rule="evenodd" clip-rule="evenodd" fill="#D6FFFA" width="30.4" height="1.9"/>
		<rect x="210.9" y="288.8" fill-rule="evenodd" clip-rule="evenodd" fill="#D6FFFA" width="150.4" height="2.2"/>
	</g>
	<g>
		<polygon fill-rule="evenodd" clip-rule="evenodd" fill="#71B8B0" points="233.2,278.1 339.1,278.1 352.2,286.7 220.2,286.7 		"/>
		<g>
			<rect x="285.2" y="277.3" fill="#D6FFFA" width="1.4" height="10.2"/>
			<polygon fill="#D6FFFA" points="300.2,277.1 302.8,287.3 301.4,287.7 298.8,277.5 			"/>
			
				<rect x="309.2" y="281.7" transform="matrix(-0.4475 -0.8943 0.8943 -0.4475 203.2672 690.3574)" fill="#D6FFFA" width="11.4" height="1.4"/>
			
				<rect x="322.6" y="281.7" transform="matrix(-0.6173 -0.7867 0.7867 -0.6173 310.008 715.5699)" fill="#D6FFFA" width="12.9" height="1.4"/>
			<rect x="226.3" y="279.6" fill="#D6FFFA" width="119.4" height="1.4"/>
			<polygon fill="#D6FFFA" points="273.1,277.5 270.5,287.7 269.1,287.3 271.7,277.1 			"/>
			
				<rect x="251.3" y="281.7" transform="matrix(0.4474 -0.8943 0.8943 0.4474 -110.5197 385.8923)" fill="#D6FFFA" width="11.4" height="1.4"/>
			
				<rect x="236.4" y="281.7" transform="matrix(0.6172 -0.7868 0.7868 0.6172 -129.2077 299.1766)" fill="#D6FFFA" width="12.9" height="1.4"/>
			<rect x="221.9" y="283.1" fill="#D6FFFA" width="130" height="1.4"/>
		</g>
	</g>
	<g>
		<g>
			<path fill-rule="evenodd" clip-rule="evenodd" fill="#FFEBBF" d="M260.7,218.5c11.7,0,10.1,20.3,0,20.3
				C250.6,238.8,249,218.5,260.7,218.5z"/>
			<path fill-rule="evenodd" clip-rule="evenodd" fill="#FFEBBF" d="M267.2,238.1c7.3,2.5,11.1,9.5,11.9,18.2h-36.7
				c0.9-8.6,4.6-15.6,11.9-18.2c1.6,1.8,3.8,2.9,6.4,2.9C263.4,241,265.6,239.9,267.2,238.1z"/>
		</g>
		<path fill-rule="evenodd" clip-rule="evenodd" fill="#FFFFFF" d="M285.7,247.9h42c0.5,0,0.9,0.4,0.9,0.9v6.4
			c0,0.5-0.4,0.9-0.9,0.9h-42c-0.5,0-0.9-0.4-0.9-0.9v-6.4C284.8,248.3,285.2,247.9,285.7,247.9z"/>
		<path fill-rule="evenodd" clip-rule="evenodd" fill="#FFEBBF" d="M285.2,242.4h16.2c0.2,0,0.4,0.2,0.4,0.4v2.5
			c0,0.2-0.2,0.4-0.4,0.4h-16.2c-0.2,0-0.4-0.2-0.4-0.4v-2.5C284.8,242.6,285,242.4,285.2,242.4z"/>
		<path fill-rule="evenodd" clip-rule="evenodd" fill="#FFFFFF" d="M285.7,229.6h42c0.5,0,0.9,0.4,0.9,0.9v6.4
			c0,0.5-0.4,0.9-0.9,0.9h-42c-0.5,0-0.9-0.4-0.9-0.9v-6.4C284.8,230,285.2,229.6,285.7,229.6z"/>
		<path fill-rule="evenodd" clip-rule="evenodd" fill="#FFEBBF" d="M285.2,224.1h16.2c0.2,0,0.4,0.2,0.4,0.4v2.5
			c0,0.2-0.2,0.4-0.4,0.4h-16.2c-0.2,0-0.4-0.2-0.4-0.4v-2.5C284.8,224.3,285,224.1,285.2,224.1z"/>
	</g>
	<g>
		<path fill-rule="evenodd" clip-rule="evenodd" fill="#FC6E4B" d="M304.1,186.1h48.5c0.9,0,1.7,0.8,1.7,1.7v29.5
			c0,0.9-0.8,1.7-1.7,1.7h-48.5c-0.9,0-1.7-0.8-1.7-1.7v-29.5C302.4,186.8,303.1,186.1,304.1,186.1z"/>
		<rect x="302.3" y="209.2" fill-rule="evenodd" clip-rule="evenodd" fill="#FFC1B2" width="51.9" height="6.1"/>
		<path fill-rule="evenodd" clip-rule="evenodd" fill="#FFC1B2" d="M306.5,189.1h9.9c0.5,0,0.9,0.4,0.9,0.9v6.5
			c0,0.5-0.4,0.9-0.9,0.9h-9.9c-0.5,0-0.9-0.4-0.9-0.9v-6.5C305.6,189.5,306,189.1,306.5,189.1z"/>
	</g>
</g>
<g>
	<g>
		<g>
			<g>
				<rect x="435.8" y="206" fill-rule="evenodd" clip-rule="evenodd" fill="#FFFFFF" width="1.3" height="89.6"/>
				<rect x="449.8" y="206" fill-rule="evenodd" clip-rule="evenodd" fill="#FFFFFF" width="1.3" height="89.6"/>
				<rect x="463.8" y="206" fill-rule="evenodd" clip-rule="evenodd" fill="#FFFFFF" width="1.3" height="89.6"/>
				<rect x="477.9" y="206" fill-rule="evenodd" clip-rule="evenodd" fill="#FFFFFF" width="1.3" height="89.6"/>
				<rect x="491.9" y="206" fill-rule="evenodd" clip-rule="evenodd" fill="#FFFFFF" width="1.3" height="89.6"/>
				<rect x="505.9" y="206" fill-rule="evenodd" clip-rule="evenodd" fill="#FFFFFF" width="1.3" height="89.6"/>
				<rect x="520" y="206" fill-rule="evenodd" clip-rule="evenodd" fill="#FFFFFF" width="1.3" height="89.6"/>
				<rect x="534" y="206" fill-rule="evenodd" clip-rule="evenodd" fill="#FFFFFF" width="1.3" height="89.6"/>
				<rect x="548" y="206" fill-rule="evenodd" clip-rule="evenodd" fill="#FFFFFF" width="1.3" height="89.6"/>
				<rect x="422.2" y="290.3" fill-rule="evenodd" clip-rule="evenodd" fill="#FFAE00" width="127.2" height="5.3"/>
				<rect x="422.2" y="206" fill-rule="evenodd" clip-rule="evenodd" fill="#FFAE00" width="1.3" height="89.6"/>
			</g>
			<polygon fill="#71B8B0" points="422.7,290 436.2,248.5 436.6,247 437.6,248.2 450.6,266 464,244.4 464.6,243.4 465.3,244.3 
				478,258.8 491.6,223.1 492.5,220.8 493.1,223.2 507.1,275.6 519.6,236.9 520.2,235 521.1,236.8 533.8,263.4 547.8,211.8 
				549.3,212.2 534.8,265.9 534.2,268 533.3,266 520.5,239.4 507.8,278.7 506.9,281.3 506.2,278.7 492.2,226 479,260.7 478.6,261.9 
				477.7,260.9 464.8,246.1 451.4,267.9 450.7,268.9 450,267.9 437.2,250.5 424.2,290.5 			"/>
		</g>
		<path fill-rule="evenodd" clip-rule="evenodd" fill="#FFEBBF" d="M502.4,263.6c15.4,0,28-12.6,28-28s-12.6-28-28-28
			c-15.4,0-28,12.6-28,28S487,263.6,502.4,263.6z"/>
		<g>
			<path fill-rule="evenodd" clip-rule="evenodd" fill="#FFFFFF" d="M502.4,262.7v-55.1h0c-1,0-2,0.1-3,0.2v54.7
				C500.4,262.5,501.4,262.6,502.4,262.7z"/>
			<path fill="#71B8B0" d="M483.2,256l15.5-40.9l2-5.3l1.5,5.5l12.2,45.6c-0.7,0.3-1.4,0.6-2.1,0.9c-0.5,0.1-0.9,0.2-1.4,0.3
				l-10.8-40.3l-13.8,36.3c-0.8-0.4-1.6-0.9-2.3-1.4C483.7,256.5,483.4,256.2,483.2,256z"/>
		</g>
		<g>
			<path fill="#335E59" d="M527.2,216.5c-6.3-7.8-15.7-11.9-25.2-11.8v5.7c7.8,0,15.4,3.3,20.5,9.6c8.7,10.9,6.6,26.5-4.8,34.9
				c-4.7,3.5-10.3,5.2-15.8,5.2v5.7c6.8,0,13.6-2.1,19.4-6.4C535.3,249.1,538,229.9,527.2,216.5z M502,204.7
				c-6.8,0-13.6,2.1-19.4,6.4c-13.9,10.4-16.6,29.6-5.9,43c6.3,7.8,15.7,11.9,25.2,11.8v-5.7c-7.8,0-15.4-3.3-20.5-9.6l0,0
				c-8.7-10.9-6.6-26.5,4.8-34.9c4.7-3.5,10.3-5.2,15.8-5.2V204.7z"/>
			<polygon fill="#335E59" points="457.5,273.6 452.3,267 476.9,248.8 482.1,255.3 			"/>
			<polygon fill="#5896CC" points="458.5,273.2 452.9,266.2 469.6,253.8 475.1,260.8 			"/>
			<path fill="#FC6E4B" d="M447.6,284.6c-3.2,2.4-7.8,1.8-10.3-1.2c-2.5-3.1-1.9-7.5,1.4-9.9l24.7-18.4c1.8-1.4,4.1-1.8,6.2-1.3
				l5.6,7c0,2.1-1,4.1-2.9,5.5L447.6,284.6z"/>
			<path fill="#FC6E4B" d="M447.3,284.3c-3,2.2-7.3,1.7-9.7-1.2c-2.3-2.9-1.7-7,1.3-9.3l23.2-17.3c3-2.2,7.3-1.7,9.6,1.2
				c2.3,2.9,1.7,7-1.3,9.3L447.3,284.3z"/>
		</g>
	</g>
	<polygon fill-rule="evenodd" clip-rule="evenodd" fill="#71B8B0" points="549.3,209.1 551.3,215.2 544.4,213.2 	"/>
</g>
</svg>
