<?xml version="1.0" encoding="utf-8"?>
<!-- Generator: Adobe Illustrator 18.1.1, SVG Export Plug-In . SVG Version: 6.00 Build 0)  -->
<svg version="1.1" id="Слой_1" xmlns="http://www.w3.org/2000/svg" xmlns:xlink="http://www.w3.org/1999/xlink" x="0px" y="0px"
	 viewBox="0 0 117.9 38.3" enable-background="new 0 0 117.9 38.3" xml:space="preserve">
<g>
	<defs>
		<rect id="SVGID_1_" width="117.9" height="38.3"/>
	</defs>
	<clipPath id="SVGID_2_">
		<use xlink:href="#SVGID_1_"  overflow="visible"/>
	</clipPath>
	<path clip-path="url(#SVGID_2_)" fill="#000001" d="M7.6,38.3c-0.3,0-0.6,0-0.9,0c-0.6,0-1.2,0-1.9-0.2c-0.6-0.1-1.2-0.3-1.7-0.5
		c-0.5-0.3-1-0.6-1.4-1c-0.4-0.4-0.8-0.9-1-1.4c-0.3-0.5-0.4-1-0.5-1.7C0.1,32.8,0,32.1,0,31.6c0-0.2,0-0.9,0-0.9V7.6
		c0,0,0-0.7,0-0.9c0-0.5,0-1.2,0.2-1.9c0.1-0.6,0.3-1.2,0.5-1.7c0.3-0.5,0.6-1,1-1.4c0.4-0.4,0.9-0.8,1.4-1c0.5-0.3,1.1-0.4,1.7-0.5
		C5.5,0.1,6.2,0,6.7,0l0.9,0h102.8l0.9,0c0.5,0,1.2,0,1.9,0.2c0.6,0.1,1.1,0.3,1.7,0.5c0.5,0.3,1,0.6,1.4,1c0.4,0.4,0.8,0.9,1,1.4
		c0.3,0.5,0.4,1.1,0.5,1.6c0.1,0.6,0.2,1.3,0.2,1.9c0,0.3,0,0.6,0,0.9c0,0.4,0,0.7,0,1.1v20.9c0,0.4,0,0.7,0,1.1c0,0.3,0,0.6,0,0.9
		c0,0.6-0.1,1.2-0.2,1.9c-0.1,0.6-0.3,1.2-0.5,1.7c-0.3,0.5-0.6,1-1,1.4c-0.4,0.4-0.9,0.8-1.4,1c-0.5,0.3-1,0.4-1.7,0.6
		c-0.6,0.1-1.3,0.1-1.9,0.2c-0.3,0-0.6,0-0.9,0l-1.1,0L7.6,38.3z"/>
	<path clip-path="url(#SVGID_2_)" fill="#FFFFFF" d="M23.9,19.4c0-2.8,2.3-4.1,2.4-4.2c-1.3-1.9-3.3-2.1-4-2.2c-1.7-0.2-3.3,1-4.2,1
		c-0.9,0-2.2-1-3.6-1c-1.8,0-3.5,1.1-4.5,2.7c-1.9,3.3-0.5,8.3,1.4,11c0.9,1.3,2,2.8,3.4,2.8c1.4-0.1,1.9-0.9,3.6-0.9
		c1.7,0,2.1,0.9,3.6,0.9c1.5,0,2.4-1.3,3.3-2.7c1.1-1.5,1.5-3,1.5-3.1C26.8,23.8,23.9,22.7,23.9,19.4"/>
	<path clip-path="url(#SVGID_2_)" fill="#FFFFFF" d="M21.2,11.3c0.7-0.9,1.3-2.2,1.1-3.5c-1.1,0-2.4,0.7-3.2,1.7
		c-0.7,0.8-1.3,2.1-1.1,3.4C19.1,13,20.4,12.3,21.2,11.3"/>
	<path clip-path="url(#SVGID_2_)" fill="#FFFFFF" d="M41.4,26.3h-4.7l-1.1,3.4h-2L38,17.2h2.1l4.5,12.4h-2L41.4,26.3z M37.2,24.7
		h3.8l-1.9-5.4H39L37.2,24.7z"/>
	<path clip-path="url(#SVGID_2_)" fill="#FFFFFF" d="M54.3,25.1c0,2.8-1.5,4.6-3.8,4.6c-1.3,0-2.3-0.6-2.8-1.6h0v4.5h-1.9v-12h1.8
		v1.5h0c0.5-1,1.6-1.6,2.9-1.6C52.8,20.5,54.3,22.3,54.3,25.1 M52.4,25.1c0-1.8-0.9-3-2.4-3c-1.4,0-2.4,1.2-2.4,3c0,1.8,1,3,2.4,3
		C51.4,28.1,52.4,26.9,52.4,25.1"/>
	<path clip-path="url(#SVGID_2_)" fill="#FFFFFF" d="M64.3,25.1c0,2.8-1.5,4.6-3.8,4.6c-1.3,0-2.3-0.6-2.8-1.6h0v4.5h-1.9v-12h1.8
		v1.5h0c0.5-1,1.6-1.6,2.9-1.6C62.7,20.5,64.3,22.3,64.3,25.1 M62.3,25.1c0-1.8-0.9-3-2.4-3c-1.4,0-2.4,1.2-2.4,3c0,1.8,1,3,2.4,3
		C61.4,28.1,62.3,26.9,62.3,25.1"/>
	<path clip-path="url(#SVGID_2_)" fill="#FFFFFF" d="M70.8,26.2c0.1,1.2,1.3,2,3,2c1.6,0,2.7-0.8,2.7-1.9c0-1-0.7-1.5-2.3-1.9
		L72.6,24c-2.3-0.6-3.3-1.6-3.3-3.3c0-2.1,1.9-3.6,4.5-3.6c2.6,0,4.4,1.5,4.5,3.6h-1.9c-0.1-1.2-1.1-2-2.6-2c-1.5,0-2.5,0.8-2.5,1.9
		c0,0.9,0.7,1.4,2.3,1.8l1.4,0.3c2.5,0.6,3.6,1.6,3.6,3.4c0,2.3-1.9,3.8-4.8,3.8c-2.8,0-4.6-1.4-4.7-3.7H70.8z"/>
	<path clip-path="url(#SVGID_2_)" fill="#FFFFFF" d="M82.5,18.4v2.1h1.7V22h-1.7v5c0,0.8,0.3,1.1,1.1,1.1c0.2,0,0.5,0,0.6,0v1.5
		c-0.2,0.1-0.6,0.1-1,0.1c-1.8,0-2.5-0.7-2.5-2.4V22h-1.3v-1.5h1.3v-2.1H82.5z"/>
	<path clip-path="url(#SVGID_2_)" fill="#FFFFFF" d="M85.2,25.1c0-2.8,1.7-4.6,4.3-4.6c2.6,0,4.3,1.8,4.3,4.6c0,2.9-1.7,4.6-4.3,4.6
		C86.9,29.7,85.2,28,85.2,25.1 M91.9,25.1c0-2-0.9-3.1-2.4-3.1c-1.5,0-2.4,1.2-2.4,3.1c0,2,0.9,3.1,2.4,3.1
		C91,28.2,91.9,27.1,91.9,25.1"/>
	<path clip-path="url(#SVGID_2_)" fill="#FFFFFF" d="M95.3,20.6h1.8v1.5h0c0.3-1,1.1-1.6,2.2-1.6c0.3,0,0.5,0,0.6,0.1v1.7
		c-0.1-0.1-0.5-0.1-0.8-0.1c-1.2,0-1.9,0.8-1.9,2.1v5.4h-1.9V20.6z"/>
	<path clip-path="url(#SVGID_2_)" fill="#FFFFFF" d="M108.5,27c-0.3,1.6-1.8,2.8-3.9,2.8c-2.6,0-4.3-1.8-4.3-4.6
		c0-2.8,1.6-4.7,4.2-4.7c2.5,0,4.1,1.7,4.1,4.5v0.6h-6.4v0.1c0,1.5,1,2.6,2.4,2.6c1,0,1.8-0.5,2.1-1.3H108.5z M102.2,24.3h4.5
		c0-1.4-0.9-2.3-2.2-2.3C103.3,22,102.3,22.9,102.2,24.3"/>
	<path clip-path="url(#SVGID_2_)" fill="#FFFFFF" d="M37,7.9c1.8,0,2.8,1.1,2.8,3c0,1.9-1,3-2.8,3h-2.2v-6H37z M35.7,13h1.1
		c1.2,0,2-0.8,2-2.1c0-1.3-0.7-2.1-2-2.1h-1.1V13z"/>
	<path clip-path="url(#SVGID_2_)" fill="#FFFFFF" d="M40.8,11.6c0-1.5,0.8-2.3,2.1-2.3c1.3,0,2.1,0.9,2.1,2.3c0,1.5-0.8,2.3-2.1,2.3
		C41.6,13.9,40.8,13,40.8,11.6 M44.1,11.6c0-1-0.4-1.5-1.2-1.5c-0.8,0-1.2,0.6-1.2,1.5c0,1,0.4,1.6,1.2,1.6
		C43.7,13.1,44.1,12.5,44.1,11.6"/>
	<polygon clip-path="url(#SVGID_2_)" fill="#FFFFFF" points="50.7,13.8 49.8,13.8 48.8,10.5 48.8,10.5 47.9,13.8 46.9,13.8 
		45.7,9.3 46.6,9.3 47.4,12.8 47.5,12.8 48.4,9.3 49.2,9.3 50.2,12.8 50.2,12.8 51,9.3 51.9,9.3 	"/>
	<path clip-path="url(#SVGID_2_)" fill="#FFFFFF" d="M53,9.3h0.9V10h0.1c0.2-0.5,0.7-0.8,1.3-0.8c1,0,1.6,0.6,1.6,1.7v2.9h-0.9v-2.7
		c0-0.7-0.3-1.1-1-1.1c-0.7,0-1.1,0.4-1.1,1.1v2.6H53V9.3z"/>
	<rect x="58.2" y="7.6" clip-path="url(#SVGID_2_)" fill="#FFFFFF" width="0.9" height="6.3"/>
	<path clip-path="url(#SVGID_2_)" fill="#FFFFFF" d="M60.3,11.6c0-1.5,0.8-2.3,2.1-2.3c1.3,0,2.1,0.9,2.1,2.3c0,1.5-0.8,2.3-2.1,2.3
		C61.2,13.9,60.3,13,60.3,11.6 M63.7,11.6c0-1-0.4-1.5-1.2-1.5c-0.8,0-1.2,0.6-1.2,1.5c0,1,0.4,1.6,1.2,1.6
		C63.2,13.1,63.7,12.5,63.7,11.6"/>
	<path clip-path="url(#SVGID_2_)" fill="#FFFFFF" d="M65.5,12.5c0-0.8,0.6-1.3,1.7-1.3l1.2-0.1v-0.4c0-0.5-0.3-0.7-0.9-0.7
		c-0.5,0-0.8,0.2-0.9,0.5h-0.9c0.1-0.8,0.8-1.3,1.8-1.3c1.1,0,1.8,0.6,1.8,1.5v3.1h-0.9v-0.6h-0.1c-0.3,0.5-0.8,0.7-1.4,0.7
		C66.2,13.9,65.5,13.4,65.5,12.5 M68.4,12.2v-0.4l-1.1,0.1c-0.6,0-0.9,0.3-0.9,0.6c0,0.4,0.4,0.6,0.8,0.6
		C67.9,13.1,68.4,12.7,68.4,12.2"/>
	<path clip-path="url(#SVGID_2_)" fill="#FFFFFF" d="M70.5,11.6c0-1.4,0.7-2.3,1.9-2.3c0.6,0,1.1,0.3,1.4,0.8h0.1V7.6h0.9v6.3h-0.9
		v-0.7h-0.1c-0.3,0.5-0.8,0.8-1.4,0.8C71.2,13.9,70.5,13,70.5,11.6 M71.4,11.6c0,1,0.4,1.5,1.2,1.5c0.7,0,1.2-0.6,1.2-1.5
		c0-0.9-0.5-1.5-1.2-1.5C71.8,10,71.4,10.6,71.4,11.6"/>
	<path clip-path="url(#SVGID_2_)" fill="#FFFFFF" d="M78.4,11.6c0-1.5,0.8-2.3,2.1-2.3c1.3,0,2.1,0.9,2.1,2.3c0,1.5-0.8,2.3-2.1,2.3
		C79.2,13.9,78.4,13,78.4,11.6 M81.7,11.6c0-1-0.4-1.5-1.2-1.5c-0.8,0-1.2,0.6-1.2,1.5c0,1,0.4,1.6,1.2,1.6
		C81.3,13.1,81.7,12.5,81.7,11.6"/>
	<path clip-path="url(#SVGID_2_)" fill="#FFFFFF" d="M83.8,9.3h0.9V10h0.1c0.2-0.5,0.7-0.8,1.3-0.8c1,0,1.6,0.6,1.6,1.7v2.9h-0.9
		v-2.7c0-0.7-0.3-1.1-1-1.1s-1.1,0.4-1.1,1.1v2.6h-0.9V9.3z"/>
	<path clip-path="url(#SVGID_2_)" fill="#FFFFFF" d="M92.6,8.2v1.1h1v0.7h-1v2.3c0,0.5,0.2,0.7,0.6,0.7c0.1,0,0.2,0,0.3,0v0.7
		c-0.1,0-0.3,0-0.5,0c-1,0-1.4-0.3-1.4-1.2v-2.5H91V9.3h0.7V8.2H92.6z"/>
	<path clip-path="url(#SVGID_2_)" fill="#FFFFFF" d="M94.8,7.6h0.9V10h0.1c0.2-0.5,0.7-0.8,1.4-0.8c1,0,1.6,0.6,1.6,1.7v2.9h-0.9
		v-2.7c0-0.7-0.3-1.1-1-1.1c-0.7,0-1.1,0.5-1.1,1.1v2.6h-0.9V7.6z"/>
	<path clip-path="url(#SVGID_2_)" fill="#FFFFFF" d="M103.9,12.6c-0.2,0.8-0.9,1.3-2,1.3c-1.3,0-2.1-0.9-2.1-2.3
		c0-1.4,0.8-2.4,2.1-2.4c1.3,0,2,0.9,2,2.3v0.3h-3.2v0c0,0.8,0.5,1.3,1.2,1.3c0.5,0,0.9-0.2,1.1-0.5H103.9z M100.8,11.2h2.3
		c0-0.7-0.4-1.2-1.1-1.2C101.3,10,100.8,10.5,100.8,11.2"/>
</g>
</svg>
