<?xml version="1.0" encoding="utf-8"?>
<!-- Generator: Adobe Illustrator 18.1.1, SVG Export Plug-In . SVG Version: 6.00 Build 0)  -->
<svg version="1.1" id="Слой_1" xmlns="http://www.w3.org/2000/svg" xmlns:xlink="http://www.w3.org/1999/xlink" x="0px" y="0px"
	 viewBox="0 0 134.5 40" enable-background="new 0 0 134.5 40" xml:space="preserve">
<g>
	<defs>
		<rect id="SVGID_1_" width="134.5" height="40"/>
	</defs>
	<clipPath id="SVGID_2_">
		<use xlink:href="#SVGID_1_"  overflow="visible"/>
	</clipPath>
	<g clip-path="url(#SVGID_2_)">
		<defs>
			<rect id="SVGID_3_" width="134.5" height="40"/>
		</defs>
		<clipPath id="SVGID_4_">
			<use xlink:href="#SVGID_3_"  overflow="visible"/>
		</clipPath>
		<path clip-path="url(#SVGID_4_)" d="M129.5,40H5c-2.8,0-5-2.3-5-5V5c0-2.8,2.3-5,5-5h124.5c2.8,0,5,2.3,5,5v30
			C134.5,37.8,132.2,40,129.5,40"/>
		<path clip-path="url(#SVGID_4_)" fill="#FFFFFF" d="M47.3,11.8c0,0.8-0.2,1.5-0.7,2c-0.6,0.6-1.3,0.9-2.2,0.9
			c-0.9,0-1.6-0.3-2.2-0.9c-0.6-0.6-0.9-1.3-0.9-2.2c0-0.9,0.3-1.6,0.9-2.2c0.6-0.6,1.3-0.9,2.2-0.9c0.4,0,0.8,0.1,1.2,0.3
			C46,8.8,46.3,9,46.5,9.3L46,9.9c-0.4-0.5-0.9-0.7-1.6-0.7c-0.6,0-1.2,0.2-1.6,0.7c-0.5,0.4-0.7,1-0.7,1.7c0,0.7,0.2,1.3,0.7,1.7
			c0.5,0.4,1,0.7,1.6,0.7c0.7,0,1.2-0.2,1.7-0.7c0.3-0.3,0.5-0.7,0.5-1.2h-2.2v-0.7h2.9C47.3,11.5,47.3,11.6,47.3,11.8"/>
		<path clip-path="url(#SVGID_4_)" fill="none" stroke="#FFFFFF" stroke-width="0.2" stroke-miterlimit="10" d="M47.3,11.8
			c0,0.8-0.2,1.5-0.7,2c-0.6,0.6-1.3,0.9-2.2,0.9c-0.9,0-1.6-0.3-2.2-0.9c-0.6-0.6-0.9-1.3-0.9-2.2c0-0.9,0.3-1.6,0.9-2.2
			c0.6-0.6,1.3-0.9,2.2-0.9c0.4,0,0.8,0.1,1.2,0.3C46,8.8,46.3,9,46.5,9.3L46,9.9c-0.4-0.5-0.9-0.7-1.6-0.7c-0.6,0-1.2,0.2-1.6,0.7
			c-0.5,0.4-0.7,1-0.7,1.7c0,0.7,0.2,1.3,0.7,1.7c0.5,0.4,1,0.7,1.6,0.7c0.7,0,1.2-0.2,1.7-0.7c0.3-0.3,0.5-0.7,0.5-1.2h-2.2v-0.7
			h2.9C47.3,11.5,47.3,11.6,47.3,11.8z"/>
		<polygon clip-path="url(#SVGID_4_)" fill="#FFFFFF" points="51.9,9.3 49.2,9.3 49.2,11.2 51.6,11.2 51.6,11.9 49.2,11.9 
			49.2,13.8 51.9,13.8 51.9,14.5 48.4,14.5 48.4,8.5 51.9,8.5 		"/>
		<polygon clip-path="url(#SVGID_4_)" fill="none" stroke="#FFFFFF" stroke-width="0.2" stroke-miterlimit="10" points="51.9,9.3 
			49.2,9.3 49.2,11.2 51.6,11.2 51.6,11.9 49.2,11.9 49.2,13.8 51.9,13.8 51.9,14.5 48.4,14.5 48.4,8.5 51.9,8.5 		"/>
		<polygon clip-path="url(#SVGID_4_)" fill="#FFFFFF" points="55.2,14.5 54.4,14.5 54.4,9.3 52.7,9.3 52.7,8.5 56.8,8.5 56.8,9.3 
			55.2,9.3 		"/>
		<polygon clip-path="url(#SVGID_4_)" fill="none" stroke="#FFFFFF" stroke-width="0.2" stroke-miterlimit="10" points="55.2,14.5 
			54.4,14.5 54.4,9.3 52.7,9.3 52.7,8.5 56.8,8.5 56.8,9.3 55.2,9.3 		"/>
		<rect x="59.8" y="8.5" clip-path="url(#SVGID_4_)" fill="#FFFFFF" width="0.8" height="6"/>
		
			<rect x="59.8" y="8.5" clip-path="url(#SVGID_4_)" fill="none" stroke="#FFFFFF" stroke-width="0.2" stroke-miterlimit="10" width="0.8" height="6"/>
		<polygon clip-path="url(#SVGID_4_)" fill="#FFFFFF" points="64,14.5 63.2,14.5 63.2,9.3 61.6,9.3 61.6,8.5 65.7,8.5 65.7,9.3 
			64,9.3 		"/>
		<polygon clip-path="url(#SVGID_4_)" fill="none" stroke="#FFFFFF" stroke-width="0.2" stroke-miterlimit="10" points="64,14.5 
			63.2,14.5 63.2,9.3 61.6,9.3 61.6,8.5 65.7,8.5 65.7,9.3 64,9.3 		"/>
		<path clip-path="url(#SVGID_4_)" fill="#FFFFFF" d="M73.5,13.8c-0.6,0.6-1.3,0.9-2.2,0.9s-1.6-0.3-2.2-0.9
			c-0.6-0.6-0.9-1.3-0.9-2.2c0-0.9,0.3-1.6,0.9-2.2c0.6-0.6,1.3-0.9,2.2-0.9c0.9,0,1.6,0.3,2.2,0.9c0.6,0.6,0.9,1.3,0.9,2.2
			C74.4,12.4,74.1,13.2,73.5,13.8 M69.7,13.3c0.4,0.5,1,0.7,1.6,0.7s1.2-0.2,1.6-0.7c0.4-0.4,0.7-1,0.7-1.7c0-0.7-0.2-1.3-0.7-1.7
			c-0.4-0.5-1-0.7-1.6-0.7s-1.2,0.2-1.6,0.7c-0.4,0.4-0.7,1-0.7,1.7C69,12.2,69.2,12.8,69.7,13.3"/>
		<path clip-path="url(#SVGID_4_)" fill="none" stroke="#FFFFFF" stroke-width="0.2" stroke-miterlimit="10" d="M73.5,13.8
			c-0.6,0.6-1.3,0.9-2.2,0.9s-1.6-0.3-2.2-0.9c-0.6-0.6-0.9-1.3-0.9-2.2c0-0.9,0.3-1.6,0.9-2.2c0.6-0.6,1.3-0.9,2.2-0.9
			c0.9,0,1.6,0.3,2.2,0.9c0.6,0.6,0.9,1.3,0.9,2.2C74.4,12.4,74.1,13.2,73.5,13.8z M69.7,13.3c0.4,0.5,1,0.7,1.6,0.7
			s1.2-0.2,1.6-0.7c0.4-0.4,0.7-1,0.7-1.7c0-0.7-0.2-1.3-0.7-1.7c-0.4-0.5-1-0.7-1.6-0.7s-1.2,0.2-1.6,0.7c-0.4,0.4-0.7,1-0.7,1.7
			C69,12.2,69.2,12.8,69.7,13.3z"/>
		<polygon clip-path="url(#SVGID_4_)" fill="#FFFFFF" points="75.5,14.5 75.5,8.5 76.4,8.5 79.3,13.2 79.3,13.2 79.3,12 79.3,8.5 
			80.1,8.5 80.1,14.5 79.3,14.5 76.2,9.6 76.2,9.6 76.2,10.8 76.2,14.5 		"/>
		<polygon clip-path="url(#SVGID_4_)" fill="none" stroke="#FFFFFF" stroke-width="0.2" stroke-miterlimit="10" points="75.5,14.5 
			75.5,8.5 76.4,8.5 79.3,13.2 79.3,13.2 79.3,12 79.3,8.5 80.1,8.5 80.1,14.5 79.3,14.5 76.2,9.6 76.2,9.6 76.2,10.8 76.2,14.5 		
			"/>
		<path clip-path="url(#SVGID_4_)" fill="#FFFFFF" d="M68,23.3c-2.4,0-4.3,1.8-4.3,4.3c0,2.4,1.9,4.3,4.3,4.3c2.4,0,4.3-1.8,4.3-4.3
			C72.3,25.1,70.4,23.3,68,23.3 M68,30.1c-1.3,0-2.4-1.1-2.4-2.6c0-1.5,1.1-2.6,2.4-2.6c1.3,0,2.4,1,2.4,2.6
			C70.4,29.1,69.3,30.1,68,30.1 M58.7,23.3c-2.4,0-4.3,1.8-4.3,4.3c0,2.4,1.9,4.3,4.3,4.3c2.4,0,4.3-1.8,4.3-4.3
			C63,25.1,61.1,23.3,58.7,23.3 M58.7,30.1c-1.3,0-2.4-1.1-2.4-2.6c0-1.5,1.1-2.6,2.4-2.6c1.3,0,2.4,1,2.4,2.6
			C61.1,29.1,60,30.1,58.7,30.1 M47.6,24.6v1.8h4.3c-0.1,1-0.5,1.8-1,2.3c-0.6,0.6-1.6,1.3-3.3,1.3c-2.7,0-4.7-2.1-4.7-4.8
			s2.1-4.8,4.7-4.8c1.4,0,2.5,0.6,3.3,1.3l1.3-1.3c-1.1-1-2.5-1.8-4.5-1.8c-3.6,0-6.7,3-6.7,6.6s3.1,6.6,6.7,6.6
			c2,0,3.4-0.6,4.6-1.9c1.2-1.2,1.6-2.9,1.6-4.2c0-0.4,0-0.8-0.1-1.1H47.6z M92.9,26c-0.4-1-1.4-2.7-3.6-2.7c-2.2,0-4,1.7-4,4.3
			c0,2.4,1.8,4.3,4.2,4.3c1.9,0,3.1-1.2,3.5-1.9l-1.4-1c-0.5,0.7-1.1,1.2-2.1,1.2c-1,0-1.6-0.4-2.1-1.3l5.7-2.4L92.9,26z M87.1,27.4
			c0-1.6,1.3-2.5,2.2-2.5c0.7,0,1.4,0.4,1.6,0.9L87.1,27.4z M82.5,31.5h1.9V19h-1.9V31.5z M79.4,24.2L79.4,24.2
			c-0.5-0.5-1.3-0.9-2.3-0.9c-2.1,0-4.1,1.9-4.1,4.3c0,2.4,1.9,4.2,4.1,4.2c1,0,1.8-0.5,2.2-1h0.1v0.6c0,1.6-0.9,2.5-2.3,2.5
			c-1.1,0-1.9-0.8-2.1-1.5l-1.6,0.7c0.5,1.1,1.7,2.5,3.8,2.5c2.2,0,4-1.3,4-4.4v-7.6h-1.8V24.2z M77.3,30.1c-1.3,0-2.4-1.1-2.4-2.6
			c0-1.5,1.1-2.6,2.4-2.6c1.3,0,2.3,1.1,2.3,2.6C79.6,29,78.6,30.1,77.3,30.1 M101.7,19h-4.5v12.5h1.9v-4.7h2.6
			c2.1,0,4.1-1.5,4.1-3.9C105.8,20.5,103.8,19,101.7,19 M101.7,25.1h-2.7v-4.3h2.7c1.4,0,2.2,1.2,2.2,2.1
			C103.9,23.9,103.1,25.1,101.7,25.1 M113.3,23.3c-1.4,0-2.8,0.6-3.3,1.9l1.7,0.7c0.4-0.7,1-0.9,1.7-0.9c1,0,1.9,0.6,2,1.6v0.1
			c-0.3-0.2-1.1-0.5-1.9-0.5c-1.8,0-3.6,1-3.6,2.8c0,1.7,1.5,2.8,3.1,2.8c1.3,0,1.9-0.6,2.4-1.2h0.1v1h1.8v-4.8
			C117.1,24.5,115.4,23.3,113.3,23.3 M113,30.1c-0.6,0-1.5-0.3-1.5-1.1c0-1,1.1-1.3,2-1.3c0.8,0,1.2,0.2,1.7,0.4
			C115.1,29.3,114.1,30.1,113,30.1 M123.6,23.5l-2.1,5.4h-0.1l-2.2-5.4h-2l3.3,7.6l-1.9,4.2h1.9l5.1-11.8H123.6z M106.8,31.5h1.9V19
			h-1.9V31.5z"/>
	</g>
	<g clip-path="url(#SVGID_2_)">
		<defs>
			<path id="SVGID_5_" d="M10.3,9.1C10,9.4,9.9,9.9,9.9,10.5v22.1c0,0.6,0.2,1.1,0.5,1.4l0.1,0.1l12.4-12.4v-0.1v-0.1L10.3,9.1
				L10.3,9.1z"/>
		</defs>
		<clipPath id="SVGID_6_">
			<use xlink:href="#SVGID_5_"  overflow="visible"/>
		</clipPath>
		
			<linearGradient id="SVGID_7_" gradientUnits="userSpaceOnUse" x1="0" y1="39.8234" x2="1" y2="39.8234" gradientTransform="matrix(-16.7824 16.7824 -16.7824 -16.7824 692.9774 681.5412)">
			<stop  offset="0" style="stop-color:#00A0FF"/>
			<stop  offset="6.574450e-003" style="stop-color:#00A1FF"/>
			<stop  offset="0.2601" style="stop-color:#00BEFF"/>
			<stop  offset="0.5122" style="stop-color:#00D2FF"/>
			<stop  offset="0.7604" style="stop-color:#00DFFF"/>
			<stop  offset="1" style="stop-color:#00E3FF"/>
		</linearGradient>
		<polygon clip-path="url(#SVGID_6_)" fill="url(#SVGID_7_)" points="16.3,2.5 -2.7,21.5 16.3,40.5 35.3,21.5 		"/>
	</g>
	<g clip-path="url(#SVGID_2_)">
		<defs>
			<path id="SVGID_8_" d="M22.8,21.4v0.1v0.1l4.1,4.1l0.1-0.1l4.9-2.8c1.4-0.8,1.4-2.1,0-2.9L27,17.3l-0.1-0.1L22.8,21.4z"/>
		</defs>
		<clipPath id="SVGID_9_">
			<use xlink:href="#SVGID_8_"  overflow="visible"/>
		</clipPath>
		
			<linearGradient id="SVGID_10_" gradientUnits="userSpaceOnUse" x1="0" y1="40" x2="1" y2="40" gradientTransform="matrix(-24.1969 0 0 -24.1969 33.7159 989.4127)">
			<stop  offset="0" style="stop-color:#FFE000"/>
			<stop  offset="0.4087" style="stop-color:#FFBD00"/>
			<stop  offset="0.7754" style="stop-color:#FFA500"/>
			<stop  offset="1" style="stop-color:#FF9C00"/>
		</linearGradient>
		<rect x="22.8" y="17.3" clip-path="url(#SVGID_9_)" fill="url(#SVGID_10_)" width="10.5" height="8.6"/>
	</g>
	<g clip-path="url(#SVGID_2_)">
		<defs>
			<path id="SVGID_11_" d="M10.3,34c0.5,0.5,1.2,0.5,2.1,0.1L27,25.8l-4.2-4.2L10.3,34z"/>
		</defs>
		<clipPath id="SVGID_12_">
			<use xlink:href="#SVGID_11_"  overflow="visible"/>
		</clipPath>
		
			<linearGradient id="SVGID_13_" gradientUnits="userSpaceOnUse" x1="0" y1="40.0404" x2="1" y2="40.0404" gradientTransform="matrix(-22.7583 22.7583 -22.7583 -22.7583 935.0396 934.1626)">
			<stop  offset="0" style="stop-color:#FF3A44"/>
			<stop  offset="1" style="stop-color:#C31162"/>
		</linearGradient>
		<polygon clip-path="url(#SVGID_12_)" fill="url(#SVGID_13_)" points="18.7,13.2 3.8,28 18.7,42.9 33.5,28 		"/>
	</g>
	<g clip-path="url(#SVGID_2_)">
		<defs>
			<path id="SVGID_14_" d="M10.3,9.1l12.5,12.5l4.2-4.2L12.4,9c-0.4-0.2-0.8-0.3-1.1-0.3C10.9,8.7,10.6,8.8,10.3,9.1"/>
		</defs>
		<clipPath id="SVGID_15_">
			<use xlink:href="#SVGID_14_"  overflow="visible"/>
		</clipPath>
		
			<linearGradient id="SVGID_16_" gradientUnits="userSpaceOnUse" x1="0" y1="40.0941" x2="1" y2="40.0941" gradientTransform="matrix(10.1625 10.1625 -10.1625 10.1625 413.6798 -404.7893)">
			<stop  offset="0" style="stop-color:#32A071"/>
			<stop  offset="6.850000e-002" style="stop-color:#2DA771"/>
			<stop  offset="0.4762" style="stop-color:#15CF74"/>
			<stop  offset="0.8009" style="stop-color:#06E775"/>
			<stop  offset="1" style="stop-color:#00F076"/>
		</linearGradient>
		<polygon clip-path="url(#SVGID_15_)" fill="url(#SVGID_16_)" points="3.9,15.1 18.7,29.9 33.4,15.1 18.7,0.3 		"/>
	</g>
	<g clip-path="url(#SVGID_2_)">
		<defs>
			<rect id="SVGID_17_" width="134.5" height="40"/>
		</defs>
		<clipPath id="SVGID_18_">
			<use xlink:href="#SVGID_17_"  overflow="visible"/>
		</clipPath>
		<g opacity="0.2" clip-path="url(#SVGID_18_)" enable-background="new    ">
			<g>
				<defs>
					<rect id="SVGID_19_" x="10.3" y="25.7" width="16.7" height="8.7"/>
				</defs>
				<clipPath id="SVGID_20_">
					<use xlink:href="#SVGID_19_"  overflow="visible"/>
				</clipPath>
				<path clip-path="url(#SVGID_20_)" d="M26.9,25.7l-14.5,8.2c-0.8,0.5-1.5,0.4-2,0L10.3,34l0.1,0.1v0c0.5,0.4,1.2,0.5,2,0
					L26.9,25.7L26.9,25.7z"/>
			</g>
		</g>
		<g opacity="0.12" clip-path="url(#SVGID_18_)" enable-background="new    ">
			<g>
				<defs>
					<rect id="SVGID_21_" x="9.9" y="32.4" width="0.5" height="1.6"/>
				</defs>
				<clipPath id="SVGID_22_">
					<use xlink:href="#SVGID_21_"  overflow="visible"/>
				</clipPath>
				<path clip-path="url(#SVGID_22_)" d="M10.3,33.9c-0.3-0.3-0.5-0.8-0.5-1.4v0.1c0,0.6,0.2,1.1,0.5,1.4V33.9L10.3,33.9z"/>
			</g>
		</g>
		<g opacity="0.12" clip-path="url(#SVGID_18_)" enable-background="new    ">
			<g>
				<defs>
					<rect id="SVGID_23_" x="26.9" y="21.5" width="6" height="4.2"/>
				</defs>
				<clipPath id="SVGID_24_">
					<use xlink:href="#SVGID_23_"  overflow="visible"/>
				</clipPath>
				<path clip-path="url(#SVGID_24_)" d="M31.9,22.8l-5,2.8l0.1,0.1l4.9-2.8c0.7-0.4,1-0.9,1-1.4C32.9,22,32.5,22.5,31.9,22.8"/>
			</g>
		</g>
		<g opacity="0.25" clip-path="url(#SVGID_18_)" enable-background="new    ">
			<g>
				<defs>
					<rect id="SVGID_25_" x="9.9" y="8.7" width="23.1" height="12.9"/>
				</defs>
				<clipPath id="SVGID_26_">
					<use xlink:href="#SVGID_25_"  overflow="visible"/>
				</clipPath>
				<path clip-path="url(#SVGID_26_)" fill="#FFFFFF" d="M12.4,9.2l19.5,11.1c0.6,0.4,1,0.8,1,1.3c0-0.5-0.3-1-1-1.4L12.4,9
					C11,8.2,9.9,8.9,9.9,10.5v0.1C9.9,9,11,8.4,12.4,9.2"/>
			</g>
		</g>
	</g>
</g>
</svg>
