<?xml version="1.0" standalone="no"?>
<!DOCTYPE svg PUBLIC "-//W3C//DTD SVG 20010904//EN"
 "http://www.w3.org/TR/2001/REC-SVG-20010904/DTD/svg10.dtd">
<svg version="1.0" xmlns="http://www.w3.org/2000/svg"
 width="26px" height="18px" viewBox="0 0 195.000000 195.000000"
 preserveAspectRatio="xMidYMid meet">

<g transform="translate(0.000000,195.000000) scale(0.100000,-0.100000)"
fill="#ff9c00" stroke="none">
<path d="M973 1572 l-113 -57 0 -55 0 -55 -92 -22 c-331 -79 -588 -336 -674
-673 -20 -79 -27 -315 -11 -373 l7 -27 126 0 c115 0 125 1 120 18 -66 209 3
470 167 635 80 80 154 127 253 163 115 42 104 80 104 -351 l0 -375 125 62 125
63 0 313 0 314 33 -7 c163 -35 346 -183 426 -347 56 -112 75 -206 67 -333 -3
-55 -9 -112 -12 -127 l-6 -28 124 0 125 0 7 46 c11 84 6 253 -10 332 -49 241
-214 469 -432 597 -64 38 -211 93 -294 110 l-28 5 0 115 c0 86 -3 115 -12 114
-7 0 -64 -26 -125 -57z"/>
</g>
</svg>
